<svg width="82" height="59" viewBox="0 0 82 59" fill="none" xmlns="http://www.w3.org/2000/svg">
<path id="Union" fill-rule="evenodd" clip-rule="evenodd" d="M29.3703 3.89006C34.3803 0.789732 40.3134 -0.517728 46.1799 0.185759C52.0465 0.889247 57.492 3.56117 61.6083 7.75591C65.3802 11.5994 67.8266 16.5085 68.6228 21.7823C72.6011 23.0427 76.0713 25.5548 78.4916 28.956C81.2027 32.7662 82.4074 37.4278 81.8779 42.0581C81.3478 46.6884 79.1208 50.9663 75.6169 54.0811C72.1136 57.1951 67.577 58.9311 62.8671 58.9589H23.2735C17.513 59.3099 11.8427 57.3999 7.49502 53.6403C3.11714 49.8541 0.438813 44.5028 0.0492996 38.7631C-0.340262 33.0234 1.59085 27.3657 5.41785 23.0346C7.31275 20.8901 9.61607 19.1358 12.1963 17.8719C14.3985 16.7933 16.7656 16.0898 19.1979 15.7882C21.249 10.8832 24.7995 6.7185 29.3703 3.89006Z" fill="#F3F2FF"/>
</svg>
