<svg width="24" height="24" viewBox="0 0 24 24" fill="none" xmlns="http://www.w3.org/2000/svg">
<g id="icon/service3" clip-path="url(#clip0_1008_6534)">
<path id="Union" fill-rule="evenodd" clip-rule="evenodd" d="M2.55429 0.0507813C1.15714 0.0507813 0.0257149 1.18221 0.0257149 2.57935V16.7908C0.0257149 18.1879 1.15714 19.3194 2.55429 19.3194H16.7657C18.1629 19.3194 19.296 18.1879 19.296 16.7908V2.57935C19.2955 1.90858 19.0288 1.26543 18.5543 0.791279C18.0798 0.317129 17.4365 0.0507811 16.7657 0.0507813H2.55429ZM6.49029 13.1822V6.18792C6.49104 6.07108 6.52265 5.9565 6.58191 5.85579C6.64116 5.75508 6.72597 5.6718 6.82774 5.61439C6.92952 5.55698 7.04465 5.52747 7.16149 5.52884C7.27834 5.53021 7.39275 5.56242 7.49314 5.62221L13.4829 9.10221C13.5836 9.16047 13.6672 9.24421 13.7254 9.34501C13.7835 9.44581 13.8141 9.56013 13.8141 9.6765C13.8141 9.79286 13.7835 9.90718 13.7254 10.008C13.6672 10.1088 13.5836 10.1925 13.4829 10.2508L7.49314 13.7479C7.39275 13.8077 7.27834 13.8399 7.16149 13.8413C7.04465 13.8427 6.92952 13.8132 6.82774 13.7557C6.72597 13.6983 6.64116 13.6151 6.58191 13.5143C6.52265 13.4136 6.49104 13.2991 6.49029 13.1822ZM23.976 6.05078C23.976 5.70979 23.8405 5.38276 23.5994 5.14164C23.3583 4.90053 23.0313 4.76507 22.6903 4.76507C22.3493 4.76507 22.0223 4.90053 21.7811 5.14164C21.54 5.38276 21.4046 5.70979 21.4046 6.05078V21.0474C21.4046 21.0975 21.3947 21.1471 21.3754 21.1934C21.3562 21.2397 21.328 21.2817 21.2925 21.3171C21.257 21.3524 21.2148 21.3804 21.1685 21.3994C21.1221 21.4185 21.0724 21.4282 21.0223 21.4279H6.02571C5.68472 21.4279 5.3577 21.5634 5.11658 21.8045C4.87546 22.0456 4.74 22.3726 4.74 22.7136C4.74 23.0546 4.87546 23.3817 5.11658 23.6228C5.3577 23.8639 5.68472 23.9994 6.02571 23.9994H21.0223C21.4099 23.9994 21.7938 23.923 22.152 23.7746C22.5101 23.6263 22.8355 23.4089 23.1097 23.1347C23.3838 22.8606 23.6012 22.5352 23.7496 22.177C23.8979 21.8189 23.9743 21.435 23.9743 21.0474V6.05078H23.976Z" fill="url(#paint0_linear_1008_6534)"/>
</g>
<defs>
<linearGradient id="paint0_linear_1008_6534" x1="12.0009" y1="0.0507812" x2="12.0009" y2="23.9994" gradientUnits="userSpaceOnUse">
<stop stop-color="#4369F6"/>
<stop offset="1" stop-color="#9A67F3"/>
</linearGradient>
<clipPath id="clip0_1008_6534">
<rect width="24" height="24" fill="white"/>
</clipPath>
</defs>
</svg>
