<svg width="24" height="24" viewBox="0 0 24 24" fill="none" xmlns="http://www.w3.org/2000/svg">
<g id="icon/service6" clip-path="url(#clip0_1008_6553)">
<g id="Vector">
<path d="M21.4286 16.286C21.8833 16.286 22.3193 16.4666 22.6408 16.7881C22.9623 17.1096 23.1429 17.5456 23.1429 18.0003V21.4289C23.1429 21.8835 22.9623 22.3195 22.6408 22.641C22.3193 22.9625 21.8833 23.1431 21.4286 23.1431H2.57146C2.1168 23.1431 1.68077 22.9625 1.35927 22.641C1.03778 22.3195 0.857172 21.8835 0.857172 21.4289V18.0003C0.857172 17.5456 1.03778 17.1096 1.35927 16.7881C1.68077 16.4666 2.1168 16.286 2.57146 16.286H21.4286Z" fill="url(#paint0_linear_1008_6553)"/>
<path d="M12 0.857422C12.4547 0.857422 12.8907 1.03803 13.2122 1.35952C13.5337 1.68102 13.7143 2.11705 13.7143 2.57171V12.0003C13.7143 12.4549 13.5337 12.891 13.2122 13.2125C12.8907 13.534 12.4547 13.7146 12 13.7146H2.45489C2.00023 13.7146 1.56419 13.534 1.2427 13.2125C0.921212 12.891 0.740601 12.4549 0.740601 12.0003V2.57171C0.740601 2.11705 0.921212 1.68102 1.2427 1.35952C1.56419 1.03803 2.00023 0.857422 2.45489 0.857422H12Z" fill="url(#paint1_linear_1008_6553)"/>
<path d="M22.2857 8.14314C22.5131 8.14314 22.7311 8.23344 22.8918 8.39419C23.0526 8.55493 23.1429 8.77295 23.1429 9.00028V12.8574C23.1429 12.97 23.1207 13.0814 23.0776 13.1854C23.0346 13.2894 22.9714 13.3839 22.8918 13.4635C22.8122 13.5431 22.7178 13.6062 22.6138 13.6493C22.5098 13.6924 22.3983 13.7146 22.2857 13.7146H17.1429C17.0303 13.7146 16.9189 13.6924 16.8149 13.6493C16.7109 13.6062 16.6164 13.5431 16.5368 13.4635C16.4572 13.3839 16.3941 13.2894 16.351 13.1854C16.3079 13.0814 16.2857 12.97 16.2857 12.8574V9.00028C16.2857 8.77295 16.376 8.55493 16.5368 8.39419C16.6975 8.23344 16.9156 8.14314 17.1429 8.14314H22.2857Z" fill="url(#paint2_linear_1008_6553)"/>
<path d="M22.2857 0.857422C22.5131 0.857422 22.7311 0.947728 22.8918 1.10847C23.0526 1.26922 23.1429 1.48724 23.1429 1.71456V5.57171C23.1429 5.79904 23.0526 6.01705 22.8918 6.1778C22.7311 6.33854 22.5131 6.42885 22.2857 6.42885H17.1429C16.9156 6.42885 16.6975 6.33854 16.5368 6.1778C16.376 6.01705 16.2857 5.79904 16.2857 5.57171V1.71456C16.2857 1.48724 16.376 1.26922 16.5368 1.10847C16.6975 0.947728 16.9156 0.857422 17.1429 0.857422H22.2857Z" fill="url(#paint3_linear_1008_6553)"/>
</g>
</g>
<defs>
<linearGradient id="paint0_linear_1008_6553" x1="11.9417" y1="0.857422" x2="11.9417" y2="23.1431" gradientUnits="userSpaceOnUse">
<stop stop-color="#4369F6"/>
<stop offset="1" stop-color="#9A67F3"/>
</linearGradient>
<linearGradient id="paint1_linear_1008_6553" x1="11.9417" y1="0.857422" x2="11.9417" y2="23.1431" gradientUnits="userSpaceOnUse">
<stop stop-color="#4369F6"/>
<stop offset="1" stop-color="#9A67F3"/>
</linearGradient>
<linearGradient id="paint2_linear_1008_6553" x1="11.9417" y1="0.857422" x2="11.9417" y2="23.1431" gradientUnits="userSpaceOnUse">
<stop stop-color="#4369F6"/>
<stop offset="1" stop-color="#9A67F3"/>
</linearGradient>
<linearGradient id="paint3_linear_1008_6553" x1="11.9417" y1="0.857422" x2="11.9417" y2="23.1431" gradientUnits="userSpaceOnUse">
<stop stop-color="#4369F6"/>
<stop offset="1" stop-color="#9A67F3"/>
</linearGradient>
<clipPath id="clip0_1008_6553">
<rect width="24" height="24" fill="white"/>
</clipPath>
</defs>
</svg>
