<svg width="36" height="40" viewBox="0 0 36 40" fill="none" xmlns="http://www.w3.org/2000/svg">
<g id="cloud/icon_04">
<path id="Union" fill-rule="evenodd" clip-rule="evenodd" d="M11.2203 35.2832C12.0843 35.6949 13.0292 35.9085 13.9862 35.9085H27.7332C30.9004 35.9085 33.5955 33.602 34.0846 30.4731L35.6941 20.1789C36.1816 17.0597 33.7699 14.2417 30.6129 14.2417H22.169V8.17921C22.169 5.87109 20.2979 4 17.9898 4C16.477 4 15.0823 4.8175 14.3433 6.13747L9.00156 15.6776C8.67918 16.2534 8.5099 16.9022 8.5099 17.562V31.5569C8.5099 33.044 9.36496 34.3989 10.7075 35.0386L11.2203 35.2832ZM2.56206 16.1488C1.88256 16.1488 1.23089 16.4188 0.75041 16.8992C0.269931 17.3797 0 18.0314 0 18.7109L1.28895e-06 31.8575C1.28895e-06 32.5371 0.269931 33.1887 0.75041 33.6693C1.23089 34.1497 1.88256 34.4197 2.56206 34.4197L3.83896 34.4192C4.54882 34.4189 5.1241 33.8432 5.1241 33.1335V17.434C5.1241 17.0929 4.98856 16.7658 4.74734 16.5247C4.50609 16.2835 4.17892 16.1481 3.83785 16.1483L2.56206 16.1488Z" fill="white"/>
</g>
</svg>
