<svg width="36" height="40" viewBox="0 0 36 40" fill="none" xmlns="http://www.w3.org/2000/svg">
<g id="cloud/icon_02">
<path id="Union" fill-rule="evenodd" clip-rule="evenodd" d="M17.9485 2C14.5521 2 11.2001 2.79771 8.09371 4.33368C7.13892 4.80577 6.74762 5.96248 7.21974 6.91728C7.69182 7.87205 8.84853 8.26334 9.80333 7.79125C12.3934 6.51058 15.1619 5.85715 17.9485 5.85715C20.7352 5.85715 23.5037 6.51058 26.0938 7.79125C27.0486 8.26334 28.2052 7.87205 28.6773 6.91728C29.1494 5.96248 28.7581 4.80577 27.8033 4.33368C24.6969 2.79771 21.345 2 17.9485 2ZM23.3423 9.06774C19.885 7.59996 16.1151 7.59996 12.6578 9.06774C11.6774 9.48397 11.22 10.6162 11.6363 11.5966C12.0525 12.577 13.1847 13.0344 14.1651 12.6182C16.6591 11.5593 19.341 11.5593 21.835 12.6182C22.8154 13.0344 23.9476 12.577 24.3638 11.5966C24.7801 10.6162 24.3227 9.48397 23.3423 9.06774ZM13.6507 16.944C15.5243 15.772 17.7432 15.2778 19.9372 15.5437C22.1312 15.8096 24.1677 16.8197 25.7071 18.4054C27.1178 19.8583 28.0327 21.7141 28.3304 23.7078C29.8183 24.1842 31.1161 25.1339 32.0212 26.4196C33.0351 27.86 33.4856 29.6222 33.2876 31.3726C33.0894 33.1229 32.2565 34.7401 30.9461 35.9176C29.636 37.0948 27.9393 37.751 26.1779 37.7615H26.1702H11.3706C9.21624 37.8942 7.09566 37.1722 5.4697 35.7509C3.83244 34.3197 2.8308 32.2967 2.68512 30.127C2.53943 27.9572 3.26164 25.8184 4.69287 24.1812C5.40153 23.3705 6.26293 22.7073 7.22791 22.2295C8.05149 21.8218 8.93673 21.5559 9.84637 21.4418C10.6135 19.5876 11.9413 18.0132 13.6507 16.944Z" fill="white"/>
</g>
</svg>
