<svg width="24" height="24" viewBox="0 0 24 24" fill="none" xmlns="http://www.w3.org/2000/svg">
<g id="icon/service4" clip-path="url(#clip0_1008_6516)">
<path id="Subtract" fill-rule="evenodd" clip-rule="evenodd" d="M2.49771 0.431641C1.11771 0.431641 0 1.55107 0 2.93107V15.9374C0 17.3156 1.11771 18.4334 2.49771 18.4334H9.39943L8.48229 20.9979H6.85714C6.51615 20.9979 6.18912 21.1334 5.94801 21.3745C5.70689 21.6156 5.57143 21.9426 5.57143 22.2836C5.57143 22.6246 5.70689 22.9517 5.94801 23.1928C6.18912 23.4339 6.51615 23.5694 6.85714 23.5694H17.1429C17.4838 23.5694 17.8109 23.4339 18.052 23.1928C18.2931 22.9517 18.4286 22.6246 18.4286 22.2836C18.4286 21.9426 18.2931 21.6156 18.052 21.3745C17.8109 21.1334 17.4838 20.9979 17.1429 20.9979H15.5177L14.6006 18.4334H21.5023C22.8823 18.4334 24 17.3156 24 15.9374V2.92935C24 1.55107 22.8823 0.431641 21.5023 0.431641H2.49771ZM8.57486 10.9471C8.37278 10.7591 8.10596 10.6563 7.82998 10.6602C7.55401 10.6641 7.29018 10.7743 7.09348 10.9679C6.89678 11.1615 6.78238 11.4236 6.77412 11.6995C6.76586 11.9753 6.86438 12.2438 7.04914 12.4488C8.06571 13.4859 9.78343 14.3602 12 14.3602C14.2149 14.3602 15.9326 13.4859 16.9526 12.4488C17.0558 12.3495 17.1382 12.2305 17.1946 12.0989C17.2511 11.9673 17.2807 11.8256 17.2815 11.6824C17.2823 11.5392 17.2543 11.3972 17.1993 11.2649C17.1443 11.1327 17.0633 11.0128 16.9612 10.9124C16.8591 10.8119 16.7378 10.733 16.6046 10.6803C16.4715 10.6275 16.329 10.602 16.1858 10.6052C16.0426 10.6085 15.9015 10.6404 15.7709 10.6991C15.6402 10.7578 15.5226 10.8421 15.4251 10.9471C14.8097 11.5711 13.6423 12.2174 12 12.2174C10.356 12.2174 9.18857 11.5711 8.57486 10.9471ZM10.3131 6.86193C10.3195 7.03825 10.2903 7.21405 10.2272 7.37882C10.1641 7.5436 10.0685 7.69398 9.94601 7.82097C9.82353 7.94796 9.6767 8.04897 9.51431 8.11796C9.35192 8.18695 9.17729 8.22251 9.00086 8.22251C8.82442 8.22251 8.64979 8.18695 8.4874 8.11796C8.32501 8.04897 8.17819 7.94796 8.0557 7.82097C7.93322 7.69398 7.83758 7.5436 7.7745 7.37882C7.71142 7.21405 7.6822 7.03825 7.68857 6.86193C7.70577 6.52571 7.85144 6.20894 8.09549 5.97705C8.33955 5.74516 8.66335 5.61586 9 5.61586C9.33665 5.61586 9.66045 5.74516 9.90451 5.97705C10.1486 6.20894 10.2942 6.52571 10.3114 6.86193H10.3131ZM15 8.17336C15.1763 8.17973 15.3521 8.1505 15.5169 8.08743C15.6817 8.02435 15.8321 7.92871 15.959 7.80622C16.086 7.68374 16.187 7.53692 16.256 7.37453C16.325 7.21213 16.3606 7.03751 16.3606 6.86107C16.3606 6.68463 16.325 6.51 16.256 6.34761C16.187 6.18522 16.086 6.0384 15.959 5.91591C15.8321 5.79343 15.6817 5.69779 15.5169 5.63471C15.3521 5.57163 15.1763 5.54241 15 5.54878C14.6602 5.56107 14.3384 5.7047 14.1023 5.94946C13.8662 6.19422 13.7343 6.52102 13.7343 6.86107C13.7343 7.20112 13.8662 7.52792 14.1023 7.77268C14.3384 8.01743 14.6602 8.16107 15 8.17336Z" fill="url(#paint0_linear_1008_6516)"/>
</g>
<defs>
<linearGradient id="paint0_linear_1008_6516" x1="12" y1="0.431641" x2="12" y2="23.5694" gradientUnits="userSpaceOnUse">
<stop stop-color="#4369F6"/>
<stop offset="1" stop-color="#9A67F3"/>
</linearGradient>
<clipPath id="clip0_1008_6516">
<rect width="24" height="24" fill="white"/>
</clipPath>
</defs>
</svg>
