<svg width="24" height="24" viewBox="0 0 24 24" fill="none" xmlns="http://www.w3.org/2000/svg">
<g id="icon/service1" clip-path="url(#clip0_1008_10541)">
<path id="Union" fill-rule="evenodd" clip-rule="evenodd" d="M13.2857 1.45954C13.2857 1.11855 13.1503 0.791523 12.9091 0.550405C12.668 0.309287 12.341 0.173828 12 0.173828C11.659 0.173828 11.332 0.309287 11.0909 0.550405C10.8497 0.791523 10.7143 1.11855 10.7143 1.45954V22.5435C10.7143 22.8845 10.8497 23.2116 11.0909 23.4527C11.332 23.6938 11.659 23.8293 12 23.8293C12.341 23.8293 12.668 23.6938 12.9091 23.4527C13.1503 23.2116 13.2857 22.8845 13.2857 22.5435V1.45954ZM6.85714 4.22811C7.19814 4.22811 7.52516 4.36357 7.76628 4.60469C8.0074 4.84581 8.14286 5.17284 8.14286 5.51383V18.4875C8.14286 18.8285 8.0074 19.1556 7.76628 19.3967C7.52516 19.6378 7.19814 19.7733 6.85714 19.7733C6.51615 19.7733 6.18912 19.6378 5.94801 19.3967C5.70689 19.1556 5.57143 18.8285 5.57143 18.4875V5.51383C5.57143 5.17284 5.70689 4.84581 5.94801 4.60469C6.18912 4.36357 6.51615 4.22811 6.85714 4.22811ZM1.71429 8.2824C1.88313 8.2824 2.05032 8.31566 2.20631 8.38027C2.3623 8.44488 2.50403 8.53959 2.62342 8.65898C2.74281 8.77837 2.83752 8.9201 2.90213 9.07609C2.96674 9.23208 3 9.39927 3 9.56811V14.435C3 14.776 2.86454 15.103 2.62342 15.3441C2.38231 15.5852 2.05528 15.7207 1.71429 15.7207C1.37329 15.7207 1.04627 15.5852 0.805149 15.3441C0.56403 15.103 0.428572 14.776 0.428572 14.435V9.56811C0.428572 9.22712 0.56403 8.90009 0.805149 8.65898C1.04627 8.41786 1.37329 8.2824 1.71429 8.2824ZM17.1429 4.22811C17.4838 4.22811 17.8109 4.36357 18.052 4.60469C18.2931 4.84581 18.4286 5.17284 18.4286 5.51383V18.4875C18.4286 18.8285 18.2931 19.1556 18.052 19.3967C17.8109 19.6378 17.4838 19.7733 17.1429 19.7733C16.8019 19.7733 16.4748 19.6378 16.2337 19.3967C15.9926 19.1556 15.8571 18.8285 15.8571 18.4875V5.51383C15.8571 5.17284 15.9926 4.84581 16.2337 4.60469C16.4748 4.36357 16.8019 4.22811 17.1429 4.22811ZM23.5714 9.56811C23.5714 9.22712 23.436 8.90009 23.1949 8.65898C22.9537 8.41786 22.6267 8.2824 22.2857 8.2824C21.9447 8.2824 21.6177 8.41786 21.3766 8.65898C21.1355 8.90009 21 9.22712 21 9.56811V14.435C21 14.776 21.1355 15.103 21.3766 15.3441C21.6177 15.5852 21.9447 15.7207 22.2857 15.7207C22.6267 15.7207 22.9537 15.5852 23.1949 15.3441C23.436 15.103 23.5714 14.776 23.5714 14.435V9.56811Z" fill="url(#paint0_linear_1008_10541)"/>
</g>
<defs>
<linearGradient id="paint0_linear_1008_10541" x1="12" y1="0.173828" x2="12" y2="23.8293" gradientUnits="userSpaceOnUse">
<stop stop-color="#4369F6"/>
<stop offset="1" stop-color="#9A67F3"/>
</linearGradient>
<clipPath id="clip0_1008_10541">
<rect width="24" height="24" fill="white"/>
</clipPath>
</defs>
</svg>
