<svg width="24" height="24" viewBox="0 0 24 24" fill="none" xmlns="http://www.w3.org/2000/svg">
<g id="icon/service7" clip-path="url(#clip0_1008_7166)">
<path id="Union" fill-rule="evenodd" clip-rule="evenodd" d="M2.57143 3.42773C1.88944 3.42773 1.23539 3.69865 0.753154 4.18089C0.270918 4.66312 0 5.31718 0 5.99916L0 17.9992C0 18.6811 0.270918 19.3352 0.753154 19.8174C1.23539 20.2997 1.88944 20.5706 2.57143 20.5706H15.4286C16.1106 20.5706 16.7646 20.2997 17.2468 19.8174C17.7291 19.3352 18 18.6811 18 17.9992V16.7272L21.6103 18.2752C21.8713 18.387 22.156 18.4323 22.4388 18.407C22.7217 18.3816 22.9938 18.2864 23.2307 18.1299C23.4676 17.9733 23.662 17.7604 23.7962 17.5102C23.9305 17.2599 24.0005 16.9803 24 16.6963V7.30031C24 7.01662 23.9295 6.73739 23.795 6.48762C23.6605 6.23786 23.4661 6.02539 23.2293 5.86925C22.9924 5.7131 22.7205 5.61818 22.438 5.59298C22.1554 5.56779 21.871 5.61311 21.6103 5.72488L18 7.27288V5.99916C18 5.66148 17.9335 5.3271 17.8043 5.01512C17.675 4.70314 17.4856 4.41967 17.2468 4.18089C17.0081 3.94211 16.7246 3.7527 16.4126 3.62347C16.1006 3.49425 15.7663 3.42773 15.4286 3.42773H2.57143Z" fill="url(#paint0_linear_1008_7166)"/>
</g>
<defs>
<linearGradient id="paint0_linear_1008_7166" x1="12" y1="3.42773" x2="12" y2="20.5706" gradientUnits="userSpaceOnUse">
<stop stop-color="#4369F6"/>
<stop offset="1" stop-color="#9A67F3"/>
</linearGradient>
<clipPath id="clip0_1008_7166">
<rect width="24" height="24" fill="white"/>
</clipPath>
</defs>
</svg>
