<svg width="24" height="24" viewBox="0 0 24 24" fill="none" xmlns="http://www.w3.org/2000/svg">
<g id="icon/service2" clip-path="url(#clip0_1008_7301)">
<path id="Vector" fill-rule="evenodd" clip-rule="evenodd" d="M23.6738 5.92579C23.8891 5.40582 24 4.84852 24 4.28571C24 3.14907 23.5485 2.05898 22.7447 1.25526C21.941 0.451529 20.8509 0 19.7143 0C18.5776 0 17.4876 0.451529 16.6838 1.25526C15.8801 2.05898 15.4286 3.14907 15.4286 4.28571C15.4286 4.84852 15.5394 5.40582 15.7548 5.92579C15.9702 6.44575 16.2859 6.91821 16.6838 7.31617C17.0818 7.71414 17.5542 8.02982 18.0742 8.2452C18.5942 8.46058 19.1515 8.57143 19.7143 8.57143C20.2771 8.57143 20.8344 8.46058 21.3544 8.2452C21.8743 8.02982 22.3468 7.71414 22.7447 7.31617C23.1427 6.91821 23.4584 6.44575 23.6738 5.92579ZM13.2857 4.28571H3.42857C2.51926 4.28571 1.64719 4.64694 1.00421 5.28992C0.361223 5.9329 0 6.80497 0 7.71429V20.5714C0 21.4807 0.361223 22.3528 1.00421 22.9958C1.64719 23.6388 2.51926 24 3.42857 24H16.2857C17.195 24 18.0671 23.6388 18.7101 22.9958C19.3531 22.3528 19.7143 21.4807 19.7143 20.5714V10.7143C18.0093 10.7143 16.3742 10.037 15.1686 8.8314C13.963 7.62581 13.2857 5.99068 13.2857 4.28571ZM4.83953 16.328V12.56H3.92753V17.108H6.94553V16.328H4.83953ZM7.72623 13.886H8.63824V17.108H7.72623V13.886ZM11.4152 17.108L12.8372 13.838H11.8352L11.0312 15.962L10.2572 13.838H9.2672L10.6472 17.108H11.4152ZM13.0069 15.488C13.0069 14.522 13.6609 13.844 14.5969 13.844C15.6246 13.844 15.9623 14.6894 15.9769 14.726C16.1486 15.0642 16.1308 15.5106 16.123 15.7054C16.1218 15.7353 16.1209 15.7593 16.1209 15.776H13.8349C13.9009 16.148 14.2729 16.388 14.6029 16.388C15.0829 16.388 15.2389 16.118 15.2389 16.118L15.9829 16.394C15.9829 16.394 15.6769 17.12 14.5969 17.12C13.6609 17.12 13.0069 16.448 13.0069 15.488ZM14.5969 14.57C15.0109 14.57 15.2569 14.888 15.3169 15.152H13.8349C13.9009 14.858 14.1949 14.57 14.5969 14.57ZM8.18223 12.434C7.90623 12.434 7.70823 12.632 7.70823 12.908C7.70823 13.184 7.90623 13.382 8.18223 13.382C8.45823 13.382 8.65623 13.184 8.65623 12.908C8.65623 12.632 8.45823 12.434 8.18223 12.434Z" fill="url(#paint0_linear_1008_7301)"/>
</g>
<defs>
<linearGradient id="paint0_linear_1008_7301" x1="12" y1="0" x2="12" y2="24" gradientUnits="userSpaceOnUse">
<stop stop-color="#4369F6"/>
<stop offset="1" stop-color="#9A67F3"/>
</linearGradient>
<clipPath id="clip0_1008_7301">
<rect width="24" height="24" fill="white"/>
</clipPath>
</defs>
</svg>
