<svg width="36" height="40" viewBox="0 0 36 40" fill="none" xmlns="http://www.w3.org/2000/svg">
<g id="cloud/icon_01">
<path id="Subtract" fill-rule="evenodd" clip-rule="evenodd" d="M15.0227 2.17622C15.0227 0.974323 14.1459 0 13.0641 0C11.9824 0 11.1055 0.974323 11.1055 2.17622V6.94271H10.1656C8.00221 6.94271 6.24844 8.89135 6.24844 11.2951V12.3395H1.95859C0.876891 12.3395 0 13.3138 0 14.5157C0 15.7176 0.876891 16.6919 1.95859 16.6919H6.24844V23.3081H1.95859C0.876891 23.3081 0 24.2824 0 25.4843C0 26.6862 0.876891 27.6605 1.95859 27.6605H6.24844V28.7049C6.24844 31.1086 8.00221 33.0573 10.1656 33.0573H11.1055V37.8238C11.1055 39.0256 11.9824 40 13.0641 40C14.1459 40 15.0227 39.0256 15.0227 37.8238V33.0573H20.9773V37.8238C20.9773 39.0256 21.8541 40 22.9359 40C24.0176 40 24.8945 39.0256 24.8945 37.8238V33.0573H25.8344C27.9977 33.0573 29.7516 31.1086 29.7516 28.7049V27.6605H34.0414C35.1231 27.6605 36 26.6862 36 25.4843C36 24.2824 35.1231 23.3081 34.0414 23.3081H29.7516V16.6919H34.0414C35.1231 16.6919 36 15.7176 36 14.5157C36 13.3138 35.1231 12.3395 34.0414 12.3395H29.7516V11.2951C29.7516 8.89135 27.9977 6.94271 25.8344 6.94271H24.8945V2.17622C24.8945 0.974323 24.0176 0 22.9359 0C21.8541 0 20.9773 0.974323 20.9773 2.17622V6.94271H15.0227V2.17622ZM19.0679 23.9897C18.1665 23.9897 17.4358 24.8017 17.4358 25.8032C17.4358 26.8048 18.1665 27.6168 19.0679 27.6168H24.2908C25.1922 27.6168 25.9229 26.8048 25.9229 25.8032C25.9229 24.8017 25.1922 23.9897 24.2908 23.9897H19.0679Z" fill="white"/>
</g>
</svg>
