<svg width="37" height="40" viewBox="0 0 37 40" fill="none" xmlns="http://www.w3.org/2000/svg">
<g id="cloud/icon_03">
<path id="Union" fill-rule="evenodd" clip-rule="evenodd" d="M20.4376 3.0801C17.862 2.77667 15.257 3.34084 13.0573 4.6785C11.0101 5.92333 9.42924 7.76833 8.53765 9.94041C7.42415 10.0597 6.34 10.368 5.33415 10.8522C4.20584 11.3953 3.1984 12.1495 2.36948 13.0711C0.695793 14.9328 -0.148987 17.3644 0.0216085 19.8314C0.19194 22.2984 1.36337 24.5986 3.27801 26.226C4.0974 26.9224 5.0239 27.4709 6.01495 27.8579C6.07287 27.7722 6.13397 27.6879 6.19824 27.6048C7.91927 25.3736 11.1746 24.9216 13.4693 26.5948L14.8402 27.5943L22.0525 19.7057C23.9582 17.6213 27.241 17.4336 29.385 19.2863C31.529 21.139 31.722 24.3306 29.8161 26.415L27.8991 28.5115H27.9414H27.9493C30.0021 28.4997 31.9791 27.7563 33.506 26.4222C35.0332 25.0884 36.0039 23.2563 36.2348 21.2732C36.4654 19.2899 35.9404 17.2934 34.7586 15.6613C33.6748 14.1642 32.1071 13.0691 30.3131 12.545C29.9875 10.214 28.9028 8.04039 27.2114 6.34659C25.4042 4.53656 23.0134 3.38379 20.4376 3.0801ZM27.3902 24.3183C28.1046 23.5366 28.0324 22.3398 27.2284 21.645C26.4246 20.9502 25.1934 21.0207 24.4787 21.8022L15.2819 31.8613L11.5219 29.1197C10.6612 28.4922 9.44035 28.6617 8.795 29.4982C8.14964 30.3349 8.32394 31.5219 9.18459 32.1493L14.3784 35.9363C15.1888 36.5274 16.3298 36.4156 17.0026 35.6796L27.3902 24.3183Z" fill="white"/>
</g>
</svg>
