<svg width="36" height="40" viewBox="0 0 36 40" fill="none" xmlns="http://www.w3.org/2000/svg">
<g id="cloud/icon_05">
<path id="Union" fill-rule="evenodd" clip-rule="evenodd" d="M13.7663 2.37658C13.5252 2.13546 13.1981 2 12.8571 2C12.5161 2 12.1891 2.13546 11.948 2.37658C8.80845 5.51612 7.04466 9.77428 7.04466 14.2143C7.04466 18.6543 8.80845 22.9125 11.948 26.052C15.0876 29.1916 19.3457 30.9553 23.7857 30.9553C28.2258 30.9553 32.4838 29.1916 35.6235 26.052C36.1255 25.5499 36.1255 24.7358 35.6235 24.2337L26.5132 15.1234L30.104 11.5326C31.1081 10.5283 31.1081 8.90022 30.104 7.896C29.0998 6.89181 27.4716 6.89181 26.4675 7.896L22.8766 11.4869L13.7663 2.37658ZM7.10537 25.168C7.84661 26.2967 8.70588 27.3555 9.67515 28.3247C11.9853 30.6349 14.8036 32.3202 17.8672 33.2717L18.7892 36.3448C19.0366 37.1697 18.4189 38 17.5577 38H1.00208C0.448647 38 0 37.5513 0 36.9979C0 36.8125 0.0514589 36.6307 0.14865 36.4726L7.10537 25.168Z" fill="white"/>
</g>
</svg>
