<svg width="24" height="24" viewBox="0 0 24 24" fill="none" xmlns="http://www.w3.org/2000/svg">
<g id="icon/service5">
<path id="Subtract" fill-rule="evenodd" clip-rule="evenodd" d="M9.14229 3.17761C9.14237 2.66909 9.27813 2.16981 9.53557 1.73128C9.79302 1.29274 10.1628 0.930847 10.6068 0.682933C11.0508 0.435019 11.5529 0.310067 12.0613 0.32097C12.5697 0.331873 13.066 0.478236 13.4989 0.744957C13.9319 1.01168 14.2858 1.38909 14.5242 1.83826C14.7626 2.28743 14.8768 2.79207 14.8551 3.30012C14.8334 3.80817 14.6765 4.30122 14.4006 4.7284C14.1247 5.15557 13.7399 5.50139 13.2857 5.73018V8.25018H18C19.1367 8.25018 20.2267 8.70171 21.0305 9.50543C21.8342 10.3092 22.2857 11.3992 22.2857 12.5359V19.393C22.2857 20.5297 21.8342 21.6198 21.0305 22.4235C20.2267 23.2272 19.1367 23.6787 18 23.6787H6.00001C4.86337 23.6787 3.77328 23.2272 2.96955 22.4235C2.16582 21.6198 1.71429 20.5297 1.71429 19.393V12.5359C1.71429 11.3992 2.16582 10.3092 2.96955 9.50543C3.77328 8.70171 4.86337 8.25018 6.00001 8.25018H10.7143V5.73018C10.2416 5.49203 9.84428 5.12727 9.56672 4.67657C9.28915 4.22586 9.14222 3.70692 9.14229 3.17761ZM15.78 19.1633C15.8766 19.0609 15.952 18.9404 16.0021 18.8088C16.0521 18.6773 16.0757 18.5371 16.0716 18.3964C16.0674 18.2557 16.0356 18.1171 15.9779 17.9887C15.9203 17.8603 15.8379 17.7445 15.7354 17.6479C15.633 17.5513 15.5126 17.4759 15.381 17.4258C15.2494 17.3758 15.1092 17.3522 14.9685 17.3563C14.8278 17.3605 14.6892 17.3923 14.5608 17.4499C14.4324 17.5076 14.3166 17.59 14.22 17.6925C13.8343 18.1039 13.008 18.4176 12 18.4176C10.992 18.4176 10.1657 18.1022 9.78001 17.6925C9.68343 17.59 9.56762 17.5076 9.4392 17.4499C9.31077 17.3923 9.17225 17.3605 9.03153 17.3563C8.89081 17.3522 8.75065 17.3758 8.61905 17.4258C8.48746 17.4759 8.36701 17.5513 8.26458 17.6479C8.16215 17.7445 8.07974 17.8603 8.02207 17.9887C7.96439 18.1171 7.93258 18.2557 7.92844 18.3964C7.9243 18.5371 7.94792 18.6773 7.99795 18.8088C8.04797 18.9404 8.12343 19.0609 8.22001 19.1633C9.16629 20.1662 10.6749 20.5605 12 20.5605C13.3252 20.5605 14.8337 20.1662 15.78 19.1633ZM8.64344 15.4999C8.98443 15.4999 9.31146 15.3644 9.55257 15.1233C9.79369 14.8822 9.92915 14.5552 9.92915 14.2142C9.92915 13.8732 9.79369 13.5462 9.55257 13.305C9.31146 13.0639 8.98443 12.9285 8.64344 12.9285C8.30244 12.9285 7.97542 13.0639 7.7343 13.305C7.49318 13.5462 7.35772 13.8732 7.35772 14.2142C7.35772 14.5552 7.49318 14.8822 7.7343 15.1233C7.97542 15.3644 8.30244 15.4999 8.64344 15.4999ZM16.6423 14.2142C16.6423 14.5552 16.5068 14.8822 16.2657 15.1233C16.0246 15.3644 15.6976 15.4999 15.3566 15.4999C15.0156 15.4999 14.6886 15.3644 14.4474 15.1233C14.2063 14.8822 14.0709 14.5552 14.0709 14.2142C14.0709 13.8732 14.2063 13.5462 14.4474 13.305C14.6886 13.0639 15.0156 12.9285 15.3566 12.9285C15.6976 12.9285 16.0246 13.0639 16.2657 13.305C16.5068 13.5462 16.6423 13.8732 16.6423 14.2142Z" fill="url(#paint0_linear_1008_6561)"/>
</g>
<defs>
<linearGradient id="paint0_linear_1008_6561" x1="12" y1="0.320312" x2="12" y2="23.6787" gradientUnits="userSpaceOnUse">
<stop stop-color="#4369F6"/>
<stop offset="1" stop-color="#9A67F3"/>
</linearGradient>
</defs>
</svg>
