<svg width="175" height="175" viewBox="0 0 175 175" fill="none" xmlns="http://www.w3.org/2000/svg">
<mask id="mask0_893_11809" style="mask-type:luminance" maskUnits="userSpaceOnUse" x="0" y="0" width="176" height="176">
<path d="M0 0H175.002V175.002H0V0Z" fill="white"/>
</mask>
<g mask="url(#mask0_893_11809)">
<path d="M87.501 0C39.224 0 0 39.224 0 87.501C0 135.778 39.224 175.002 87.501 175.002C135.778 175.002 175.002 135.778 175.002 87.501C175.002 39.224 135.778 0 87.501 0ZM68.4218 10.2551C63.5518 14.7728 59.3159 20.8933 55.8065 28.0882C53.2967 33.2312 51.1259 39.0258 49.3426 45.2432C38.9642 43.636 31.624 41.2627 25.1689 38.0307C35.9436 24.4643 51.0554 14.5218 68.4218 10.2551ZM106.58 10.2551C123.942 14.5218 139.058 24.4643 149.833 38.0307C143.378 41.2627 136.038 43.636 125.659 45.2432C123.876 39.0258 121.701 33.2312 119.195 28.0882C115.686 20.8933 111.446 14.7728 106.58 10.2551ZM83.5248 10.5017V47.6033C73.2389 47.414 64.5293 47.0441 57.2992 46.2999C58.8976 40.9016 60.8218 35.9392 62.953 31.5711C68.7652 19.656 76.079 12.4303 83.5248 10.5017ZM91.4771 10.5017C98.9185 12.4303 106.237 19.656 112.049 31.5711C114.18 35.9392 116.104 40.9016 117.703 46.2999C110.473 47.0441 101.763 47.414 91.4771 47.6033V10.5017ZM20.5058 44.6223C27.8152 48.4003 36.0889 51.1259 47.4184 52.9488C45.318 62.3893 44.0587 72.6709 43.8121 83.5248H8.01828C8.71839 69.2188 13.2405 55.9562 20.5058 44.6223ZM154.492 44.6223C161.761 55.9562 166.284 69.2188 166.984 83.5248H131.19C130.943 72.6709 129.679 62.3893 127.584 52.9488C138.909 51.1259 147.187 48.4003 154.492 44.6223ZM55.309 54.0056C63.1687 54.8774 72.5036 55.419 83.5248 55.6216V83.5248H51.7688C52.0241 72.9791 53.257 63.0234 55.309 54.0056ZM119.693 54.0056C121.74 63.0234 122.978 72.9791 123.233 83.5248H91.4771V55.6216C102.498 55.419 111.833 54.8774 119.693 54.0056ZM8.01828 91.4771H43.8121C44.0587 102.318 45.3224 112.635 47.4184 122.053C36.0889 123.858 27.8152 126.602 20.5058 130.38C13.2405 119.046 8.71839 105.779 8.01828 91.4771ZM51.7688 91.4771H83.5248V119.38C72.53 119.583 63.2172 120.138 55.3706 120.996C53.3187 111.987 52.0241 102.023 51.7688 91.4771ZM91.4771 91.4771H123.233C122.978 102.023 121.683 111.987 119.631 120.996C111.785 120.138 102.468 119.583 91.4771 119.38V91.4771ZM131.19 91.4771H166.984C166.284 105.779 161.761 119.046 154.492 130.38C147.187 126.602 138.913 123.858 127.584 122.053C129.675 112.635 130.943 102.318 131.19 91.4771ZM83.5248 127.399V164.562C76.079 162.62 68.7652 155.28 62.953 143.369C60.8306 139.019 58.9548 134.122 57.3609 128.764C64.5778 128.033 73.2653 127.584 83.5248 127.399ZM91.4771 127.399C101.732 127.584 110.424 128.033 117.641 128.764C116.047 134.122 114.171 139.019 112.049 143.369C106.237 155.28 98.9185 162.62 91.4771 164.562V127.399ZM49.3426 129.759C51.1259 135.976 53.2967 141.705 55.8065 146.848C59.3159 154.047 63.5518 160.216 68.4218 164.747C51.0554 160.48 35.9436 150.538 25.1689 136.967C31.624 133.744 38.9642 131.348 49.3426 129.759ZM125.659 129.759C136.038 131.348 143.378 133.744 149.833 136.967C139.058 150.538 123.942 160.476 106.58 164.747C111.446 160.216 115.686 154.047 119.195 146.848C121.705 141.705 123.876 135.976 125.659 129.759Z" fill="#74DADB"/>
</g>
<rect x="42" y="71" width="93" height="34" rx="17" fill="#6185F7"/>
<path d="M58.208 94.264C61.592 94.264 63.704 91.984 63.704 88.336C63.704 84.688 61.592 82.408 58.208 82.408L55.328 82.432V94.24L58.208 94.264ZM51.68 97.432V79.24H58.28C63.608 79.24 67.352 82.984 67.352 88.336C67.352 93.688 63.608 97.432 58.28 97.432H51.68ZM79.1836 94.12L72.6556 85.072V97.432H69.0076V79.24H73.1356L79.1836 88.216L85.2316 79.24H89.3596V97.432H85.7116V85.072L79.1836 94.12ZM105.135 79.24V82.36H95.415V86.512H103.863V89.632H95.415V94.312H105.135V97.432H91.767V79.24H105.135ZM124.925 79.24L117.965 88.312L124.925 97.432H120.317L115.685 91.144L110.981 97.432H106.373L113.357 88.312L106.373 79.24H110.981L115.685 85.504L120.317 79.264L124.925 79.24Z" fill="white"/>
</svg>
