<svg width="88" height="22" viewBox="0 0 88 22" fill="none" xmlns="http://www.w3.org/2000/svg">
<path d="M6.064 17.4H8.208C11.216 17.4 12.688 15.896 12.688 11.384V10.296C12.688 5.72 10.992 4.408 8.048 4.408H6.064V17.4ZM0.0480001 21.656V0.151999H8.304C15.024 0.151999 19.024 3 19.024 10.392V11.128C19.024 18.392 15.024 21.656 8.336 21.656H0.0480001ZM21.9468 21.656V0.151999H30.0108L33.9148 13.112H34.0428L37.9468 0.151999H45.9148V21.656H39.9948V7.16H39.8668L35.5468 21.656H31.3548L27.0668 7.128H26.9068V21.656H21.9468ZM49.658 21.656V0.151999H64.506V4.472H55.61V8.568H62.554V12.792H55.61V17.336H64.794V21.656H49.658ZM66.712 21.656L73.08 10.584L67.192 0.151999H73.816L77.528 6.968H77.656L81.112 0.151999H87.032L81.208 10.424L87.48 21.656H80.856L76.824 14.328H76.696L72.632 21.656H66.712Z" fill="black"/>
</svg>
