<svg width="24" height="24" viewBox="0 0 24 24" fill="none" xmlns="http://www.w3.org/2000/svg">
<path fill-rule="evenodd" clip-rule="evenodd" d="M23.7518 0.250883C23.8693 0.368287 23.9502 0.517312 23.9846 0.679833C24.019 0.842353 24.0054 1.01136 23.9455 1.16631L15.3741 23.452C15.3134 23.6097 15.2075 23.746 15.0696 23.8436C14.9317 23.9413 14.7681 23.9961 14.5992 24.001C14.4303 24.006 14.2637 23.9609 14.1203 23.8714C13.977 23.782 13.8633 23.6522 13.7935 23.4983L10.2089 15.6126L15.4821 10.3377C15.7092 10.094 15.8328 9.77165 15.8269 9.43856C15.821 9.10547 15.6861 8.78767 15.4505 8.5521C15.215 8.31654 14.8972 8.1816 14.5641 8.17573C14.231 8.16985 13.9086 8.29349 13.6649 8.5206L8.39005 13.7937L0.50434 10.2109C0.349998 10.1412 0.219763 10.0273 0.130074 9.88366C0.0403839 9.74 -0.00474086 9.573 0.000394259 9.40372C0.00552938 9.23445 0.0606943 9.07049 0.158927 8.93254C0.257159 8.79458 0.394056 8.68882 0.55234 8.6286L22.8381 0.057169C22.9928 -0.00236037 23.1614 -0.0157448 23.3236 0.0186374C23.4858 0.0530195 23.6345 0.133693 23.7518 0.250883Z" fill="white"/>
</svg>
