<svg width="88" height="23" viewBox="0 0 88 23" fill="none" xmlns="http://www.w3.org/2000/svg">
<path d="M6.064 17.9H8.208C11.216 17.9 12.688 16.396 12.688 11.884V10.796C12.688 6.22 10.992 4.908 8.048 4.908H6.064V17.9ZM0.0480001 22.156V0.651999H8.304C15.024 0.651999 19.024 3.5 19.024 10.892V11.628C19.024 18.892 15.024 22.156 8.336 22.156H0.0480001ZM21.9468 22.156V0.651999H30.0108L33.9148 13.612H34.0428L37.9468 0.651999H45.9148V22.156H39.9948V7.66H39.8668L35.5468 22.156H31.3548L27.0668 7.628H26.9068V22.156H21.9468ZM49.658 22.156V0.651999H64.506V4.972H55.61V9.068H62.554V13.292H55.61V17.836H64.794V22.156H49.658ZM66.712 22.156L73.08 11.084L67.192 0.651999H73.816L77.528 7.468H77.656L81.112 0.651999H87.032L81.208 10.924L87.48 22.156H80.856L76.824 14.828H76.696L72.632 22.156H66.712Z" fill="white"/>
</svg>
