<svg width="21" height="40" viewBox="0 0 21 40" fill="none" xmlns="http://www.w3.org/2000/svg">
<path d="M4.4 20.1008L20.15 35.8508C20.5167 36.2175 20.7 36.6758 20.7 37.2258C20.7 37.7758 20.5167 38.2508 20.15 38.6508C19.75 39.0508 19.275 39.2508 18.725 39.2508C18.175 39.2508 17.7 39.0508 17.3 38.6508L0.85 22.2008C0.55 21.9008 0.333333 21.5675 0.2 21.2008C0.0666667 20.8341 0 20.4675 0 20.1008C0 19.7341 0.0666667 19.3675 0.2 19.0008C0.333333 18.6341 0.55 18.3008 0.85 18.0008L17.35 1.5008C17.75 1.1008 18.2167 0.909138 18.75 0.925805C19.2833 0.942471 19.75 1.1508 20.15 1.5508C20.5167 1.9508 20.7083 2.41747 20.725 2.9508C20.7417 3.48414 20.55 3.9508 20.15 4.3508L4.4 20.1008Z" fill="black"/>
</svg>
