<svg width="24" height="24" viewBox="0 0 24 24" fill="none" xmlns="http://www.w3.org/2000/svg">
<path d="M6.36173 11.9994L11.7436 17.3813C11.916 17.5536 12.0006 17.7567 11.9975 17.9906C11.9944 18.2244 11.9067 18.4275 11.7344 18.5999C11.5621 18.7722 11.359 18.8583 11.1251 18.8583C10.8913 18.8583 10.6882 18.7722 10.5159 18.5999L4.8847 12.9779C4.74315 12.8364 4.64007 12.6825 4.57545 12.5163C4.51083 12.3502 4.47852 12.1779 4.47852 11.9994C4.47852 11.8209 4.51083 11.6486 4.57545 11.4824C4.64007 11.3163 4.74315 11.1624 4.8847 11.0209L10.5159 5.38969C10.6882 5.21737 10.8928 5.13275 11.1298 5.13582C11.3667 5.1389 11.5713 5.2266 11.7436 5.39892C11.916 5.57124 12.0021 5.77433 12.0021 6.00819C12.0021 6.24206 11.916 6.44515 11.7436 6.61747L6.36173 11.9994Z" fill="#29344B"/>
<path d="M13.8248 11.9994L19.2067 17.3813C19.379 17.5536 19.4637 17.7567 19.4606 17.9906C19.4575 18.2244 19.3698 18.4275 19.1975 18.5999C19.0252 18.7722 18.8221 18.8583 18.5882 18.8583C18.3544 18.8583 18.1513 18.7722 17.9789 18.5999L12.3478 12.9779C12.2062 12.8364 12.1031 12.6825 12.0385 12.5163C11.9739 12.3502 11.9416 12.1779 11.9416 11.9994C11.9416 11.8209 11.9739 11.6486 12.0385 11.4824C12.1031 11.3163 12.2062 11.1624 12.3478 11.0209L17.9789 5.38969C18.1513 5.21737 18.3559 5.13275 18.5928 5.13582C18.8298 5.1389 19.0344 5.2266 19.2067 5.39892C19.379 5.57124 19.4652 5.77433 19.4652 6.00819C19.4652 6.24206 19.379 6.44515 19.2067 6.61747L13.8248 11.9994Z" fill="#29344B"/>
</svg>
