<svg width="24" height="24" viewBox="0 0 24 24" fill="none" xmlns="http://www.w3.org/2000/svg">
<path d="M17.6383 11.9994L12.2564 17.3813C12.084 17.5536 11.9994 17.7567 12.0025 17.9906C12.0056 18.2244 12.0933 18.4275 12.2656 18.5999C12.4379 18.7722 12.641 18.8583 12.8749 18.8583C13.1087 18.8583 13.3118 18.7722 13.4841 18.5999L19.1153 12.9779C19.2569 12.8364 19.3599 12.6825 19.4246 12.5163C19.4892 12.3502 19.5215 12.1779 19.5215 11.9994C19.5215 11.8209 19.4892 11.6486 19.4246 11.4824C19.3599 11.3163 19.2569 11.1624 19.1153 11.0209L13.4841 5.38969C13.3118 5.21737 13.1072 5.13275 12.8702 5.13582C12.6333 5.1389 12.4287 5.2266 12.2564 5.39892C12.084 5.57124 11.9979 5.77433 11.9979 6.00819C11.9979 6.24206 12.084 6.44515 12.2564 6.61747L17.6383 11.9994Z" fill="#29344B"/>
<path d="M10.1752 11.9994L4.79327 17.3813C4.62095 17.5536 4.53633 17.7567 4.53941 17.9906C4.54249 18.2244 4.63018 18.4275 4.8025 18.5999C4.97482 18.7722 5.17791 18.8583 5.41178 18.8583C5.64564 18.8583 5.84873 18.7722 6.02105 18.5999L11.6522 12.9779C11.7938 12.8364 11.8969 12.6825 11.9615 12.5163C12.0261 12.3502 12.0584 12.1779 12.0584 11.9994C12.0584 11.8209 12.0261 11.6486 11.9615 11.4824C11.8969 11.3163 11.7938 11.1624 11.6522 11.0209L6.02105 5.38969C5.84873 5.21737 5.6441 5.13275 5.40716 5.13582C5.17022 5.1389 4.96559 5.2266 4.79327 5.39892C4.62095 5.57124 4.53479 5.77433 4.53479 6.00819C4.53479 6.24206 4.62095 6.44515 4.79327 6.61747L10.1752 11.9994Z" fill="#29344B"/>
</svg>
