<svg width="21" height="40" viewBox="0 0 21 40" fill="none" xmlns="http://www.w3.org/2000/svg">
<path d="M16.6 20.1008L0.85 35.8508C0.483334 36.2175 0.299999 36.6758 0.299999 37.2258C0.299999 37.7758 0.483334 38.2508 0.85 38.6508C1.25 39.0508 1.725 39.2508 2.275 39.2508C2.825 39.2508 3.3 39.0508 3.7 38.6508L20.15 22.2008C20.45 21.9008 20.6667 21.5675 20.8 21.2008C20.9333 20.8341 21 20.4675 21 20.1008C21 19.7341 20.9333 19.3675 20.8 19.0008C20.6667 18.6341 20.45 18.3008 20.15 18.0008L3.65 1.5008C3.25 1.1008 2.78333 0.909138 2.25 0.925805C1.71667 0.942471 1.25 1.1508 0.85 1.5508C0.483334 1.9508 0.291666 2.41747 0.275 2.9508C0.258333 3.48414 0.449999 3.9508 0.85 4.3508L16.6 20.1008Z" fill="black"/>
</svg>
