<svg width="24" height="24" viewBox="0 0 24 24" fill="none" xmlns="http://www.w3.org/2000/svg">
<rect x="0.5" y="0.5" width="23" height="23" rx="11.5" stroke="#7B7B7B"/>
<path d="M9.65092 11.9985L13.7913 16.1389C13.9239 16.2715 13.989 16.4277 13.9866 16.6076C13.9842 16.7875 13.9168 16.9438 13.7842 17.0764C13.6516 17.2089 13.4954 17.2752 13.3155 17.2752C13.1356 17.2752 12.9793 17.2089 12.8468 17.0764L8.51463 12.7513C8.40573 12.6424 8.32643 12.5241 8.27672 12.3962C8.227 12.2684 8.20215 12.1358 8.20215 11.9985C8.20215 11.8612 8.227 11.7287 8.27672 11.6008C8.32643 11.473 8.40573 11.3546 8.51463 11.2457L12.8468 6.91362C12.9793 6.78106 13.1367 6.71596 13.319 6.71832C13.5013 6.72069 13.6587 6.78816 13.7913 6.92073C13.9239 7.05329 13.9901 7.20953 13.9901 7.38945C13.9901 7.56936 13.9239 7.7256 13.7913 7.85817L9.65092 11.9985Z" fill="#29344B"/>
</svg>
