<svg width="24" height="24" viewBox="0 0 24 24" fill="none" xmlns="http://www.w3.org/2000/svg">
<rect x="-0.5" y="0.5" width="23" height="23" rx="11.5" transform="matrix(-1 0 0 1 23 0)" stroke="#7B7B7B"/>
<path d="M14.3491 11.9985L10.2087 16.1389C10.0761 16.2715 10.011 16.4277 10.0134 16.6076C10.0158 16.7875 10.0832 16.9438 10.2158 17.0764C10.3484 17.2089 10.5046 17.2752 10.6845 17.2752C10.8644 17.2752 11.0207 17.2089 11.1532 17.0764L15.4854 12.7513C15.5943 12.6424 15.6736 12.5241 15.7233 12.3962C15.773 12.2684 15.7979 12.1358 15.7979 11.9985C15.7979 11.8612 15.773 11.7287 15.7233 11.6008C15.6736 11.473 15.5943 11.3546 15.4854 11.2457L11.1532 6.91362C11.0207 6.78106 10.8633 6.71596 10.681 6.71832C10.4987 6.72069 10.3413 6.78816 10.2087 6.92073C10.0761 7.05329 10.0099 7.20953 10.0099 7.38945C10.0099 7.56936 10.0761 7.7256 10.2087 7.85817L14.3491 11.9985Z" fill="#29344B"/>
</svg>
