<svg width="29" height="30" viewBox="0 0 29 30" fill="none" xmlns="http://www.w3.org/2000/svg">
<g id="File">
<path id="Vector" d="M28.4004 14.9617H25.6006V7.48189L18.1342 0.000976562H3.20017V14.9617H0.400391V24.3128H3.20017V29.9235H25.6006V24.3128H28.4004V14.9617Z" fill="#00980D"/>
<path id="Vector_2" d="M18.1339 1.32504V7.48232H24.279L18.1339 1.32504ZM17.1999 8.41744V0.936523H4.13281V14.9621H24.6664V8.41744H17.1999ZM4.13281 28.9888H24.6664V24.3133H4.13281V28.9888ZM12.9218 16.8368V22.443H16.4162V21.3777H14.1931V16.8368H12.9218ZM18.8197 21.4857C18.2775 21.4857 17.7565 21.312 17.4159 21.1372L17.1587 22.1859C17.4738 22.3596 18.105 22.5265 18.7451 22.5265C20.2791 22.5265 21.0016 21.7272 21.0016 20.7877C21.0016 19.9973 20.5363 19.4818 19.5488 19.1156C18.8264 18.8417 18.5113 18.6825 18.5113 18.3252C18.5113 18.0346 18.7774 17.7853 19.324 17.7853C19.8728 17.7853 20.2724 17.9434 20.4962 18.0502L20.7767 17.0283C20.445 16.878 19.9808 16.7455 19.3496 16.7455C18.0304 16.7455 17.2333 17.478 17.2333 18.4343C17.2333 19.2492 17.8389 19.7646 18.7685 20.0886C19.4409 20.3301 19.7069 20.5294 19.7069 20.8801C19.7069 21.2452 19.3986 21.4857 18.8197 21.4857ZM8.65142 22.443L9.11564 21.4278C9.29041 21.037 9.43068 20.7465 9.54757 20.4214H9.56427C9.72235 20.7465 9.85594 21.037 10.0641 21.4278L10.5684 22.443H12.0312L10.3702 19.5742L11.9466 16.8368H10.5027L10.0296 17.8588C9.88822 18.1838 9.78135 18.4343 9.64776 18.7916H9.63218C9.49859 18.4755 9.37502 18.2005 9.20692 17.8588L8.71821 16.8368H7.26545L8.8262 19.6065L7.20756 22.443H8.65142Z" fill="white"/>
</g>
</svg>
