<svg width="29" height="31" viewBox="0 0 29 31" fill="none" xmlns="http://www.w3.org/2000/svg">
<path d="M28.4004 15.8095H25.5997V8.32857L18.1335 0.847656H3.19995V15.8095H0.400391V25.1606H3.19995V30.7713H25.5997V25.1606H28.4004V15.8095Z" fill="#CC0000"/>
<path d="M4.13281 29.8366H24.6666V25.1611H4.13281V29.8366ZM18.1339 2.17118V8.329H24.2799L18.1339 2.17118ZM17.2004 9.26412V1.7832H4.13281V15.8099H24.6666V9.26412H17.2004ZM17.2313 20.354C17.2313 19.3647 16.8656 18.6738 16.2845 18.2406C15.7453 17.8327 15.0559 17.6415 13.9931 17.6415C13.3546 17.6415 12.748 17.6835 12.2829 17.7586V23.2654C12.5989 23.3074 13.064 23.3483 13.7191 23.3483C14.8151 23.3483 15.7122 23.1151 16.3011 22.6243C16.8413 22.1667 17.2313 21.4272 17.2313 20.354ZM13.9931 22.359C13.8351 22.359 13.6617 22.359 13.5523 22.3336V18.665C13.6617 18.6407 13.844 18.6153 14.1268 18.6153C15.2139 18.6153 15.8945 19.2309 15.8857 20.396C15.8857 21.7345 15.1388 22.3668 13.9931 22.359ZM8.93426 21.3101C9.68221 21.3101 10.3208 21.1277 10.7528 20.7198C11.0853 20.4037 11.2676 19.9384 11.2676 19.389C11.2676 18.8396 11.0268 18.3743 10.6699 18.0913C10.2965 17.7918 9.73966 17.6415 8.95967 17.6415C8.18742 17.6415 7.63944 17.6923 7.24834 17.7586V23.2908H8.50229V21.2858C8.6194 21.3023 8.76744 21.3101 8.93426 21.3101ZM8.50229 18.6484C8.59399 18.623 8.76744 18.5987 9.02596 18.5987C9.6568 18.5987 10.0137 18.906 10.0137 19.4222C10.0137 19.9958 9.59825 20.3374 8.92653 20.3374C8.74313 20.3374 8.61056 20.3285 8.50229 20.3042V18.6484ZM21.6925 18.7236V17.6835H18.272V23.2908H19.5425V21.0359H21.5511V20.0047H19.5425V18.7236H21.6925Z" fill="white"/>
</svg>
