<svg width="28" height="30" viewBox="0 0 28 30" fill="none" xmlns="http://www.w3.org/2000/svg">
<path d="M28 14.9618H25.2002V7.48092L17.7338 0H2.79978V14.9618H0V24.3119H2.79978V29.9226H25.2002V24.3119H28V14.9618Z" fill="#000099"/>
<path d="M3.73242 28.9879H24.266V24.3123H3.73242V28.9879ZM17.7335 1.32406V7.48135H23.8786L17.7335 1.32406ZM16.7995 8.41646V0.935547H3.73242V14.9623H24.266V8.41646H16.7995ZM17.1124 19.5811C17.1124 18.0337 16.175 16.7445 14.4562 16.7445C12.803 16.7445 11.7321 18.0003 11.7321 19.6801C11.7321 21.2776 12.704 22.5334 14.3649 22.5334C16.0002 22.5334 17.1124 21.419 17.1124 19.5811ZM13.0691 19.6556C13.0691 18.5658 13.5667 17.7509 14.4228 17.7509C15.2944 17.7509 15.7754 18.6159 15.7754 19.6223C15.7754 20.7121 15.2855 21.527 14.4306 21.527C13.5834 21.527 13.0691 20.7544 13.0691 19.6556ZM11.1566 19.5065C11.1566 18.5168 10.7914 17.8255 10.2103 17.3924C9.6704 16.985 8.98131 16.7935 7.91817 16.7935C7.28029 16.7935 6.67358 16.8358 6.20825 16.9104V22.4165C6.52441 22.4588 6.98862 22.5011 7.64432 22.5011C8.74085 22.5011 9.63812 22.2673 10.227 21.7764C10.7669 21.3188 11.1566 20.5785 11.1566 19.5065ZM7.91817 21.5103C7.76121 21.5103 7.58643 21.5103 7.47845 21.4858V17.8177C7.58643 17.7921 7.769 17.7676 8.05176 17.7676C9.13939 17.7676 9.81957 18.3832 9.81178 19.5477C9.81178 20.8869 9.0648 21.5192 7.91817 21.5103ZM20.8027 17.7921C21.2502 17.7921 21.6065 17.8923 21.8647 18.0003L22.1219 16.9939C21.8981 16.877 21.3994 16.7445 20.7437 16.7445C19.0505 16.7445 17.689 17.8088 17.689 19.7224C17.689 21.3188 18.6853 22.5256 20.619 22.5256C21.2992 22.5256 21.8235 22.4009 22.0551 22.284L21.8647 21.2943C21.6154 21.3934 21.1923 21.478 20.8105 21.478C19.6806 21.478 19.0171 20.77 19.0171 19.6467C19.0171 18.3999 19.7964 17.7921 20.8027 17.7921Z" fill="white"/>
</svg>
