<svg width="29" height="30" viewBox="0 0 29 30" fill="none" xmlns="http://www.w3.org/2000/svg">
<path d="M28.0234 14.9472H25.2214V7.4741L17.7483 0.000976562H2.802V14.9472H0V24.2883H2.802V29.8935H25.2214V24.2883H28.0234V14.9472Z" fill="#CA4223"/>
<path d="M3.73633 28.9589H24.2866V24.2889H3.73633V28.9589ZM17.7486 1.32406V7.47467H23.8992L17.7486 1.32406ZM16.8146 8.40867V0.935547H3.73633V14.9478H24.2866V8.40867H16.8146ZM17.1274 19.5621C17.1274 18.0159 16.1878 16.7278 14.4679 16.7278C12.8147 16.7278 11.7427 17.9825 11.7427 19.6612C11.7427 21.2576 12.7145 22.5122 14.3766 22.5122C16.013 22.5122 17.1274 21.3979 17.1274 19.5621ZM13.0808 19.6367C13.0808 18.548 13.5784 17.7342 14.4356 17.7342C15.3073 17.7342 15.7893 18.5981 15.7893 19.6033C15.7893 20.6921 15.2995 21.507 14.4434 21.507C13.5951 21.507 13.0808 20.7344 13.0808 19.6367ZM11.1671 19.4876C11.1671 18.499 10.8009 17.8088 10.2187 17.3769C9.67876 16.9694 8.98967 16.7779 7.92542 16.7779C7.28642 16.7779 6.67971 16.8202 6.21327 16.8948V22.3953C6.53054 22.4376 6.99476 22.4788 7.65156 22.4788C8.7481 22.4788 9.64647 22.2461 10.2354 21.7552C10.7764 21.2988 11.1671 20.5596 11.1671 19.4876ZM7.92542 21.4903C7.76734 21.4903 7.59368 21.4903 7.48458 21.4646V17.7999C7.59368 17.7754 7.77625 17.7509 8.05901 17.7509C9.14663 17.7509 9.82793 18.3654 9.82014 19.5287C9.82014 20.8668 9.07205 21.498 7.92542 21.4903ZM20.82 17.7754C21.2686 17.7754 21.6248 17.8745 21.8831 17.9825L22.1403 16.9783C21.9165 16.8614 21.4178 16.7278 20.761 16.7278C19.0666 16.7278 17.704 17.7921 17.704 19.7035C17.704 21.2988 18.7004 22.5033 20.6363 22.5033C21.3176 22.5033 21.8419 22.3786 22.0746 22.2628L21.8831 21.2743C21.6338 21.3734 21.2107 21.4569 20.8278 21.4569C19.6978 21.4569 19.0332 20.75 19.0332 19.6278C19.0332 18.3821 19.8136 17.7754 20.82 17.7754Z" fill="white"/>
<path d="M1.83398 15.5205H25.1606V23.2196H1.83398V15.5205Z" fill="black"/>
<path d="M1.83398 15.5205H25.1718V23.2196H1.83398V15.5205Z" fill="#CA4223"/>
<path d="M11.6982 18.6112C11.6982 18.9263 11.628 19.2168 11.4889 19.484C11.3486 19.7489 11.1338 19.9604 10.8432 20.1208C10.5515 20.2811 10.173 20.3612 9.70771 20.3612H8.55885V22.2537H7.34766V16.8701H9.70771C10.173 16.8701 10.5515 16.9503 10.8432 17.1106C11.1338 17.2709 11.3486 17.4835 11.4889 17.7473C11.628 18.0123 11.6982 18.2995 11.6982 18.6112ZM10.4603 18.6157C10.4603 18.4175 10.4113 18.2483 10.3133 18.108C10.2153 17.9689 10.0561 17.8987 9.83684 17.8987H8.55885V19.3415H9.8502C10.0695 19.3415 10.2254 19.2691 10.3178 19.1233C10.4124 18.9786 10.4603 18.8094 10.4603 18.6157Z" fill="white"/>
<path d="M16.7196 18.6112C16.7196 18.9263 16.6495 19.2168 16.5104 19.484C16.3701 19.7489 16.1552 19.9604 15.8647 20.1208C15.573 20.2811 15.1945 20.3612 14.7292 20.3612H13.5803V22.2537H12.3691V16.8701H14.7292C15.1945 16.8701 15.573 16.9503 15.8647 17.1106C16.1552 17.2709 16.3701 17.4835 16.5104 17.7473C16.6495 18.0123 16.7196 18.2995 16.7196 18.6112ZM15.4817 18.6157C15.4817 18.4175 15.4328 18.2483 15.3348 18.108C15.2368 17.9689 15.0776 17.8987 14.8583 17.8987H13.5803V19.3415H14.8717C15.091 19.3415 15.2468 19.2691 15.3392 19.1233C15.4339 18.9786 15.4817 18.8094 15.4817 18.6157Z" fill="white"/>
<path d="M21.4728 17.8987H19.8742V22.2537H18.6274V17.8987H17.0332V16.8701H21.4728V17.8987Z" fill="white"/>
</svg>
