<svg width="29" height="31" viewBox="0 0 29 31" fill="none" xmlns="http://www.w3.org/2000/svg">
<g id="File">
<path id="Vector" d="M28.4238 15.8711H25.6218V8.39793L18.1486 0.924805H3.20239V15.8711H0.400391V25.2122H3.20239V30.8173H25.6218V25.2122H28.4238V15.8711Z" fill="#4486D3"/>
<path id="Vector_2" d="M4.13672 29.8828H24.687V25.2127H4.13672V29.8828ZM18.149 2.24789V8.3985H24.2996L18.149 2.24789ZM17.215 9.3325V1.85938H4.13672V15.8716H24.687V9.3325H17.215Z" fill="white"/>
<g id="Vector_3">
<path d="M10.6834 23.0428H9.44548V20.8564H7.44612V23.0428H6.23047V17.6592H7.44612V19.8278H9.44548V17.6592H10.6834V23.0428Z" fill="white"/>
<path d="M18.4336 17.6592L16.7638 23.0428H15.7396L14.8713 19.8545L13.9584 23.0428H12.9387L11.2733 17.6592H12.5023L13.4463 21.0479L14.3636 17.6592H15.3433L16.2561 21.0924L17.2091 17.6592H18.4336Z" fill="white"/>
<path d="M23.3233 19.4003C23.3233 19.7153 23.2532 20.0059 23.114 20.273C22.9738 20.538 22.7589 20.7495 22.4684 20.9098C22.1767 21.0701 21.7982 21.1503 21.3329 21.1503H20.184V23.0428H18.9728V17.6592H21.3329C21.7982 17.6592 22.1767 17.7393 22.4684 17.8996C22.7589 18.0599 22.9738 18.2726 23.114 18.5364C23.2532 18.8014 23.3233 19.0886 23.3233 19.4003ZM22.0854 19.4047C22.0854 19.2066 22.0364 19.0374 21.9385 18.8971C21.8405 18.7579 21.6813 18.6878 21.462 18.6878H20.184V20.1306H21.4754C21.6947 20.1306 21.8505 20.0582 21.9429 19.9124C22.0375 19.7676 22.0854 19.5984 22.0854 19.4047Z" fill="white"/>
</g>
</g>
</svg>
