<svg width="16" height="16" viewBox="0 0 16 16" fill="none" xmlns="http://www.w3.org/2000/svg">
<g clip-path="url(#clip0_1161_2990)">
<path d="M8.04557 7.95354L0.571289 15.4279M14.4456 2.13633L13.4856 4.97062C13.4524 5.03617 13.4352 5.10859 13.4352 5.18204C13.4352 5.2555 13.4524 5.32793 13.4856 5.39347L15.2799 7.79347C15.3314 7.86217 15.3626 7.944 15.3698 8.02959C15.377 8.11519 15.36 8.20107 15.3205 8.27742C15.2812 8.35376 15.2211 8.41746 15.1473 8.46123C15.0733 8.50501 14.9887 8.52707 14.9027 8.5249H11.9084C11.8351 8.52706 11.7631 8.54563 11.6978 8.57926C11.6325 8.61288 11.5756 8.6607 11.5313 8.71919L9.86275 11.1192C9.8138 11.1893 9.74617 11.2444 9.66752 11.278C9.58887 11.3116 9.50235 11.3225 9.41783 11.3094C9.3333 11.2963 9.25413 11.2597 9.18935 11.2039C9.12456 11.1481 9.07673 11.0752 9.05132 10.9935L8.15988 8.13633C8.13955 8.06571 8.10162 8.00141 8.04965 7.94943C7.99768 7.89746 7.93337 7.85953 7.86275 7.83919L5.00561 6.94776C4.92393 6.92234 4.85103 6.87452 4.79518 6.80974C4.73932 6.74495 4.70277 6.66578 4.68968 6.58126C4.67658 6.49673 4.68747 6.41022 4.7211 6.33156C4.75472 6.25291 4.80973 6.18527 4.87989 6.13633L7.3256 4.41062C7.3841 4.36626 7.43192 4.30936 7.46554 4.24409C7.49916 4.17883 7.51774 4.10686 7.51988 4.03347V1.03919C7.52308 0.960545 7.54652 0.884056 7.58795 0.817128C7.62938 0.750201 7.68738 0.695104 7.75635 0.657173C7.82532 0.61924 7.90291 0.599758 7.98162 0.600613C8.06032 0.601467 8.13747 0.622628 8.2056 0.662048L10.6056 2.45633C10.6665 2.49865 10.7366 2.5259 10.8101 2.53583C10.8837 2.54577 10.9585 2.5381 11.0285 2.51347L13.8627 1.55347C13.944 1.52491 14.0317 1.5199 14.1157 1.539C14.1997 1.55812 14.2767 1.60059 14.3376 1.66151C14.3985 1.72243 14.441 1.79934 14.4601 1.88334C14.4792 1.96735 14.4741 2.05505 14.4456 2.13633Z" stroke="#202F5B" stroke-linecap="round" stroke-linejoin="round"/>
</g>
<defs>
<clipPath id="clip0_1161_2990">
<rect width="16" height="16" fill="white"/>
</clipPath>
</defs>
</svg>
