<svg width="14" height="14" viewBox="0 0 14 14" fill="none" xmlns="http://www.w3.org/2000/svg">
<path d="M5.15519 11.8393L1 13.0027L2.16345 8.84754L9.77207 1.27587C9.85803 1.18792 9.9608 1.11804 10.0741 1.07033C10.1875 1.02262 10.3093 0.998047 10.4323 0.998047C10.5553 0.998047 10.6771 1.02262 10.7905 1.07033C10.9038 1.11804 11.0065 1.18792 11.0925 1.27587L12.7269 2.91947C12.8134 3.00531 12.8821 3.10745 12.929 3.21996C12.9759 3.33248 13 3.45318 13 3.57507C13 3.69697 12.9759 3.81766 12.929 3.93018C12.8821 4.04271 12.8134 4.14483 12.7269 4.23067L5.15519 11.8393Z" stroke="black" stroke-width="1.51049" stroke-linecap="round" stroke-linejoin="round"/>
</svg>
