<svg width="20" height="20" viewBox="0 0 20 20" fill="none" xmlns="http://www.w3.org/2000/svg">
<path fill-rule="evenodd" clip-rule="evenodd" d="M0 2.07692C0 1.52609 0.225765 0.997815 0.627628 0.608317C1.02949 0.218818 1.57454 0 2.14286 0H17.8571C18.4255 0 18.9705 0.218818 19.3724 0.608317C19.7742 0.997815 20 1.52609 20 2.07692V4.15385C20 4.42659 19.9446 4.69667 19.8369 4.94865C19.7292 5.20063 19.5714 5.42959 19.3724 5.62245C19.1734 5.81531 18.9372 5.9683 18.6772 6.07267C18.4172 6.17705 18.1385 6.23077 17.8571 6.23077H2.14286C1.57454 6.23077 1.02949 6.01195 0.627628 5.62245C0.225765 5.23295 0 4.70468 0 4.15385L0 2.07692ZM18.5714 7.96154H1.42857V17.9231C1.42857 18.4739 1.65434 19.0022 2.0562 19.3917C2.45806 19.7812 3.00311 20 3.57143 20H16.4286C16.71 20 16.9886 19.9463 17.2486 19.8419C17.5086 19.7375 17.7448 19.5845 17.9438 19.3917C18.1428 19.1988 18.3006 18.9699 18.4083 18.7179C18.516 18.4659 18.5714 18.1958 18.5714 17.9231V7.96154ZM7.85714 11.2115C7.62034 11.2115 7.39324 11.3027 7.2258 11.465C7.05835 11.6273 6.96429 11.8474 6.96429 12.0769C6.96429 12.3064 7.05835 12.5266 7.2258 12.6888C7.39324 12.8511 7.62034 12.9423 7.85714 12.9423H12.1429C12.3797 12.9423 12.6068 12.8511 12.7742 12.6888C12.9416 12.5266 13.0357 12.3064 13.0357 12.0769C13.0357 11.8474 12.9416 11.6273 12.7742 11.465C12.6068 11.3027 12.3797 11.2115 12.1429 11.2115H7.85714Z" fill="black"/>
</svg>
