<svg width="21" height="20" viewBox="0 0 21 20" fill="none" xmlns="http://www.w3.org/2000/svg">
<g id="icon_file">
<path id="Vector (Stroke)" fill-rule="evenodd" clip-rule="evenodd" d="M12.4183 4.60679C12.2407 4.60686 12.0648 4.63957 11.9009 4.70301C11.737 4.76645 11.5882 4.85938 11.4632 4.97643L11.4609 4.9775L4.45147 11.5004C4.09677 11.8359 3.89827 12.2872 3.8987 12.7571C3.89913 13.2271 4.09847 13.678 4.45378 14.013L6.42297 15.8709C6.68643 16.1189 7.02385 16.2882 7.39185 16.357C7.75985 16.4257 8.14161 16.3907 8.48802 16.2566C8.71901 16.1676 8.9269 16.0359 9.1013 15.8709L9.10476 15.8687L15.6845 9.71221C15.8464 9.56089 16.0664 9.47543 16.2963 9.47462C16.5261 9.47382 16.7468 9.55774 16.9099 9.70792C17.073 9.8581 17.1651 10.0622 17.166 10.2754C17.1669 10.4886 17.0764 10.6934 16.9145 10.8447L10.3382 16.9969L10.3359 16.998C10.0001 17.3153 9.59946 17.5673 9.15745 17.7394C8.71543 17.9114 8.2409 18 7.76156 18C7.28222 18 6.80768 17.9114 6.36567 17.7394C5.92366 17.5673 5.52302 17.3153 5.18718 16.998L3.21914 15.1412C2.54427 14.5052 2.16602 13.6486 2.16602 12.7562C2.16602 11.8637 2.54427 11.0071 3.21914 10.3711L3.22261 10.3679L10.2331 3.84392C10.5193 3.5765 10.8596 3.36425 11.2345 3.21941C11.6095 3.07457 12.0116 3 12.4177 3C12.8239 3 13.226 3.07457 13.6009 3.21941C13.9759 3.36425 14.3162 3.5765 14.6023 3.84392H14.6035L15.3842 4.56821V4.56928C15.6725 4.83454 15.9014 5.15012 16.0576 5.49782C16.2138 5.84552 16.2943 6.21847 16.2944 6.59516C16.2945 6.97185 16.2142 7.34484 16.0582 7.69261C15.9022 8.04039 15.6735 8.35608 15.3854 8.62148L15.3842 8.62255L9.17406 14.404L9.17291 14.4051C8.98955 14.5764 8.77147 14.7124 8.53123 14.8052C8.29099 14.8979 8.03333 14.9457 7.77311 14.9457C7.51288 14.9457 7.25523 14.8979 7.01499 14.8052C6.77474 14.7124 6.55666 14.5764 6.37331 14.4051L6.36753 14.3987L5.98525 14.0344C5.80166 13.864 5.65615 13.6617 5.55704 13.439C5.45794 13.2164 5.4072 12.9777 5.40774 12.7368C5.40827 12.4959 5.46008 12.2575 5.56017 12.0352C5.66026 11.8129 5.80668 11.6112 5.99102 11.4415L10.1604 7.60575C10.3252 7.46433 10.5427 7.38778 10.7671 7.39221C10.9915 7.39665 11.2053 7.48174 11.3634 7.62954C11.5216 7.77735 11.6117 7.97633 11.6148 8.18455C11.6179 8.39277 11.5337 8.59398 11.38 8.74576L7.21065 12.5826C7.18819 12.6033 7.17037 12.6279 7.15822 12.6551C7.14606 12.6822 7.1398 12.7113 7.1398 12.7406C7.1398 12.77 7.14606 12.7991 7.15822 12.8262C7.17037 12.8533 7.18819 12.878 7.21065 12.8987L7.2222 12.9094L7.60564 13.2737C7.62792 13.2942 7.65436 13.3105 7.68343 13.3216C7.7125 13.3327 7.74365 13.3383 7.77508 13.3382C7.80651 13.3381 7.83761 13.3323 7.8666 13.321C7.8956 13.3098 7.92191 13.2933 7.94404 13.2726V13.2715L14.16 7.48575L14.1634 7.48146C14.2894 7.36536 14.3893 7.2273 14.4575 7.07523C14.5257 6.92316 14.5608 6.76008 14.5608 6.59538C14.5608 6.43068 14.5257 6.2676 14.4575 6.11553C14.3893 5.96346 14.2894 5.8254 14.1634 5.7093L14.1611 5.70716L13.3758 4.97858L13.3735 4.97643C13.2484 4.85938 13.0997 4.76645 12.9357 4.70301C12.7718 4.63957 12.5959 4.60686 12.4183 4.60679Z" fill="black"/>
</g>
</svg>
