<svg width="21" height="20" viewBox="0 0 21 20" fill="none" xmlns="http://www.w3.org/2000/svg">
<g id="icon_play">
<path id="play" d="M6.5 15.3825C6.50323 15.5832 6.55771 15.779 6.65752 15.9488C6.75733 16.1186 6.89865 16.2558 7.06613 16.3454C7.23337 16.4467 7.4222 16.5 7.61429 16.5C7.80638 16.5 7.99521 16.4467 8.16244 16.3454L15.9355 11.1937C16.1046 11.1064 16.2473 10.9697 16.3472 10.7993C16.4471 10.629 16.5 10.4319 16.5 10.2307C16.5 10.0296 16.4471 9.83246 16.3472 9.66212C16.2473 9.49177 16.1046 9.35508 15.9355 9.26777L8.16244 4.15447C7.99521 4.05321 7.80638 4 7.61429 4C7.4222 4 7.23337 4.05321 7.06613 4.15447C6.89865 4.24421 6.75733 4.38142 6.65752 4.55119C6.55771 4.72096 6.50323 4.91681 6.5 5.11743V15.3825Z" fill="black"/>
</g>
</svg>
