<svg width="20" height="20" viewBox="0 0 20 20" fill="none" xmlns="http://www.w3.org/2000/svg">
<path fill-rule="evenodd" clip-rule="evenodd" d="M14.5614 5.0554C14.4803 5.25134 14.343 5.41881 14.1668 5.53662C13.9905 5.65444 13.7834 5.71731 13.5714 5.71729H11.0714V9.64857C11.0714 9.93293 10.9585 10.2056 10.7576 10.4067C10.5567 10.6078 10.2842 10.7207 10 10.7207C9.71584 10.7207 9.44332 10.6078 9.24239 10.4067C9.04145 10.2056 8.92857 9.93293 8.92857 9.64857V5.71729H6.42857C6.2168 5.7171 6.00983 5.65412 5.83381 5.53629C5.65779 5.41847 5.52061 5.25109 5.43959 5.05529C5.35857 4.8595 5.33736 4.64407 5.37862 4.43621C5.41988 4.22835 5.52178 4.0374 5.67143 3.88745L9.24286 0.313559C9.44375 0.112777 9.71607 0 10 0C10.2839 0 10.5562 0.112777 10.7571 0.313559L14.3286 3.88745C14.4784 4.03729 14.5805 4.22821 14.622 4.4361C14.6634 4.64398 14.6423 4.85949 14.5614 5.0554ZM0.714286 11.8944C0.524845 11.8944 0.343164 11.9697 0.209209 12.1038C0.0752549 12.2378 0 12.4196 0 12.6092L0 17.8557C0 18.1373 0.0554266 18.4161 0.163115 18.6763C0.270804 18.9364 0.428646 19.1728 0.627628 19.3719C0.826611 19.5711 1.06284 19.729 1.32282 19.8368C1.5828 19.9445 1.86145 20 2.14286 20H17.8571C18.4255 20 18.9705 19.7741 19.3724 19.3719C19.7742 18.9698 20 18.4244 20 17.8557V12.6092C20 12.4196 19.9247 12.2378 19.7908 12.1038C19.6568 11.9697 19.4752 11.8944 19.2857 11.8944H15.0386C14.4702 11.8944 13.9252 12.1203 13.5233 12.5225C13.1215 12.9246 12.8957 13.47 12.8957 14.0387C12.8957 15.4311 11.5014 16.5147 9.99571 16.5047C8.53286 16.4947 7.18143 15.4068 7.18143 14.0387C7.18143 13.47 6.95566 12.9246 6.5538 12.5225C6.15194 12.1203 5.60689 11.8944 5.03857 11.8944H0.714286Z" fill="black"/>
</svg>
