<svg width="17" height="16" viewBox="0 0 17 16" fill="none" xmlns="http://www.w3.org/2000/svg">
<g clip-path="url(#clip0_1161_3000)">
<path d="M5.64284 3.42843L8.49998 0.571289M8.49998 0.571289L11.3571 3.42843M8.49998 0.571289V7.42843M15.9286 9.14272H11.9286C11.6254 9.14272 11.3348 9.26313 11.1204 9.47745C10.9061 9.69178 10.7857 9.98247 10.7857 10.2856C10.7857 10.8918 10.5449 11.4731 10.1162 11.9018C9.68757 12.3305 9.10619 12.5713 8.49998 12.5713C7.89378 12.5713 7.31239 12.3305 6.88374 11.9018C6.45508 11.4731 6.21427 10.8918 6.21427 10.2856C6.21427 9.98247 6.09386 9.69178 5.87954 9.47745C5.66521 9.26313 5.37452 9.14272 5.07141 9.14272H1.07141V14.2856C1.07141 14.5887 1.19182 14.8794 1.40615 15.0937C1.62047 15.308 1.91116 15.4284 2.21427 15.4284H14.7857C15.0888 15.4284 15.3795 15.308 15.5938 15.0937C15.8081 14.8794 15.9286 14.5887 15.9286 14.2856V9.14272Z" stroke="#202F5B" stroke-linecap="round" stroke-linejoin="round"/>
</g>
<defs>
<clipPath id="clip0_1161_3000">
<rect width="16" height="16" fill="white" transform="translate(0.5)"/>
</clipPath>
</defs>
</svg>
