<svg width="18" height="18" viewBox="0 0 18 18" fill="none" xmlns="http://www.w3.org/2000/svg">
<path d="M2.23077 2.84622C1.90434 2.84622 1.5913 2.97589 1.36048 3.2067C1.12967 3.43752 1 3.75056 1 4.07698V15.7692C1 16.0956 1.12967 16.4087 1.36048 16.6395C1.5913 16.8703 1.90434 17 2.23077 17H15.7692C16.0956 17 16.4087 16.8703 16.6395 16.6395C16.8703 16.4087 17 16.0956 17 15.7692V4.07698C17 3.75056 16.8703 3.43752 16.6395 3.2067C16.4087 2.97589 16.0956 2.84622 15.7692 2.84622H13.3077M1 7.15389H17M4.69246 1V4.69229M13.3078 1V4.69229M4.69246 2.84622H10.8463" stroke="#BDC3E3" stroke-width="2" stroke-linecap="round" stroke-linejoin="round"/>
</svg>
