<svg width="6" height="10" viewBox="0 0 6 10" fill="none" xmlns="http://www.w3.org/2000/svg">
<path d="M0.752003 10C0.648101 9.99967 0.545349 9.97762 0.449981 9.93519C0.354614 9.89277 0.268621 9.83085 0.19722 9.7532C0.0629323 9.60259 -0.00775749 9.40331 0.000676639 9.19913C0.00911076 8.99494 0.0959791 8.80255 0.242202 8.6642L4.14068 4.98844L0.242202 1.3119C0.107525 1.17096 0.0305843 0.982208 0.0272582 0.784601C0.0239321 0.586994 0.0944748 0.395614 0.224328 0.249958C0.354181 0.104302 0.533434 0.0154867 0.725092 0.00184164C0.916751 -0.0118034 1.10619 0.0507632 1.25431 0.176629L5.75255 4.42389C5.83112 4.49205 5.89404 4.57726 5.93682 4.6734C5.97959 4.76954 6.00115 4.87423 5.99995 4.97995C5.99938 5.08692 5.97784 5.19266 5.93662 5.29086C5.8954 5.38905 5.83534 5.47769 5.76005 5.55145L1.2618 9.7987C1.12059 9.92611 0.939815 9.99749 0.752003 10Z" fill="#6471F6"/>
</svg>
