<svg width="24" height="23" viewBox="0 0 24 23" fill="none" xmlns="http://www.w3.org/2000/svg">
<g id="Frame 341">
<path id="Vector" d="M9.4375 8.59375C9.4375 8.81752 9.34861 9.03213 9.19038 9.19038C9.03213 9.34861 8.81752 9.4375 8.59375 9.4375H1.84375C1.61998 9.4375 1.40537 9.34861 1.24712 9.19038C1.08889 9.03213 1 8.81752 1 8.59375V1.84375C1 1.61998 1.08889 1.40537 1.24712 1.24712C1.40537 1.08889 1.61998 1 1.84375 1H8.59375C8.81752 1 9.03213 1.08889 9.19038 1.24712C9.34861 1.40537 9.4375 1.61998 9.4375 1.84375V8.59375Z" stroke="#CCCCCC" stroke-width="1.6" stroke-linecap="round" stroke-linejoin="round"/>
<path id="Vector_2" d="M9.4375 20.7813C9.4375 21.005 9.34861 21.2196 9.19038 21.3779C9.03213 21.5361 8.81752 21.625 8.59375 21.625H1.84375C1.61998 21.625 1.40537 21.5361 1.24712 21.3779C1.08889 21.2196 1 21.005 1 20.7813V14.0313C1 13.8075 1.08889 13.5929 1.24712 13.4346C1.40537 13.2764 1.61998 13.1875 1.84375 13.1875H8.59375C8.81752 13.1875 9.03213 13.2764 9.19038 13.4346C9.34861 13.5929 9.4375 13.8075 9.4375 14.0313V20.7813Z" stroke="#CCCCCC" stroke-width="1.6" stroke-linecap="round" stroke-linejoin="round"/>
<path id="Vector_3" d="M13.248 1.50488H22.623" stroke="#CCCCCC" stroke-width="1.6" stroke-linecap="round" stroke-linejoin="round"/>
<path id="Vector_4" d="M13.248 5.21875H22.623" stroke="#CCCCCC" stroke-width="1.6" stroke-linecap="round" stroke-linejoin="round"/>
<path id="Vector_5" d="M13.248 8.93262H22.623" stroke="#CCCCCC" stroke-width="1.6" stroke-linecap="round" stroke-linejoin="round"/>
<path id="Vector_6" d="M13.248 13.6924H22.623" stroke="#CCCCCC" stroke-width="1.6" stroke-linecap="round" stroke-linejoin="round"/>
<path id="Vector_7" d="M13.248 17.4062H22.623" stroke="#CCCCCC" stroke-width="1.6" stroke-linecap="round" stroke-linejoin="round"/>
<path id="Vector_8" d="M13.248 21.1201H22.623" stroke="#CCCCCC" stroke-width="1.6" stroke-linecap="round" stroke-linejoin="round"/>
</g>
</svg>
