<svg width="21" height="20" viewBox="0 0 21 20" fill="none" xmlns="http://www.w3.org/2000/svg">
<g id="icon_setting">
<g id="Vector">
<path d="M9.5944 4.04824C9.70863 4.17506 9.84819 4.27646 10.0041 4.34587C10.1601 4.41528 10.3288 4.45115 10.4995 4.45115C10.6702 4.45115 10.839 4.41528 10.9949 4.34587C11.1508 4.27646 11.2904 4.17506 11.4046 4.04824L11.9935 3.40198C12.1623 3.21516 12.3847 3.08516 12.6304 3.02982C12.8759 2.97449 13.1326 2.99652 13.3652 3.0929C13.5977 3.18929 13.7948 3.3553 13.9293 3.56815C14.0638 3.78099 14.1291 4.03025 14.1163 4.28171L14.0721 5.15335C14.0635 5.32339 14.0907 5.49333 14.1518 5.65223C14.2129 5.81113 14.3067 5.95547 14.4269 6.07594C14.5472 6.19642 14.6914 6.29035 14.8502 6.35171C15.009 6.41306 15.1788 6.44048 15.3489 6.43218L16.2204 6.38797C16.4716 6.37558 16.7206 6.44121 16.9331 6.57586C17.1455 6.71052 17.3112 6.9076 17.4074 7.14011C17.5035 7.37262 17.5253 7.62917 17.47 7.87461C17.4146 8.12004 17.2847 8.34233 17.0981 8.51104L16.4494 9.09626C16.3228 9.21069 16.2215 9.35041 16.1523 9.50637C16.083 9.66239 16.0472 9.83118 16.0472 10.0018C16.0472 10.1726 16.083 10.3413 16.1523 10.4973C16.2215 10.6533 16.3228 10.793 16.4494 10.9074L17.0981 11.4927C17.2849 11.6615 17.4148 11.884 17.4702 12.1296C17.5255 12.3752 17.5035 12.6319 17.4071 12.8646C17.3108 13.0972 17.1448 13.2942 16.932 13.4287C16.7191 13.5632 16.4699 13.6285 16.2185 13.6157L15.347 13.5715C15.1766 13.5628 15.0062 13.5899 14.847 13.6511C14.6878 13.7123 14.5431 13.8063 14.4225 13.927C14.3019 14.0476 14.2079 14.1923 14.1467 14.3516C14.0854 14.5108 14.0583 14.6812 14.0671 14.8516L14.1113 15.7232C14.1225 15.9734 14.0563 16.221 13.9219 16.4323C13.7875 16.6436 13.5913 16.8084 13.3599 16.9042C13.1286 17.0002 12.8734 17.0225 12.6289 16.9682C12.3845 16.914 12.1626 16.7858 11.9935 16.6011L11.4078 15.953C11.2934 15.8263 11.1538 15.7251 10.9978 15.6558C10.842 15.5865 10.6733 15.5507 10.5026 15.5507C10.332 15.5507 10.1633 15.5865 10.0074 15.6558C9.85149 15.7251 9.71186 15.8263 9.59751 15.953L9.00923 16.6011C8.84041 16.7867 8.61847 16.9157 8.37368 16.9705C8.12888 17.0253 7.87313 17.0034 7.64129 16.9075C7.40946 16.8117 7.21283 16.6466 7.07819 16.4349C6.94356 16.2232 6.87748 15.9751 6.88897 15.7245L6.93379 14.8528C6.94255 14.6824 6.91545 14.5121 6.85423 14.3528C6.79301 14.1936 6.69904 14.0489 6.5784 13.9282C6.45776 13.8075 6.31313 13.7136 6.15388 13.6523C5.99463 13.5911 5.8243 13.564 5.65391 13.5728L4.7824 13.617C4.53108 13.6301 4.28187 13.5651 4.06897 13.4309C3.85607 13.2967 3.68992 13.0999 3.59334 12.8675C3.49676 12.635 3.47447 12.3784 3.52955 12.1328C3.58462 11.8872 3.71435 11.6647 3.90093 11.4958L4.54896 10.9105C4.67561 10.7961 4.77685 10.6564 4.84614 10.5004C4.91543 10.3445 4.95124 10.1757 4.95124 10.0049C4.95124 9.83429 4.91543 9.6655 4.84614 9.50948C4.77685 9.35352 4.67561 9.21381 4.54896 9.09937L3.90093 8.51104C3.71496 8.34232 3.58562 8.12027 3.5306 7.87524C3.47558 7.63022 3.49757 7.37418 3.59355 7.14212C3.68953 6.91007 3.85483 6.71332 4.06684 6.57878C4.27886 6.44424 4.52724 6.37847 4.77804 6.39046L5.64956 6.43467C5.82027 6.44364 5.99095 6.41661 6.15054 6.3553C6.31012 6.29401 6.45502 6.19983 6.57584 6.07888C6.69666 5.95792 6.79069 5.8129 6.85182 5.65324C6.91295 5.49358 6.93981 5.32283 6.93068 5.15211L6.88897 4.27984C6.87721 4.0291 6.94308 3.78083 7.07761 3.56892C7.21214 3.35701 7.40877 3.19177 7.64067 3.09576C7.87257 2.99974 8.12844 2.97763 8.37336 3.03243C8.61829 3.08724 8.84034 3.21629 9.00923 3.40198L9.5944 4.04824Z" stroke="black" stroke-width="1.5" stroke-linecap="round" stroke-linejoin="round"/>
<path d="M7.69825 10.0021C7.69825 10.7452 7.99339 11.4577 8.51873 11.9832C9.04407 12.5086 9.75657 12.8038 10.4995 12.8038C11.2425 12.8038 11.955 12.5086 12.4804 11.9832C13.0057 11.4577 13.3008 10.7452 13.3008 10.0021C13.3008 9.25903 13.0057 8.54641 12.4804 8.02099C11.955 7.49557 11.2425 7.20039 10.4995 7.20039C9.75657 7.20039 9.04407 7.49557 8.51873 8.02099C7.99339 8.54641 7.69825 9.25903 7.69825 10.0021Z" stroke="black" stroke-width="1.5" stroke-linecap="round" stroke-linejoin="round"/>
</g>
</g>
</svg>
