<svg width="35" height="34" viewBox="0 0 35 34" fill="none" xmlns="http://www.w3.org/2000/svg">
<g id="icon/service2" clip-path="url(#clip0_906_4399)">
<path id="Vector" fill-rule="evenodd" clip-rule="evenodd" d="M34.4128 8.39486C34.718 7.65824 34.875 6.86874 34.875 6.07143C34.875 4.46119 34.2353 2.91689 33.0967 1.77828C31.9581 0.639666 30.4138 0 28.8036 0C27.1933 0 25.649 0.639666 24.5104 1.77828C23.3718 2.91689 22.7321 4.46119 22.7321 6.07143C22.7321 6.86874 22.8892 7.65824 23.1943 8.39486C23.4994 9.13148 23.9466 9.80079 24.5104 10.3646C25.0742 10.9284 25.7435 11.3756 26.4801 11.6807C27.2168 11.9858 28.0063 12.1429 28.8036 12.1429C29.6009 12.1429 30.3904 11.9858 31.127 11.6807C31.8636 11.3756 32.5329 10.9284 33.0967 10.3646C33.6605 9.80079 34.1077 9.13148 34.4128 8.39486ZM19.6964 6.07143H5.73214C4.44395 6.07143 3.20852 6.58316 2.29762 7.49405C1.38673 8.40494 0.875 9.64038 0.875 10.9286V29.1429C0.875 30.431 1.38673 31.6665 2.29762 32.5774C3.20852 33.4883 4.44395 34 5.73214 34H23.9464C25.2346 34 26.4701 33.4883 27.3809 32.5774C28.2918 31.6665 28.8036 30.431 28.8036 29.1429V15.1786C26.3882 15.1786 24.0718 14.2191 22.3638 12.5112C20.6559 10.8032 19.6964 8.48679 19.6964 6.07143ZM7.731 23.1313V17.7933H6.439V24.2363H10.7145V23.1313H7.731ZM11.8205 19.6718H13.1125V24.2363H11.8205V19.6718ZM17.0465 24.2363L19.061 19.6038H17.6415L16.5025 22.6128L15.406 19.6038H14.0035L15.9585 24.2363H17.0465ZM19.3014 21.9413C19.3014 20.5728 20.2279 19.6123 21.5539 19.6123C23.0099 19.6123 23.4882 20.8099 23.5089 20.8618C23.7521 21.3409 23.727 21.9733 23.716 22.2494C23.7143 22.2917 23.7129 22.3256 23.7129 22.3493H20.4744C20.5679 22.8763 21.0949 23.2163 21.5624 23.2163C22.2424 23.2163 22.4634 22.8338 22.4634 22.8338L23.5174 23.2248C23.5174 23.2248 23.0839 24.2533 21.5539 24.2533C20.2279 24.2533 19.3014 23.3013 19.3014 21.9413ZM21.5539 20.6408C22.1404 20.6408 22.4889 21.0913 22.5739 21.4653H20.4744C20.5679 21.0488 20.9844 20.6408 21.5539 20.6408ZM12.4665 17.6148C12.0755 17.6148 11.795 17.8953 11.795 18.2863C11.795 18.6773 12.0755 18.9578 12.4665 18.9578C12.8575 18.9578 13.138 18.6773 13.138 18.2863C13.138 17.8953 12.8575 17.6148 12.4665 17.6148Z" fill="white"/>
</g>
<defs>
<clipPath id="clip0_906_4399">
<rect width="34" height="34" fill="white" transform="translate(0.875)"/>
</clipPath>
</defs>
</svg>
