<svg width="32" height="32" viewBox="0 0 32 32" fill="none" xmlns="http://www.w3.org/2000/svg">
<path d="M16 26C13.2222 26 10.8611 25.0278 8.91667 23.0833C6.97222 21.1389 6 18.7778 6 16C6 13.2222 6.97222 10.8611 8.91667 8.91667C10.8611 6.97222 13.2222 6 16 6C17.5046 6 18.8993 6.3125 20.184 6.9375C21.4688 7.5625 22.5741 8.39583 23.5 9.4375V6H26V14.3333H17.6667V11.8333H22.2153C21.544 10.8148 20.6644 10.0046 19.5764 9.40278C18.4884 8.80093 17.2963 8.5 16 8.5C13.9167 8.5 12.1458 9.22917 10.6875 10.6875C9.22917 12.1458 8.5 13.9167 8.5 16C8.5 18.0833 9.22917 19.8542 10.6875 21.3125C12.1458 22.7708 13.9167 23.5 16 23.5C17.9444 23.5 19.6111 22.8576 21 21.5729C22.3889 20.2882 23.1875 18.7083 23.3958 16.8333H25.9653C25.7569 19.4259 24.7037 21.6019 22.8056 23.3611C20.9074 25.1204 18.6389 26 16 26Z" fill="#fff"/>
</svg>
