<svg width="40" height="40" viewBox="0 0 40 40" fill="none" xmlns="http://www.w3.org/2000/svg">
<g id="icon/service1">
<path id="Vector" d="M20.6866 11.1345L30.6467 28.3161M30.1252 27.4135L5.57256 33.0917L4 30.3787L21.2137 12.0404M10.9137 31.855L12.2657 34.1871C12.7562 35.0243 13.5605 35.6333 14.5017 35.8799C15.4429 36.1262 16.4439 35.9905 17.2845 35.5019C18.1251 35.0135 18.7364 34.2125 18.984 33.275C19.2316 32.3377 19.0951 31.3407 18.6047 30.5034L18.3882 30.13M21.3639 6.22333V3M33.7636 18.5734H37M5.72986 18.5734H8.96623M10.3061 7.56132L12.5946 9.84057M30.1321 9.84025L32.4205 7.561" stroke="white" stroke-width="3" stroke-linecap="round" stroke-linejoin="round"/>
</g>
</svg>
