<svg width="35" height="34" viewBox="0 0 35 34" fill="none" xmlns="http://www.w3.org/2000/svg">
<g id="icon/service1" clip-path="url(#clip0_906_8003)">
<path id="Union" fill-rule="evenodd" clip-rule="evenodd" d="M19.4464 2.06655C19.4464 1.58347 19.2545 1.12019 18.9129 0.778601C18.5714 0.437017 18.1081 0.245117 17.625 0.245117C17.1419 0.245117 16.6786 0.437017 16.3371 0.778601C15.9955 1.12019 15.8036 1.58347 15.8036 2.06655V31.9355C15.8036 32.4186 15.9955 32.8819 16.3371 33.2235C16.6786 33.5651 17.1419 33.757 17.625 33.757C18.1081 33.757 18.5714 33.5651 18.9129 33.2235C19.2545 32.8819 19.4464 32.4186 19.4464 31.9355V2.06655ZM10.3393 5.98869C10.8224 5.98869 11.2857 6.18059 11.6272 6.52217C11.9688 6.86376 12.1607 7.32704 12.1607 7.81012V26.1895C12.1607 26.6726 11.9688 27.1359 11.6272 27.4775C11.2857 27.8191 10.8224 28.011 10.3393 28.011C9.85622 28.011 9.39293 27.8191 9.05135 27.4775C8.70976 27.1359 8.51786 26.6726 8.51786 26.1895V7.81012C8.51786 7.32704 8.70976 6.86376 9.05135 6.52217C9.39293 6.18059 9.85622 5.98869 10.3393 5.98869ZM3.05358 11.7323C3.29277 11.7323 3.52962 11.7794 3.75061 11.8709C3.97159 11.9624 4.17238 12.0966 4.34152 12.2657C4.51066 12.4349 4.64482 12.6357 4.73636 12.8567C4.82789 13.0776 4.875 13.3145 4.875 13.5537V20.4484C4.875 20.9315 4.6831 21.3948 4.34152 21.7363C3.99994 22.0779 3.53665 22.2698 3.05358 22.2698C2.5705 22.2698 2.10722 22.0779 1.76563 21.7363C1.42405 21.3948 1.23215 20.9315 1.23215 20.4484V13.5537C1.23215 13.0706 1.42405 12.6073 1.76563 12.2657C2.10722 11.9242 2.5705 11.7323 3.05358 11.7323ZM24.9107 5.98869C25.3938 5.98869 25.8571 6.18059 26.1987 6.52217C26.5402 6.86376 26.7321 7.32704 26.7321 7.81012V26.1895C26.7321 26.6726 26.5402 27.1359 26.1987 27.4775C25.8571 27.8191 25.3938 28.011 24.9107 28.011C24.4276 28.011 23.9644 27.8191 23.6228 27.4775C23.2812 27.1359 23.0893 26.6726 23.0893 26.1895V7.81012C23.0893 7.32704 23.2812 6.86376 23.6228 6.52217C23.9644 6.18059 24.4276 5.98869 24.9107 5.98869ZM34.0179 13.5537C34.0179 13.0706 33.826 12.6073 33.4844 12.2657C33.1428 11.9242 32.6795 11.7323 32.1964 11.7323C31.7134 11.7323 31.2501 11.9242 30.9085 12.2657C30.5669 12.6073 30.375 13.0706 30.375 13.5537V20.4484C30.375 20.9315 30.5669 21.3948 30.9085 21.7363C31.2501 22.0779 31.7134 22.2698 32.1964 22.2698C32.6795 22.2698 33.1428 22.0779 33.4844 21.7363C33.826 21.3948 34.0179 20.9315 34.0179 20.4484V13.5537Z" fill="white"/>
</g>
<defs>
<clipPath id="clip0_906_8003">
<rect width="34" height="34" fill="white" transform="translate(0.625)"/>
</clipPath>
</defs>
</svg>
