<svg width="37" height="37" viewBox="0 0 37 37" fill="none" xmlns="http://www.w3.org/2000/svg">
<path d="M16.5005 26.2857C16.2053 26.2857 15.9529 26.181 15.7434 25.9714C15.5338 25.7619 15.4291 25.5095 15.4291 25.2143C15.4291 24.9191 15.5338 24.6667 15.7434 24.4571C15.9529 24.2476 16.2053 24.1429 16.5005 24.1429H27.9291C28.2243 24.1429 28.4767 24.2476 28.6862 24.4571C28.8957 24.6667 29.0005 24.9191 29.0005 25.2143C29.0005 25.5095 28.8957 25.7619 28.6862 25.9714C28.4767 26.181 28.2243 26.2857 27.9291 26.2857H16.5005ZM16.5005 19.5571C16.2053 19.5571 15.9529 19.4524 15.7434 19.2429C15.5338 19.0333 15.4291 18.781 15.4291 18.4857C15.4291 18.1905 15.5338 17.9381 15.7434 17.7286C15.9529 17.5191 16.2053 17.4143 16.5005 17.4143H27.9291C28.2243 17.4143 28.4767 17.5191 28.6862 17.7286C28.8957 17.9381 29.0005 18.1905 29.0005 18.4857C29.0005 18.781 28.8957 19.0333 28.6862 19.2429C28.4767 19.4524 28.2243 19.5571 27.9291 19.5571H16.5005ZM16.5005 12.8571C16.2053 12.8571 15.9529 12.7524 15.7434 12.5429C15.5338 12.3333 15.4291 12.081 15.4291 11.7857C15.4291 11.4905 15.5338 11.2381 15.7434 11.0286C15.9529 10.8191 16.2053 10.7143 16.5005 10.7143H27.9291C28.2243 10.7143 28.4767 10.8191 28.6862 11.0286C28.8957 11.2381 29.0005 11.4905 29.0005 11.7857C29.0005 12.081 28.8957 12.3333 28.6862 12.5429C28.4767 12.7524 28.2243 12.8571 27.9291 12.8571H16.5005ZM11.1116 27.3857C10.5137 27.3857 10.0029 27.1728 9.57907 26.7469C9.15526 26.3211 8.94336 25.8092 8.94336 25.2111C8.94336 24.6132 9.15631 24.1024 9.58222 23.6786C10.0079 23.2548 10.5198 23.0429 11.1179 23.0429C11.7158 23.0429 12.2267 23.2558 12.6505 23.6817C13.0743 24.1074 13.2862 24.6193 13.2862 25.2174C13.2862 25.8153 13.0733 26.3262 12.6474 26.75C12.2216 27.1738 11.7097 27.3857 11.1116 27.3857ZM11.1116 20.6571C10.5137 20.6571 10.0029 20.4442 9.57907 20.0183C9.15526 19.5926 8.94336 19.0807 8.94336 18.4826C8.94336 17.8847 9.15631 17.3738 9.58222 16.95C10.0079 16.5262 10.5198 16.3143 11.1179 16.3143C11.7158 16.3143 12.2267 16.5272 12.6505 16.9531C13.0743 17.3789 13.2862 17.8908 13.2862 18.4889C13.2862 19.0868 13.0733 19.5976 12.6474 20.0214C12.2216 20.4452 11.7097 20.6571 11.1116 20.6571ZM11.1116 13.9571C10.5137 13.9571 10.0029 13.7442 9.57907 13.3183C9.15526 12.8926 8.94336 12.3807 8.94336 11.7826C8.94336 11.1847 9.15631 10.6738 9.58222 10.25C10.0079 9.82619 10.5198 9.61429 11.1179 9.61429C11.7158 9.61429 12.2267 9.82724 12.6505 10.2531C13.0743 10.6789 13.2862 11.1908 13.2862 11.7889C13.2862 12.3868 13.0733 12.8976 12.6474 13.3214C12.2216 13.7452 11.7097 13.9571 11.1116 13.9571Z" fill="#202020"/>
</svg>
