<svg width="36" height="36" viewBox="0 0 36 36" fill="none" xmlns="http://www.w3.org/2000/svg">
<g id="icon/service1" clip-path="url(#clip0_468_7664)">
<path id="Union" fill-rule="evenodd" clip-rule="evenodd" d="M19.9286 2.18834C19.9286 1.67685 19.7254 1.18631 19.3637 0.824631C19.0021 0.462954 18.5115 0.259766 18 0.259766C17.4885 0.259766 16.998 0.462954 16.6363 0.824631C16.2746 1.18631 16.0715 1.67685 16.0715 2.18834V33.8143C16.0715 34.3258 16.2746 34.8164 16.6363 35.178C16.998 35.5397 17.4885 35.7429 18 35.7429C18.5115 35.7429 19.0021 35.5397 19.3637 35.178C19.7254 34.8164 19.9286 34.3258 19.9286 33.8143V2.18834ZM10.2857 6.34119C10.7972 6.34119 11.2878 6.54438 11.6494 6.90606C12.0111 7.26774 12.2143 7.75828 12.2143 8.26976V27.7303C12.2143 28.2418 12.0111 28.7324 11.6494 29.094C11.2878 29.4557 10.7972 29.6589 10.2857 29.6589C9.77425 29.6589 9.28371 29.4557 8.92204 29.094C8.56036 28.7324 8.35717 28.2418 8.35717 27.7303V8.26976C8.35717 7.75828 8.56036 7.26774 8.92204 6.90606C9.28371 6.54438 9.77425 6.34119 10.2857 6.34119ZM2.57145 12.4226C2.82472 12.4226 3.0755 12.4725 3.30949 12.5694C3.54347 12.6663 3.75608 12.8084 3.93516 12.9875C4.11425 13.1666 4.2563 13.3792 4.35322 13.6132C4.45014 13.8471 4.50003 14.0979 4.50003 14.3512V21.6515C4.50003 22.163 4.29684 22.6535 3.93516 23.0152C3.57348 23.3769 3.08294 23.5801 2.57145 23.5801C2.05997 23.5801 1.56943 23.3769 1.20775 23.0152C0.846071 22.6535 0.642883 22.163 0.642883 21.6515V14.3512C0.642883 13.8397 0.846071 13.3492 1.20775 12.9875C1.56943 12.6258 2.05997 12.4226 2.57145 12.4226ZM25.7143 6.34119C26.2258 6.34119 26.7163 6.54438 27.078 6.90606C27.4397 7.26774 27.6429 7.75828 27.6429 8.26976V27.7303C27.6429 28.2418 27.4397 28.7324 27.078 29.094C26.7163 29.4557 26.2258 29.6589 25.7143 29.6589C25.2028 29.6589 24.7123 29.4557 24.3506 29.094C23.9889 28.7324 23.7857 28.2418 23.7857 27.7303V8.26976C23.7857 7.75828 23.9889 7.26774 24.3506 6.90606C24.7123 6.54438 25.2028 6.34119 25.7143 6.34119ZM35.3572 14.3512C35.3572 13.8397 35.154 13.3492 34.7923 12.9875C34.4306 12.6258 33.9401 12.4226 33.4286 12.4226C32.9171 12.4226 32.4266 12.6258 32.0649 12.9875C31.7032 13.3492 31.5 13.8397 31.5 14.3512V21.6515C31.5 22.163 31.7032 22.6535 32.0649 23.0152C32.4266 23.3769 32.9171 23.5801 33.4286 23.5801C33.9401 23.5801 34.4306 23.3769 34.7923 23.0152C35.154 22.6535 35.3572 22.163 35.3572 21.6515V14.3512Z" fill="white"/>
</g>
<defs>
<clipPath id="clip0_468_7664">
<rect width="36" height="36" fill="white"/>
</clipPath>
</defs>
</svg>
