<svg width="80" height="80" viewBox="0 0 80 80" fill="none" xmlns="http://www.w3.org/2000/svg">
<g id="service icon">
<g id="icon/service4" clip-path="url(#clip0_471_1913)">
<path id="Subtract" fill-rule="evenodd" clip-rule="evenodd" d="M25.7466 22.6479C23.6766 22.6479 22 24.3271 22 26.3971V45.9065C22 47.974 23.6766 49.6505 25.7466 49.6505H36.0991L34.7234 53.4974H32.2857C31.7742 53.4974 31.2837 53.7006 30.922 54.0622C30.5603 54.4239 30.3571 54.9145 30.3571 55.426C30.3571 55.9374 30.5603 56.428 30.922 56.7897C31.2837 57.1513 31.7742 57.3545 32.2857 57.3545H47.7143C48.2258 57.3545 48.7163 57.1513 49.078 56.7897C49.4397 56.428 49.6429 55.9374 49.6429 55.426C49.6429 54.9145 49.4397 54.4239 49.078 54.0622C48.7163 53.7006 48.2258 53.4974 47.7143 53.4974H45.2766L43.9009 49.6505H54.2534C56.3234 49.6505 58 47.974 58 45.9065V26.3945C58 24.3271 56.3234 22.6479 54.2534 22.6479H25.7466ZM34.8623 38.4211C34.5592 38.1391 34.1589 37.985 33.745 37.9908C33.331 37.9966 32.9353 38.162 32.6402 38.4524C32.3452 38.7428 32.1736 39.1359 32.1612 39.5497C32.1488 39.9635 32.2966 40.3661 32.5737 40.6737C34.0986 42.2294 36.6751 43.5408 40 43.5408C43.3223 43.5408 45.8989 42.2294 47.4289 40.6737C47.5838 40.5248 47.7072 40.3463 47.792 40.1488C47.8767 39.9514 47.921 39.7389 47.9222 39.5241C47.9234 39.3092 47.8815 39.0963 47.799 38.8979C47.7165 38.6995 47.595 38.5197 47.4418 38.369C47.2886 38.2184 47.1067 38.1 46.9069 38.0209C46.7072 37.9417 46.4936 37.9035 46.2788 37.9083C46.0639 37.9132 45.8523 37.9611 45.6563 38.0491C45.4603 38.1372 45.284 38.2637 45.1377 38.4211C44.2146 39.3571 42.4634 40.3265 40 40.3265C37.534 40.3265 35.7829 39.3571 34.8623 38.4211ZM37.4697 32.2934C37.4793 32.5579 37.4354 32.8216 37.3408 33.0687C37.2462 33.3159 37.1027 33.5415 36.919 33.7319C36.7353 33.9224 36.5151 34.0739 36.2715 34.1774C36.0279 34.2809 35.7659 34.3343 35.5013 34.3343C35.2366 34.3343 34.9747 34.2809 34.7311 34.1774C34.4875 34.0739 34.2673 33.9224 34.0836 33.7319C33.8998 33.5415 33.7564 33.3159 33.6618 33.0687C33.5671 32.8216 33.5233 32.5579 33.5329 32.2934C33.5587 31.7891 33.7772 31.3139 34.1432 30.9661C34.5093 30.6182 34.995 30.4243 35.5 30.4243C36.005 30.4243 36.4907 30.6182 36.8568 30.9661C37.2228 31.3139 37.4413 31.7891 37.4671 32.2934H37.4697ZM44.5 34.2605C44.7645 34.2701 45.0282 34.2262 45.2753 34.1316C45.5225 34.037 45.7481 33.8936 45.9386 33.7098C46.1291 33.5261 46.2806 33.3059 46.3841 33.0623C46.4875 32.8187 46.5409 32.5567 46.5409 32.2921C46.5409 32.0274 46.4875 31.7655 46.3841 31.5219C46.2806 31.2783 46.1291 31.0581 45.9386 30.8744C45.7481 30.6906 45.5225 30.5472 45.2753 30.4526C45.0282 30.3579 44.7645 30.3141 44.5 30.3237C43.9903 30.3421 43.5075 30.5575 43.1534 30.9247C42.7993 31.2918 42.6014 31.782 42.6014 32.2921C42.6014 32.8022 42.7993 33.2924 43.1534 33.6595C43.5075 34.0266 43.9903 34.2421 44.5 34.2605Z" fill="white"/>
</g>
</g>
<defs>
<clipPath id="clip0_471_1913">
<rect width="36" height="36" fill="white" transform="translate(22 22)"/>
</clipPath>
</defs>
</svg>
