<svg width="20" height="20" viewBox="0 0 20 20" fill="none" xmlns="http://www.w3.org/2000/svg">
<g id="icon/download">
<g id="Vector">
<path fill-rule="evenodd" clip-rule="evenodd" d="M0.714286 11.8944C0.524845 11.8944 0.343164 11.9697 0.209209 12.1038C0.0752549 12.2378 0 12.4196 0 12.6092V17.8557C0 18.1373 0.0554266 18.4161 0.163115 18.6763C0.270804 18.9364 0.428646 19.1728 0.627628 19.3719C0.826611 19.5711 1.06284 19.729 1.32282 19.8368C1.5828 19.9445 1.86145 20 2.14286 20H17.8571C18.4255 20 18.9705 19.7741 19.3724 19.3719C19.7742 18.9698 20 18.4244 20 17.8557V12.6092C20 12.4196 19.9247 12.2378 19.7908 12.1038C19.6568 11.9697 19.4752 11.8944 19.2857 11.8944H15.0386C14.4703 11.8944 13.9252 12.1203 13.5233 12.5225C13.1215 12.9246 12.8957 13.47 12.8957 14.0387C12.8957 15.4311 11.5014 16.5147 9.99571 16.5047C8.53286 16.4947 7.18143 15.4068 7.18143 14.0387C7.18143 13.47 6.95566 12.9246 6.5538 12.5225C6.15194 12.1203 5.60689 11.8944 5.03857 11.8944H0.714286Z" fill="black"/>
<path fill-rule="evenodd" clip-rule="evenodd" d="M5.43933 5.66534C5.52043 5.4694 5.65778 5.30193 5.834 5.18412C6.01022 5.0663 6.2174 5.00343 6.42933 5.00345H8.92933V1.07217C8.92933 0.787812 9.04222 0.515101 9.24315 0.314031C9.44408 0.11296 9.7166 0 10.0008 0C10.2849 0 10.5574 0.11296 10.7584 0.314031C10.9593 0.515101 11.0722 0.787812 11.0722 1.07217V5.00345H13.5722C13.784 5.00364 13.9909 5.06662 14.167 5.18445C14.343 5.30227 14.4802 5.46965 14.5612 5.66545C14.6422 5.86124 14.6634 6.07667 14.6221 6.28453C14.5809 6.49239 14.479 6.68335 14.3293 6.83329L10.7579 10.4072C10.557 10.608 10.2847 10.7207 10.0008 10.7207C9.71683 10.7207 9.44451 10.608 9.24362 10.4072L5.67219 6.83329C5.52234 6.68345 5.42025 6.49253 5.3788 6.28464C5.33736 6.07676 5.35842 5.86125 5.43933 5.66534Z" fill="black"/>
</g>
</g>
</svg>
