<svg width="24" height="24" viewBox="0 0 24 24" fill="none" xmlns="http://www.w3.org/2000/svg">
<path d="M10.4524 14.0633C11.4689 14.0633 12.3247 13.7156 13.0199 13.0201C13.7154 12.3248 14.0632 11.469 14.0632 10.4525C14.0632 9.43603 13.7154 8.58018 13.0199 7.88496C12.3247 7.18945 11.4689 6.84169 10.4524 6.84169C9.43591 6.84169 8.58006 7.18945 7.88484 7.88496C7.18932 8.58018 6.84157 9.43603 6.84157 10.4525C6.84157 11.469 7.18932 12.3248 7.88484 13.0201C8.58006 13.7156 9.43591 14.0633 10.4524 14.0633ZM18.0609 20.2533L13.9772 16.1266C13.4327 16.4419 12.8636 16.6926 12.2698 16.8789C11.6761 17.0652 11.0757 17.1583 10.4687 17.1583C8.59511 17.1583 7.00635 16.5079 5.70244 15.2072C4.39854 13.9064 3.74658 12.3231 3.74658 10.4572C3.74658 8.59136 4.39696 7.00647 5.69771 5.70256C6.99847 4.39866 8.58178 3.7467 10.4477 3.7467C12.3135 3.7467 13.8984 4.39937 15.2023 5.70471C16.5062 7.01005 17.1582 8.59881 17.1582 10.471C17.1582 11.0774 17.0651 11.6773 16.8788 12.2708C16.6925 12.864 16.4418 13.4329 16.1265 13.9774L20.2532 18.061L18.0609 20.2533Z" fill="#fff"/>
</svg>
