<svg width="35" height="34" viewBox="0 0 35 34" fill="none" xmlns="http://www.w3.org/2000/svg">
<g id="icon/service7" clip-path="url(#clip0_906_4088)">
<path id="Union" fill-rule="evenodd" clip-rule="evenodd" d="M3.76786 4.85693C2.80171 4.85693 1.87514 5.24073 1.19197 5.9239C0.5088 6.60707 0.125 7.53364 0.125 8.49979L0.125 25.4998C0.125 26.4659 0.5088 27.3925 1.19197 28.0757C1.87514 28.7588 2.80171 29.1426 3.76786 29.1426H21.9821C22.9483 29.1426 23.8749 28.7588 24.558 28.0757C25.2412 27.3925 25.625 26.4659 25.625 25.4998V23.6978L30.7396 25.8908C31.1093 26.0493 31.5127 26.1135 31.9133 26.0775C32.314 26.0416 32.6995 25.9067 33.0352 25.6849C33.3708 25.4632 33.6461 25.1615 33.8363 24.807C34.0266 24.4525 34.1258 24.0564 34.125 23.6541V10.3431C34.125 9.94119 34.0252 9.54561 33.8346 9.19178C33.6441 8.83795 33.3687 8.53694 33.0331 8.31574C32.6976 8.09454 32.3124 7.96007 31.9121 7.92437C31.5118 7.88868 31.1089 7.95288 30.7396 8.11122L25.625 10.3042V8.49979C25.625 8.0214 25.5308 7.5477 25.3477 7.10573C25.1646 6.66376 24.8963 6.26217 24.558 5.9239C24.2198 5.58563 23.8182 5.3173 23.3762 5.13423C22.9342 4.95116 22.4605 4.85693 21.9821 4.85693H3.76786Z" fill="white"/>
</g>
<defs>
<clipPath id="clip0_906_4088">
<rect width="34" height="34" fill="white" transform="translate(0.125)"/>
</clipPath>
</defs>
</svg>
