<svg width="37" height="37" viewBox="0 0 37 37" fill="none" xmlns="http://www.w3.org/2000/svg">
<path d="M16.5 26.2857C16.2048 26.2857 15.9524 26.1809 15.7429 25.9714C15.5333 25.7619 15.4286 25.5095 15.4286 25.2143C15.4286 24.919 15.5333 24.6666 15.7429 24.4571C15.9524 24.2476 16.2048 24.1428 16.5 24.1428H27.9286C28.2238 24.1428 28.4762 24.2476 28.6857 24.4571C28.8953 24.6666 29 24.919 29 25.2143C29 25.5095 28.8953 25.7619 28.6857 25.9714C28.4762 26.1809 28.2238 26.2857 27.9286 26.2857H16.5ZM16.5 19.5571C16.2048 19.5571 15.9524 19.4524 15.7429 19.2428C15.5333 19.0333 15.4286 18.7809 15.4286 18.4857C15.4286 18.1904 15.5333 17.9381 15.7429 17.7285C15.9524 17.519 16.2048 17.4143 16.5 17.4143H27.9286C28.2238 17.4143 28.4762 17.519 28.6857 17.7285C28.8953 17.9381 29 18.1904 29 18.4857C29 18.7809 28.8953 19.0333 28.6857 19.2428C28.4762 19.4524 28.2238 19.5571 27.9286 19.5571H16.5ZM16.5 12.8571C16.2048 12.8571 15.9524 12.7524 15.7429 12.5428C15.5333 12.3333 15.4286 12.0809 15.4286 11.7857C15.4286 11.4904 15.5333 11.2381 15.7429 11.0285C15.9524 10.819 16.2048 10.7143 16.5 10.7143H27.9286C28.2238 10.7143 28.4762 10.819 28.6857 11.0285C28.8953 11.2381 29 11.4904 29 11.7857C29 12.0809 28.8953 12.3333 28.6857 12.5428C28.4762 12.7524 28.2238 12.8571 27.9286 12.8571H16.5ZM11.1112 27.3857C10.5133 27.3857 10.0024 27.1727 9.57859 26.7468C9.15478 26.3211 8.94287 25.8092 8.94287 25.2111C8.94287 24.6132 9.15582 24.1024 9.58173 23.6785C10.0074 23.2547 10.5193 23.0428 11.1174 23.0428C11.7153 23.0428 12.2262 23.2558 12.65 23.6817C13.0738 24.1074 13.2857 24.6193 13.2857 25.2174C13.2857 25.8153 13.0728 26.3262 12.6469 26.75C12.2212 27.1738 11.7093 27.3857 11.1112 27.3857ZM11.1112 20.6571C10.5133 20.6571 10.0024 20.4442 9.57859 20.0183C9.15478 19.5925 8.94287 19.0806 8.94287 18.4825C8.94287 17.8846 9.15582 17.3738 9.58173 16.95C10.0074 16.5262 10.5193 16.3143 11.1174 16.3143C11.7153 16.3143 12.2262 16.5272 12.65 16.9531C13.0738 17.3788 13.2857 17.8907 13.2857 18.4888C13.2857 19.0867 13.0728 19.5976 12.6469 20.0214C12.2212 20.4452 11.7093 20.6571 11.1112 20.6571ZM11.1112 13.9571C10.5133 13.9571 10.0024 13.7442 9.57859 13.3183C9.15478 12.8925 8.94287 12.3806 8.94287 11.7825C8.94287 11.1846 9.15582 10.6738 9.58173 10.25C10.0074 9.82616 10.5193 9.61426 11.1174 9.61426C11.7153 9.61426 12.2262 9.82721 12.65 10.2531C13.0738 10.6788 13.2857 11.1907 13.2857 11.7888C13.2857 12.3867 13.0728 12.8976 12.6469 13.3214C12.2212 13.7452 11.7093 13.9571 11.1112 13.9571Z" fill="black"/>
</svg>
