<svg width="35" height="34" viewBox="0 0 35 34" fill="none" xmlns="http://www.w3.org/2000/svg">
<g id="icon/service6">
<g id="Vector">
<path d="M31.2321 23.0715C31.8762 23.0715 32.4939 23.3274 32.9494 23.7828C33.4048 24.2383 33.6607 24.856 33.6607 25.5001V30.3572C33.6607 31.0013 33.4048 31.619 32.9494 32.0745C32.4939 32.5299 31.8762 32.7858 31.2321 32.7858H4.51785C3.87375 32.7858 3.25603 32.5299 2.80059 32.0745C2.34514 31.619 2.08928 31.0013 2.08928 30.3572V25.5001C2.08928 24.856 2.34514 24.2383 2.80059 23.7828C3.25603 23.3274 3.87375 23.0715 4.51785 23.0715H31.2321Z" fill="white"/>
<path d="M17.875 1.21436C18.5191 1.21436 19.1368 1.47022 19.5923 1.92567C20.0477 2.38111 20.3036 2.99883 20.3036 3.64293V17.0001C20.3036 17.6442 20.0477 18.2619 19.5923 18.7173C19.1368 19.1728 18.5191 19.4286 17.875 19.4286H4.3527C3.70861 19.4286 3.09089 19.1728 2.63545 18.7173C2.18 18.2619 1.92413 17.6442 1.92413 17.0001V3.64293C1.92413 2.99883 2.18 2.38111 2.63545 1.92567C3.09089 1.47022 3.70861 1.21436 4.3527 1.21436H17.875Z" fill="white"/>
<path d="M32.4464 11.5358C32.7685 11.5358 33.0773 11.6637 33.305 11.8914C33.5328 12.1192 33.6607 12.428 33.6607 12.7501V18.2144C33.6607 18.3738 33.6293 18.5317 33.5683 18.679C33.5073 18.8264 33.4178 18.9602 33.305 19.073C33.1923 19.1857 33.0584 19.2752 32.9111 19.3362C32.7638 19.3972 32.6059 19.4286 32.4464 19.4286H25.1607C25.0012 19.4286 24.8433 19.3972 24.696 19.3362C24.5487 19.2752 24.4148 19.1857 24.3021 19.073C24.1893 18.9602 24.0999 18.8264 24.0389 18.679C23.9778 18.5317 23.9464 18.3738 23.9464 18.2144V12.7501C23.9464 12.428 24.0744 12.1192 24.3021 11.8914C24.5298 11.6637 24.8387 11.5358 25.1607 11.5358H32.4464Z" fill="white"/>
<path d="M32.4464 1.21436C32.7685 1.21436 33.0773 1.34229 33.305 1.57001C33.5328 1.79773 33.6607 2.10659 33.6607 2.42864V7.89293C33.6607 8.21498 33.5328 8.52383 33.305 8.75156C33.0773 8.97928 32.7685 9.10721 32.4464 9.10721H25.1607C24.8387 9.10721 24.5298 8.97928 24.3021 8.75156C24.0744 8.52383 23.9464 8.21498 23.9464 7.89293V2.42864C23.9464 2.10659 24.0744 1.79773 24.3021 1.57001C24.5298 1.34229 24.8387 1.21436 25.1607 1.21436H32.4464Z" fill="white"/>
</g>
</g>
</svg>
