<svg width="80" height="80" viewBox="0 0 80 80" fill="none" xmlns="http://www.w3.org/2000/svg">
<g id="service icon">
<g id="icon/service3" clip-path="url(#clip0_468_7690)">
<path id="Union" fill-rule="evenodd" clip-rule="evenodd" d="M25.8314 22.0771C23.7357 22.0771 22.0386 23.7743 22.0386 25.87V47.1871C22.0386 49.2829 23.7357 50.98 25.8314 50.98H47.1486C49.2443 50.98 50.944 49.2829 50.944 47.1871V25.87C50.9433 24.8638 50.5431 23.8991 49.8314 23.1879C49.1197 22.4767 48.1547 22.0771 47.1486 22.0771H25.8314ZM31.7354 41.7743V31.2829C31.7366 31.1076 31.784 30.9357 31.8729 30.7847C31.9617 30.6336 32.089 30.5087 32.2416 30.4226C32.3943 30.3364 32.567 30.2922 32.7422 30.2942C32.9175 30.2963 33.0891 30.3446 33.2397 30.4343L42.2243 35.6543C42.3754 35.7417 42.5008 35.8673 42.5881 36.0185C42.6753 36.1697 42.7212 36.3412 42.7212 36.5157C42.7212 36.6903 42.6753 36.8618 42.5881 37.013C42.5008 37.1642 42.3754 37.2898 42.2243 37.3771L33.2397 42.6229C33.0891 42.7125 32.9175 42.7609 32.7422 42.7629C32.567 42.765 32.3943 42.7207 32.2416 42.6346C32.089 42.5485 31.9617 42.4236 31.8729 42.2725C31.784 42.1214 31.7366 41.9496 31.7354 41.7743ZM57.964 31.0771C57.964 30.5657 57.7608 30.0751 57.3991 29.7134C57.0375 29.3518 56.5469 29.1486 56.0354 29.1486C55.5239 29.1486 55.0334 29.3518 54.6717 29.7134C54.3101 30.0751 54.1069 30.5657 54.1069 31.0771V53.572C54.1069 53.6472 54.092 53.7216 54.0632 53.7911C54.0343 53.8605 53.992 53.9235 53.9388 53.9766C53.8855 54.0296 53.8222 54.0716 53.7527 54.1001C53.6831 54.1287 53.6086 54.1432 53.5334 54.1429H31.0386C30.5271 54.1429 30.0365 54.3461 29.6749 54.7077C29.3132 55.0694 29.11 55.5599 29.11 56.0714C29.11 56.5829 29.3132 57.0735 29.6749 57.4351C30.0365 57.7968 30.5271 58 31.0386 58H53.5334C54.1149 58 54.6907 57.8855 55.228 57.6629C55.7652 57.4404 56.2533 57.1143 56.6645 56.7031C57.0757 56.2919 57.4018 55.8038 57.6244 55.2665C57.8469 54.7293 57.9614 54.1535 57.9614 53.572V31.0771H57.964Z" fill="white"/>
</g>
</g>
<defs>
<clipPath id="clip0_468_7690">
<rect width="36" height="36" fill="white" transform="translate(22 22)"/>
</clipPath>
</defs>
</svg>
