<svg width="66" height="66" viewBox="0 0 66 66" fill="none" xmlns="http://www.w3.org/2000/svg">
<g id="kakao2.svg" clip-path="url(#clip0_190_2557)">
<g id="Group">
<path id="Vector" d="M33 66C51.2254 66 66 51.2254 66 33C66 14.7746 51.2254 0 33 0C14.7746 0 0 14.7746 0 33C0 51.2254 14.7746 66 33 66Z" fill="#FFE500"/>
<path id="Vector_2" fill-rule="evenodd" clip-rule="evenodd" d="M30.698 41.219C30.698 41.219 32.215 41.382 33 41.382C40.29 41.382 46.2 36.551 46.2 30.591C46.2 24.631 40.29 19.8 33 19.8C25.71 19.8 19.8 24.632 19.8 30.59C19.8 34.285 22.07 37.546 25.533 39.491C25.533 39.491 25.065 42.072 22.448 44.545C22.448 44.545 22.189 45.017 22.966 44.841C23.743 44.665 28.569 42.899 30.698 41.219Z" fill="#493235"/>
</g>
</g>
<defs>
<clipPath id="clip0_190_2557">
<rect width="66" height="66" fill="white"/>
</clipPath>
</defs>
</svg>
