<svg width="32" height="32" viewBox="0 0 32 32" fill="none" xmlns="http://www.w3.org/2000/svg">
<path d="M16 25.7462C13.2222 25.7462 10.8611 24.7739 8.91667 22.8295C6.97222 20.885 6 18.5239 6 15.7462C6 12.9684 6.97222 10.6073 8.91667 8.66282C10.8611 6.71838 13.2222 5.74615 16 5.74615C17.5046 5.74615 18.8993 6.05865 20.184 6.68365C21.4688 7.30865 22.5741 8.14199 23.5 9.18366V5.74615H26V14.0795H17.6667V11.5795H22.2153C21.544 10.561 20.6644 9.75078 19.5764 9.14893C18.4884 8.54708 17.2963 8.24615 16 8.24615C13.9167 8.24615 12.1458 8.97532 10.6875 10.4337C9.22917 11.892 8.5 13.6628 8.5 15.7462C8.5 17.8295 9.22917 19.6003 10.6875 21.0587C12.1458 22.517 13.9167 23.2462 16 23.2462C17.9444 23.2462 19.6111 22.6038 21 21.3191C22.3889 20.0343 23.1875 18.4545 23.3958 16.5795H25.9653C25.7569 19.1721 24.7037 21.348 22.8056 23.1073C20.9074 24.8665 18.6389 25.7462 16 25.7462Z" fill="white"/>
</svg>
