<svg width="20" height="20" viewBox="0 0 20 20" fill="none" xmlns="http://www.w3.org/2000/svg">
<g clip-path="url(#clip0_325_495)">
<path d="M11.6943 17.3588C10.7137 18.3393 9.53523 18.8295 8.15873 18.8295C6.78223 18.8295 5.60371 18.3393 4.62319 17.3588C3.64267 16.3782 3.15241 15.1997 3.15241 13.8232C3.15241 12.4467 3.64267 11.2682 4.62319 10.2877L9.85578 5.05511C10.5629 4.348 11.4114 3.99445 12.4014 3.99445C13.3913 3.99445 14.2398 4.348 14.947 5.05511C15.6541 5.76221 16.0076 6.61074 16.0076 7.60069C16.0076 8.59064 15.6541 9.43917 14.947 10.1463L9.9972 15.096C9.56351 15.5297 9.04497 15.7466 8.44157 15.7466C7.83817 15.7466 7.31963 15.5297 6.88593 15.096C6.45224 14.6623 6.2354 14.1438 6.2354 13.5404C6.2354 12.937 6.45224 12.4184 6.88593 11.9848L12.1185 6.75216L13.2499 7.88353L8.01731 13.1161C7.89474 13.2387 7.83346 13.3801 7.83346 13.5404C7.83346 13.7007 7.89474 13.8421 8.01731 13.9647C8.13987 14.0872 8.28129 14.1485 8.44157 14.1485C8.60185 14.1485 8.74327 14.0872 8.86583 13.9647L13.8156 9.0149C14.2021 8.6095 14.3978 8.13573 14.4025 7.59362C14.4072 7.0515 14.2116 6.58246 13.8156 6.18648C13.4196 5.7905 12.9482 5.59251 12.4014 5.59251C11.8545 5.59251 11.3831 5.7905 10.9872 6.18648L5.75456 11.4191C5.07574 12.079 4.73869 12.8781 4.7434 13.8162C4.74812 14.7543 5.08517 15.558 5.75456 16.2274C6.41453 16.8874 7.20885 17.215 8.13751 17.2103C9.06618 17.2056 9.87464 16.8779 10.5629 16.2274L16.0783 10.712L17.2097 11.8433L11.6943 17.3588Z" fill="#9DACD3"/>
</g>
<defs>
<clipPath id="clip0_325_495">
<rect width="20" height="20" fill="white"/>
</clipPath>
</defs>
</svg>
