<svg width="35" height="34" viewBox="0 0 35 34" fill="none" xmlns="http://www.w3.org/2000/svg">
<g id="icon/service5">
<path id="Subtract" fill-rule="evenodd" clip-rule="evenodd" d="M13.5766 4.50242C13.5767 3.78203 13.769 3.07471 14.1337 2.45345C14.4984 1.8322 15.0223 1.31951 15.6513 0.968303C16.2803 0.617091 16.9916 0.440075 17.7118 0.455521C18.432 0.470967 19.1351 0.678315 19.7484 1.05617C20.3618 1.43402 20.8632 1.9687 21.2009 2.60502C21.5387 3.24133 21.7005 3.95625 21.6697 4.67599C21.6389 5.39572 21.4167 6.09421 21.0258 6.69937C20.635 7.30454 20.0898 7.79445 19.4464 8.11857V11.6886H26.125C27.7352 11.6886 29.2795 12.3282 30.4181 13.4668C31.5568 14.6055 32.1964 16.1498 32.1964 17.76V27.4743C32.1964 29.0845 31.5568 30.6288 30.4181 31.7674C29.2795 32.906 27.7352 33.5457 26.125 33.5457H9.12499C7.51474 33.5457 5.97045 32.906 4.83184 31.7674C3.69322 30.6288 3.05356 29.0845 3.05356 27.4743V17.76C3.05356 16.1498 3.69322 14.6055 4.83184 13.4668C5.97045 12.3282 7.51474 11.6886 9.12499 11.6886H15.8036V8.11857C15.1339 7.78119 14.571 7.26445 14.1778 6.62595C13.7846 5.98745 13.5764 5.25229 13.5766 4.50242ZM22.98 27.1488C23.1168 27.0037 23.2237 26.8331 23.2946 26.6467C23.3654 26.4603 23.3989 26.2617 23.393 26.0623C23.3872 25.863 23.3421 25.6667 23.2604 25.4848C23.1787 25.3029 23.062 25.1388 22.9168 25.002C22.7717 24.8652 22.6011 24.7583 22.4147 24.6874C22.2282 24.6165 22.0297 24.5831 21.8303 24.5889C21.631 24.5948 21.4347 24.6399 21.2528 24.7216C21.0709 24.8033 20.9068 24.92 20.77 25.0651C20.2236 25.648 19.053 26.0924 17.625 26.0924C16.197 26.0924 15.0264 25.6456 14.48 25.0651C14.3432 24.92 14.1791 24.8033 13.9972 24.7216C13.8152 24.6399 13.619 24.5948 13.4196 24.5889C13.2203 24.5831 13.0217 24.6165 12.8353 24.6874C12.6489 24.7583 12.4782 24.8652 12.3331 25.002C12.188 25.1388 12.0713 25.3029 11.9896 25.4848C11.9079 25.6667 11.8628 25.863 11.8569 26.0623C11.8511 26.2617 11.8845 26.4603 11.9554 26.6467C12.0263 26.8331 12.1332 27.0037 12.27 27.1488C13.6106 28.5696 15.7477 29.1281 17.625 29.1281C19.5023 29.1281 21.6394 28.5696 22.98 27.1488ZM12.8698 21.959C13.3529 21.959 13.8162 21.7671 14.1578 21.4255C14.4994 21.0839 14.6913 20.6206 14.6913 20.1376C14.6913 19.6545 14.4994 19.1912 14.1578 18.8496C13.8162 18.508 13.3529 18.3161 12.8698 18.3161C12.3868 18.3161 11.9235 18.508 11.5819 18.8496C11.2403 19.1912 11.0484 19.6545 11.0484 20.1376C11.0484 20.6206 11.2403 21.0839 11.5819 21.4255C11.9235 21.7671 12.3868 21.959 12.8698 21.959ZM24.2016 20.1376C24.2016 20.6206 24.0097 21.0839 23.6681 21.4255C23.3265 21.7671 22.8632 21.959 22.3801 21.959C21.8971 21.959 21.4338 21.7671 21.0922 21.4255C20.7506 21.0839 20.5587 20.6206 20.5587 20.1376C20.5587 19.6545 20.7506 19.1912 21.0922 18.8496C21.4338 18.508 21.8971 18.3161 22.3801 18.3161C22.8632 18.3161 23.3265 18.508 23.6681 18.8496C24.0097 19.1912 24.2016 19.6545 24.2016 20.1376Z" fill="white"/>
</g>
</svg>
