<svg width="28" height="28" viewBox="0 0 28 28" fill="none" xmlns="http://www.w3.org/2000/svg">
<path d="M5.16667 17.6667C4.83611 17.6667 4.55903 17.5549 4.33542 17.3312C4.11181 17.1076 4 16.8306 4 16.5C4 16.1694 4.11181 15.8924 4.33542 15.6687C4.55903 15.4451 4.83611 15.3333 5.16667 15.3333H11C11.3306 15.3333 11.6076 15.4451 11.8313 15.6687C12.0549 15.8924 12.1667 16.1694 12.1667 16.5C12.1667 16.8306 12.0549 17.1076 11.8313 17.3312C11.6076 17.5549 11.3306 17.6667 11 17.6667H5.16667ZM5.16667 13C4.83611 13 4.55903 12.8882 4.33542 12.6646C4.11181 12.441 4 12.1639 4 11.8333C4 11.5028 4.11181 11.2257 4.33542 11.0021C4.55903 10.7785 4.83611 10.6667 5.16667 10.6667H15.6667C15.9972 10.6667 16.2743 10.7785 16.4979 11.0021C16.7215 11.2257 16.8333 11.5028 16.8333 11.8333C16.8333 12.1639 16.7215 12.441 16.4979 12.6646C16.2743 12.8882 15.9972 13 15.6667 13H5.16667ZM5.16667 8.33333C4.83611 8.33333 4.55903 8.22153 4.33542 7.99792C4.11181 7.77431 4 7.49722 4 7.16667C4 6.83611 4.11181 6.55903 4.33542 6.33542C4.55903 6.11181 4.83611 6 5.16667 6H15.6667C15.9972 6 16.2743 6.11181 16.4979 6.33542C16.7215 6.55903 16.8333 6.83611 16.8333 7.16667C16.8333 7.49722 16.7215 7.77431 16.4979 7.99792C16.2743 8.22153 15.9972 8.33333 15.6667 8.33333H5.16667ZM14.5 23.5V21.575C14.5 21.4194 14.5292 21.2687 14.5875 21.1229C14.6458 20.9771 14.7333 20.8458 14.85 20.7292L20.9458 14.6625C21.1208 14.4875 21.3153 14.3611 21.5292 14.2833C21.7431 14.2056 21.9569 14.1667 22.1708 14.1667C22.4042 14.1667 22.6278 14.2104 22.8417 14.2979C23.0556 14.3854 23.25 14.5167 23.425 14.6917L24.5042 15.7708C24.6597 15.9458 24.7812 16.1403 24.8687 16.3542C24.9562 16.5681 25 16.7819 25 16.9958C25 17.2097 24.9611 17.4285 24.8833 17.6521C24.8056 17.8757 24.6792 18.075 24.5042 18.25L18.4375 24.3167C18.3208 24.4333 18.1896 24.5208 18.0437 24.5792C17.8979 24.6375 17.7472 24.6667 17.5917 24.6667H15.6667C15.3361 24.6667 15.059 24.5549 14.8354 24.3312C14.6118 24.1076 14.5 23.8306 14.5 23.5ZM16.25 22.9167H17.3583L20.8875 19.3583L20.3625 18.8042L19.8083 18.2792L16.25 21.8083V22.9167ZM20.3625 18.8042L19.8083 18.2792L20.8875 19.3583L20.3625 18.8042Z" fill="#F5F8FF"/>
</svg>
