<svg width="36" height="36" viewBox="0 0 36 36" fill="none" xmlns="http://www.w3.org/2000/svg">
<path d="M21.75 27C21.1313 27 20.6016 26.7797 20.1609 26.3391C19.7203 25.8984 19.5 25.3687 19.5 24.75V11.25C19.5 10.6313 19.7203 10.1016 20.1609 9.66094C20.6016 9.22031 21.1313 9 21.75 9H24.75C25.3687 9 25.8984 9.22031 26.3391 9.66094C26.7797 10.1016 27 10.6313 27 11.25V24.75C27 25.3687 26.7797 25.8984 26.3391 26.3391C25.8984 26.7797 25.3687 27 24.75 27H21.75ZM11.25 27C10.6313 27 10.1016 26.7797 9.66094 26.3391C9.22031 25.8984 9 25.3687 9 24.75V11.25C9 10.6313 9.22031 10.1016 9.66094 9.66094C10.1016 9.22031 10.6313 9 11.25 9H14.25C14.8688 9 15.3984 9.22031 15.8391 9.66094C16.2797 10.1016 16.5 10.6313 16.5 11.25V24.75C16.5 25.3687 16.2797 25.8984 15.8391 26.3391C15.3984 26.7797 14.8688 27 14.25 27H11.25ZM21.75 24.75H24.75V11.25H21.75V24.75ZM11.25 24.75H14.25V11.25H11.25V24.75Z" fill="#202020"/>
</svg>
