<svg width="16" height="18" viewBox="0 0 16 18" fill="none" xmlns="http://www.w3.org/2000/svg">
<g id="icon_file">
<path id="Vector (Stroke)" fill-rule="evenodd" clip-rule="evenodd" d="M10.2018 3.89352C10.0597 3.89359 9.91905 3.92193 9.78791 3.97692C9.65676 4.0319 9.53774 4.11244 9.43772 4.21388L9.43588 4.21481L3.82837 9.86803C3.54461 10.1588 3.3858 10.5499 3.38615 10.9572C3.38649 11.3644 3.54596 11.7553 3.83021 12.0456L5.40556 13.6557C5.61633 13.8707 5.88627 14.0174 6.18067 14.077C6.47507 14.1366 6.78047 14.1063 7.0576 13.99C7.2424 13.9129 7.40871 13.7987 7.54823 13.6557L7.551 13.6539L12.8148 8.31822C12.9443 8.18708 13.1203 8.11301 13.3042 8.11232C13.488 8.11162 13.6646 8.18435 13.7951 8.31451C13.9256 8.44466 13.9993 8.62158 14 8.80635C14.0007 8.99112 13.9283 9.16859 13.7988 9.29973L8.53779 14.6317L8.53594 14.6326C8.26726 14.9076 7.94676 15.126 7.59314 15.2751C7.23953 15.4242 6.85991 15.501 6.47643 15.501C6.09296 15.501 5.71333 15.4242 5.35972 15.2751C5.00611 15.126 4.68561 14.9076 4.41693 14.6326L2.8425 13.0233C2.3026 12.4722 2 11.7298 2 10.9563C2 10.1829 2.3026 9.44047 2.8425 8.8893L2.84527 8.88651L8.45371 3.23237C8.68259 3.00061 8.95486 2.81666 9.25481 2.69113C9.55476 2.5656 9.87646 2.50098 10.2014 2.50098C10.5263 2.50098 10.848 2.5656 11.1479 2.69113C11.4479 2.81666 11.7202 3.00061 11.949 3.23237H11.95L12.5746 3.86009V3.86102C12.8052 4.09091 12.9883 4.36441 13.1133 4.66575C13.2382 4.96709 13.3026 5.29031 13.3027 5.61678C13.3028 5.94325 13.2386 6.2665 13.1138 6.56791C12.989 6.86931 12.806 7.14291 12.5755 7.37292L12.5746 7.37385L7.60644 12.3845L7.60551 12.3854C7.45883 12.5339 7.28436 12.6517 7.09217 12.7321C6.89998 12.8125 6.69385 12.8539 6.48567 12.8539C6.27749 12.8539 6.07137 12.8125 5.87918 12.7321C5.68698 12.6517 5.51252 12.5339 5.36583 12.3854L5.36121 12.3798L5.05538 12.0641C4.90852 11.9165 4.7921 11.7411 4.71282 11.5481C4.63354 11.3552 4.59295 11.1484 4.59338 10.9396C4.59381 10.7308 4.63525 10.5242 4.71532 10.3315C4.7954 10.1389 4.91253 9.964 5.06 9.81695L8.3955 6.49263C8.52732 6.37006 8.70133 6.30371 8.88087 6.30756C9.0604 6.31141 9.23144 6.38515 9.35795 6.51325C9.48445 6.64134 9.55653 6.81379 9.559 6.99425C9.56147 7.17471 9.49414 7.34909 9.3712 7.48064L6.03571 10.8059C6.01774 10.8238 6.00349 10.8452 5.99376 10.8687C5.98403 10.8922 5.97902 10.9174 5.97902 10.9429C5.97902 10.9683 5.98403 10.9935 5.99376 11.017C6.00349 11.0405 6.01774 11.0619 6.03571 11.0798L6.04494 11.0891L6.3517 11.4048C6.36952 11.4227 6.39067 11.4368 6.41393 11.4464C6.43719 11.456 6.46211 11.4609 6.48725 11.4608C6.5124 11.4607 6.53728 11.4556 6.56047 11.4459C6.58366 11.4361 6.60472 11.4218 6.62242 11.4039V11.403L11.5952 6.38863L11.5979 6.38491C11.6987 6.28429 11.7786 6.16463 11.8332 6.03284C11.8877 5.90105 11.9158 5.75972 11.9158 5.61697C11.9158 5.47423 11.8877 5.3329 11.8332 5.2011C11.7786 5.06931 11.6987 4.94966 11.5979 4.84904L11.5961 4.84718L10.9678 4.21574L10.966 4.21388C10.8659 4.11244 10.7469 4.0319 10.6158 3.97692C10.4846 3.92193 10.3439 3.89359 10.2018 3.89352Z" fill="black"/>
</g>
</svg>
