<svg width="66" height="66" viewBox="0 0 66 66" fill="none" xmlns="http://www.w3.org/2000/svg">
<g id="List &#226;&#134;&#146; Item &#226;&#134;&#146; Link">
<rect width="66" height="66" rx="33" fill="#F1F1F1"/>
<path id="Vector" fill-rule="evenodd" clip-rule="evenodd" d="M34.7533 48.5404L35.7554 42.1856L35.8201 41.8335C35.8684 41.5273 36.0252 41.2472 36.2614 41.0454C36.4976 40.8437 36.7988 40.7325 37.1094 40.7325H37.9052C39.2317 40.7325 40.4503 40.5908 41.5275 40.3113C42.6767 40.0135 43.699 39.5494 44.5655 38.9332C45.4842 38.2799 46.2558 37.4352 46.8593 36.4233C47.4959 35.3558 47.9633 34.0705 48.2488 32.6037C48.5011 31.3083 48.5483 30.1487 48.3898 29.1566C48.2219 28.1085 47.8182 27.2143 47.19 26.4979C46.809 26.064 46.3215 25.6881 45.7412 25.3805L45.7274 25.3731L45.7271 25.3564C45.9298 24.0634 45.9221 22.9848 45.704 22.0564C45.4849 21.1259 45.0412 20.2886 44.3467 19.4972C42.9076 17.8574 40.2901 17.0258 36.5673 17.0258H26.343C26.0012 17.0258 25.6695 17.1481 25.4095 17.3703C25.1495 17.5924 24.9773 17.901 24.9237 18.2387L20.6664 45.2353C20.6276 45.4816 20.6983 45.7319 20.8604 45.9209C21.0226 46.1109 21.2585 46.2197 21.5078 46.2197H27.8508L27.8451 46.2499L27.4095 49.0121C27.376 49.2269 27.4376 49.4447 27.5787 49.6095C27.7198 49.7747 27.9251 49.8699 28.1423 49.8699H33.4623C33.7608 49.8699 34.05 49.763 34.2768 49.569C34.5037 49.375 34.6544 49.1059 34.701 48.8114L34.7533 48.5404Z" fill="#27346A"/>
<path id="Vector_2" fill-rule="evenodd" clip-rule="evenodd" d="M31.1084 25.3915C31.1757 24.9637 31.4501 24.6135 31.8197 24.4363C31.9879 24.3559 32.1755 24.311 32.3722 24.311H40.3864C41.336 24.311 42.2212 24.3733 43.0307 24.5036C43.2619 24.5408 43.4867 24.5837 43.7055 24.6323C43.9243 24.6809 44.1364 24.7348 44.3418 24.7951C44.4447 24.8249 44.5455 24.8564 44.645 24.8896C45.0424 25.0216 45.4123 25.1771 45.7527 25.3573C46.1541 22.7985 45.7501 21.0572 44.3659 19.4801C42.8421 17.7438 40.0893 17 36.5671 17H26.3428C25.6231 17 25.0103 17.5237 24.8981 18.2347L20.6408 45.2313C20.5567 45.764 20.9685 46.2455 21.5076 46.2455H27.8194L31.1084 25.3915Z" fill="#27346A"/>
<path id="Vector_3" fill-rule="evenodd" clip-rule="evenodd" d="M45.7529 25.3574C45.7224 25.5527 45.6886 25.7514 45.6484 25.9561C44.3004 32.8787 39.6874 35.2721 33.7957 35.2721H30.7956C30.0759 35.2721 29.4681 35.7961 29.3558 36.5071L27.384 49.0084C27.3107 49.4742 27.6708 49.8957 28.1423 49.8957H33.4627C34.0922 49.8957 34.6283 49.4376 34.7265 48.8154L34.7788 48.545L35.7809 42.1897L35.8456 41.8385C35.9438 41.2163 36.4798 40.7583 37.1094 40.7583H37.9052C43.0594 40.7583 47.0952 38.6642 48.2746 32.6083C48.7671 30.078 48.5124 27.9658 47.2094 26.4808C46.8154 26.0318 46.3249 25.6603 45.7529 25.3574Z" fill="#2790C3"/>
<path id="Vector_4" fill-rule="evenodd" clip-rule="evenodd" d="M44.3421 24.7951C44.1367 24.7348 43.9246 24.6809 43.7058 24.6323C43.487 24.5837 43.2622 24.5408 43.031 24.5036C42.2215 24.3733 41.3363 24.311 40.3867 24.311H32.3725C32.1758 24.311 31.9882 24.3559 31.82 24.4363C31.4504 24.6135 31.176 24.9637 31.1086 25.3915L29.4052 36.1918L29.356 36.5071C29.4682 35.7961 30.076 35.2721 30.7957 35.2721H33.7958C39.6875 35.2721 44.3005 32.8787 45.6485 25.9561C45.6887 25.7514 45.7225 25.5527 45.753 25.3574C45.4126 25.1771 45.0427 25.0216 44.6453 24.8896C44.5458 24.8564 44.445 24.825 44.3421 24.7951Z" fill="#1F264F"/>
</g>
</svg>
