<svg width="35" height="37" viewBox="0 0 35 37" fill="none" xmlns="http://www.w3.org/2000/svg">
<path d="M11.3325 26.646V10.3411C11.3325 9.98338 11.4543 9.69479 11.6978 9.47532C11.9416 9.2561 12.2246 9.14648 12.5468 9.14648C12.6443 9.14648 12.749 9.158 12.8609 9.18104C12.9725 9.20433 13.079 9.24445 13.1802 9.30141L25.9956 17.4938C26.1771 17.6277 26.3153 17.7783 26.4102 17.9456C26.5052 18.1127 26.5526 18.2975 26.5526 18.5C26.5526 18.7025 26.5052 18.8873 26.4102 19.0544C26.3153 19.2217 26.1771 19.3682 25.9956 19.4937L13.1802 27.6861C13.0784 27.7514 12.9714 27.7957 12.859 27.819C12.7466 27.842 12.6446 27.8535 12.5529 27.8535C12.2243 27.8535 11.9388 27.7439 11.6963 27.5247C11.4538 27.3052 11.3325 27.0123 11.3325 26.646ZM13.7373 24.474L23.1287 18.5L13.7373 12.5259V24.474Z" fill="black"/>
</svg>
