<svg width="35" height="34" viewBox="0 0 35 34" fill="none" xmlns="http://www.w3.org/2000/svg">
<g id="icon/service4" clip-path="url(#clip0_906_5986)">
<path id="Subtract" fill-rule="evenodd" clip-rule="evenodd" d="M3.91343 0.611816C1.95843 0.611816 0.375 2.19767 0.375 4.15267V22.5782C0.375 24.5308 1.95843 26.1142 3.91343 26.1142H13.6909L12.3916 29.7474H10.0893C9.60621 29.7474 9.14293 29.9393 8.80134 30.2809C8.45976 30.6225 8.26786 31.0857 8.26786 31.5688C8.26786 32.0519 8.45976 32.5152 8.80134 32.8568C9.14293 33.1983 9.60621 33.3902 10.0893 33.3902H24.6607C25.1438 33.3902 25.6071 33.1983 25.9487 32.8568C26.2902 32.5152 26.4821 32.0519 26.4821 31.5688C26.4821 31.0857 26.2902 30.6225 25.9487 30.2809C25.6071 29.9393 25.1438 29.7474 24.6607 29.7474H22.3584L21.0591 26.1142H30.8366C32.7916 26.1142 34.375 24.5308 34.375 22.5782V4.15025C34.375 2.19767 32.7916 0.611816 30.8366 0.611816H3.91343ZM12.5227 15.5087C12.2364 15.2423 11.8584 15.0968 11.4675 15.1023C11.0765 15.1078 10.7028 15.2639 10.4241 15.5382C10.1454 15.8125 9.98337 16.1837 9.97166 16.5746C9.95996 16.9654 10.0995 17.3456 10.3613 17.6361C11.8014 19.1054 14.2349 20.344 17.375 20.344C20.5127 20.344 22.9461 19.1054 24.3911 17.6361C24.5374 17.4955 24.654 17.3269 24.7341 17.1404C24.8141 16.954 24.8559 16.7533 24.8571 16.5504C24.8582 16.3475 24.8186 16.1464 24.7407 15.959C24.6628 15.7716 24.5481 15.6018 24.4034 15.4595C24.2587 15.3172 24.0869 15.2054 23.8982 15.1307C23.7096 15.056 23.5078 15.0198 23.3049 15.0244C23.1021 15.029 22.9022 15.0742 22.7171 15.1574C22.532 15.2406 22.3654 15.36 22.2273 15.5087C21.3554 16.3927 19.7016 17.3082 17.375 17.3082C15.046 17.3082 13.3921 16.3927 12.5227 15.5087ZM14.9853 9.72139C14.9943 9.97118 14.9529 10.2202 14.8636 10.4537C14.7742 10.6871 14.6387 10.9001 14.4652 11.08C14.2917 11.2599 14.0837 11.403 13.8536 11.5008C13.6236 11.5985 13.3762 11.6489 13.1262 11.6489C12.8763 11.6489 12.6289 11.5985 12.3988 11.5008C12.1688 11.403 11.9608 11.2599 11.7872 11.08C11.6137 10.9001 11.4782 10.6871 11.3889 10.4537C11.2995 10.2202 11.2581 9.97118 11.2671 9.72139C11.2915 9.24508 11.4979 8.79633 11.8436 8.46781C12.1894 8.1393 12.6481 7.95613 13.125 7.95613C13.6019 7.95613 14.0606 8.1393 14.4064 8.46781C14.7521 8.79633 14.9585 9.24508 14.9829 9.72139H14.9853ZM21.625 11.5792C21.8748 11.5883 22.1238 11.5469 22.3573 11.4575C22.5907 11.3682 22.8037 11.2327 22.9836 11.0591C23.1636 10.8856 23.3066 10.6776 23.4044 10.4476C23.5021 10.2175 23.5525 9.97013 23.5525 9.72017C23.5525 9.47022 23.5021 9.22283 23.4044 8.99278C23.3066 8.76272 23.1636 8.55473 22.9836 8.3812C22.8037 8.20768 22.5907 8.0722 22.3573 7.98283C22.1238 7.89347 21.8748 7.85207 21.625 7.8611C21.1436 7.87851 20.6877 8.08199 20.3532 8.42873C20.0188 8.77547 19.8319 9.23843 19.8319 9.72017C19.8319 10.2019 20.0188 10.6649 20.3532 11.0116C20.6877 11.3584 21.1436 11.5618 21.625 11.5792Z" fill="white"/>
</g>
<defs>
<clipPath id="clip0_906_5986">
<rect width="34" height="34" fill="white" transform="translate(0.375)"/>
</clipPath>
</defs>
</svg>
