<svg width="35" height="34" viewBox="0 0 35 34" fill="none" xmlns="http://www.w3.org/2000/svg">
<g id="icon/service8" clip-path="url(#clip0_906_9112)">
<path id="Subtract" fill-rule="evenodd" clip-rule="evenodd" d="M0.375 3.64286C0.375 2.67671 0.7588 1.75014 1.44197 1.06697C2.12514 0.3838 3.05171 0 4.01786 0L30.7321 0C31.6983 0 32.6249 0.3838 33.308 1.06697C33.9912 1.75014 34.375 2.67671 34.375 3.64286V30.3571C34.375 31.3233 33.9912 32.2499 33.308 32.933C32.6249 33.6162 31.6983 34 30.7321 34H4.01786C3.53947 34 3.06577 33.9058 2.6238 33.7227C2.18182 33.5396 1.78024 33.2713 1.44197 32.933C1.1037 32.5948 0.835367 32.1932 0.652296 31.7512C0.469225 31.3092 0.375 30.8355 0.375 30.3571L0.375 3.64286ZM12.4061 11.2831V23.0569C12.4074 23.2538 12.4606 23.4469 12.5605 23.6167C12.6604 23.7864 12.8034 23.9267 12.975 24.0233C13.1466 24.12 13.3407 24.1695 13.5377 24.167C13.7346 24.1645 13.9274 24.1099 14.0964 24.0089L24.175 18.1244C24.345 18.0264 24.4861 17.8854 24.5843 17.7155C24.6824 17.5456 24.7341 17.3528 24.7341 17.1566C24.7341 16.9604 24.6824 16.7677 24.5843 16.5978C24.4861 16.4279 24.345 16.2869 24.175 16.1889L14.0964 10.3311C13.9274 10.2301 13.7346 10.1755 13.5377 10.173C13.3407 10.1705 13.1466 10.22 12.975 10.3167C12.8034 10.4133 12.6604 10.5536 12.5605 10.7233C12.4606 10.8931 12.4074 11.0862 12.4061 11.2831Z" fill="white"/>
</g>
<defs>
<clipPath id="clip0_906_9112">
<rect width="34" height="34" fill="white" transform="translate(0.375)"/>
</clipPath>
</defs>
</svg>
