<svg width="25" height="25" viewBox="0 0 25 25" fill="none" xmlns="http://www.w3.org/2000/svg">
<path d="M12.0392 1C10.0424 1.00062 8.08311 1.54286 6.37006 2.56895C4.65703 3.59506 3.25438 5.06658 2.31152 6.82681C1.36866 8.58704 0.92091 10.5701 1.01595 12.5646C1.11098 14.5592 1.74525 16.4907 2.8512 18.1532L1 23.0785L7.19895 21.9576C8.69165 22.687 10.3297 23.0701 11.9911 23.0784C13.6524 23.0866 15.2942 22.7197 16.7941 22.0051C18.2939 21.2905 19.6132 20.2465 20.6533 18.9511C21.6935 17.6557 22.4281 16.1422 22.8018 14.5234C23.1757 12.9047 23.1794 11.2224 22.8126 9.602C22.4457 7.98161 21.718 6.46491 20.6834 5.16497C19.6489 3.86501 18.3342 2.81535 16.8375 2.0942C15.3408 1.37305 13.7006 0.999021 12.0392 1Z" stroke="black" stroke-width="2" stroke-linecap="round" stroke-linejoin="round"/>
<path d="M6.38519 13.7534C7.24234 16.8391 10.6709 18.7248 13.7566 17.8676C15.6423 17.1819 17.1852 15.6391 17.6996 13.7534" stroke="black" stroke-width="2" stroke-linecap="round" stroke-linejoin="round"/>
<path d="M8.18529 9.46762C7.94859 9.46762 7.75671 9.27574 7.75671 9.03905C7.75671 8.80235 7.94859 8.61047 8.18529 8.61047" stroke="black" stroke-width="2" stroke-linecap="round" stroke-linejoin="round"/>
<path d="M8.18529 9.46762C8.42198 9.46762 8.61386 9.27574 8.61386 9.03905C8.61386 8.80235 8.42198 8.61047 8.18529 8.61047" stroke="black" stroke-width="2" stroke-linecap="round" stroke-linejoin="round"/>
<path d="M15.8996 9.46762C15.6629 9.46762 15.471 9.27574 15.471 9.03905C15.471 8.80235 15.6629 8.61047 15.8996 8.61047" stroke="black" stroke-width="2" stroke-linecap="round" stroke-linejoin="round"/>
<path d="M15.8996 9.46762C16.1363 9.46762 16.3282 9.27574 16.3282 9.03905C16.3282 8.80235 16.1363 8.61047 15.8996 8.61047" stroke="black" stroke-width="2" stroke-linecap="round" stroke-linejoin="round"/>
</svg>
