<svg width="25" height="25" viewBox="0 0 25 25" fill="none" xmlns="http://www.w3.org/2000/svg">
<g id="Vector">
<path fill-rule="evenodd" clip-rule="evenodd" d="M2.70721 12.5254C2.70721 17.9478 7.10296 22.3436 12.5254 22.3436C17.9478 22.3436 22.3436 17.9478 22.3436 12.5254C22.3436 7.10296 17.9478 2.70721 12.5254 2.70721C7.10296 2.70721 2.70721 7.10296 2.70721 12.5254ZM12.5254 0.525391C5.89797 0.525391 0.525391 5.89797 0.525391 12.5254C0.525391 19.1528 5.89797 24.5254 12.5254 24.5254C19.1528 24.5254 24.5254 19.1528 24.5254 12.5254C24.5254 5.89797 19.1528 0.525391 12.5254 0.525391Z" fill="black"/>
<path d="M13.9447 12.7672C14.7327 12.7672 15.2253 12.1685 15.2253 11.2128C15.2253 10.2572 14.7327 9.65852 13.9447 9.65852H12.0073V12.7672H13.9447ZM10.3436 16.889V8.16175H13.9994C15.696 8.16175 16.889 9.41673 16.889 11.2128C16.889 13.009 15.696 14.2639 13.9994 14.2639H12.0073V16.889H10.3436Z" fill="black"/>
</g>
</svg>
