<svg width="80" height="80" viewBox="0 0 80 80" fill="none" xmlns="http://www.w3.org/2000/svg">
<g id="service icon">
<path id="Vector" fill-rule="evenodd" clip-rule="evenodd" d="M57.5107 30.8887C57.8337 30.1087 58 29.2728 58 28.4286C58 26.7236 57.3227 25.0885 56.1171 23.8829C54.9115 22.6773 53.2764 22 51.5714 22C49.8665 22 48.2313 22.6773 47.0257 23.8829C45.8202 25.0885 45.1429 26.7236 45.1429 28.4286C45.1429 29.2728 45.3091 30.1087 45.6322 30.8887C45.9553 31.6686 46.4288 32.3773 47.0257 32.9743C47.6227 33.5712 48.3314 34.0447 49.1113 34.3678C49.8913 34.6909 50.7272 34.8571 51.5714 34.8571C52.4156 34.8571 53.2516 34.6909 54.0315 34.3678C54.8115 34.0447 55.5202 33.5712 56.1171 32.9743C56.7141 32.3773 57.1876 31.6686 57.5107 30.8887ZM41.9286 28.4286H27.1429C25.7789 28.4286 24.4708 28.9704 23.5063 29.9349C22.5418 30.8994 22 32.2075 22 33.5714V52.8571C22 54.2211 22.5418 55.5292 23.5063 56.4937C24.4708 57.4582 25.7789 58 27.1429 58H46.4286C47.7925 58 49.1006 57.4582 50.0651 56.4937C51.0296 55.5292 51.5714 54.2211 51.5714 52.8571V38.0714C49.014 38.0714 46.5613 37.0555 44.7529 35.2471C42.9445 33.4387 41.9286 30.986 41.9286 28.4286ZM29.2593 46.492V40.84H27.8913V47.662H32.4183V46.492H29.2593ZM33.5894 42.829H34.9574V47.662H33.5894V42.829ZM39.1228 47.662L41.2558 42.757H39.7528L38.5468 45.943L37.3858 42.757H35.9008L37.9708 47.662H39.1228ZM41.5103 45.232C41.5103 43.783 42.4913 42.766 43.8953 42.766C45.4369 42.766 45.9434 44.034 45.9653 44.089C46.2229 44.5962 46.1962 45.2659 46.1846 45.5581C46.1828 45.6029 46.1813 45.6389 46.1813 45.664H42.7523C42.8513 46.222 43.4093 46.582 43.9043 46.582C44.6243 46.582 44.8583 46.177 44.8583 46.177L45.9743 46.591C45.9743 46.591 45.5153 47.68 43.8953 47.68C42.4913 47.68 41.5103 46.672 41.5103 45.232ZM43.8953 43.855C44.5163 43.855 44.8853 44.332 44.9753 44.728H42.7523C42.8513 44.287 43.2923 43.855 43.8953 43.855ZM34.2734 40.651C33.8594 40.651 33.5624 40.948 33.5624 41.362C33.5624 41.776 33.8594 42.073 34.2734 42.073C34.6874 42.073 34.9844 41.776 34.9844 41.362C34.9844 40.948 34.6874 40.651 34.2734 40.651Z" fill="white"/>
</g>
<defs>
<clipPath id="clip0_468_7685">
<rect width="36" height="36" fill="white" transform="translate(22 22)"/>
</clipPath>
</defs>
</svg>
