<svg width="22" height="16" viewBox="0 0 22 16" fill="none" xmlns="http://www.w3.org/2000/svg">
<g id="Vector">
<path d="M7.25 8.04626C7.25 8.86966 7.5208 9.66514 8.01308 10.3136L13.6893 5.43282C13.6769 5.42 13.6643 5.40727 13.6517 5.39461C12.9484 4.69135 11.9946 4.29626 11 4.29626C10.0054 4.29626 9.05161 4.69135 8.34835 5.39461C7.64509 6.09788 7.25 7.0517 7.25 8.04626Z" fill="#D9D9D9"/>
<path d="M13.6517 10.6979C14.3549 9.99465 14.75 9.04083 14.75 8.04626C14.75 7.0696 14.369 6.13222 13.6893 5.43282L8.01308 10.3136C8.11542 10.4484 8.22732 10.5769 8.34835 10.6979C9.05161 11.4012 10.0054 11.7963 11 11.7963C11.9946 11.7963 12.9484 11.4012 13.6517 10.6979Z" fill="#D9D9D9"/>
<path d="M11 14.2963V13.2963L10.9947 13.2963L11 14.2963ZM21 8.04626L21.9354 8.39979C22.0224 8.16965 22.0215 7.91553 21.9329 7.68602L21 8.04626ZM18.7425 4.72501L18.061 5.4568L18.0643 5.45985L18.7425 4.72501ZM16.3062 3.03251L16.7542 2.13846L16.7522 2.13747L16.3062 3.03251ZM11 1.79626V2.79627L11.0045 2.79625L11 1.79626ZM1 8.04626L0.0644687 7.69302C-0.0214442 7.92055 -0.0214911 8.1716 0.0643371 8.39916L1 8.04626ZM5.38625 12.9L4.90784 13.7782L4.91312 13.781L5.38625 12.9ZM14.75 8.04626H15.75H14.75ZM11 4.29626V3.29626V4.29626ZM13.6517 5.39461L14.3588 4.68752L14.3588 4.68751L13.6517 5.39461ZM19.152 2.0545C19.5707 1.69442 19.6183 1.06304 19.2582 0.644283C18.8982 0.225521 18.2668 0.177951 17.848 0.53803L19.152 2.0545ZM2.25552 13.9455C1.83676 14.3056 1.78919 14.937 2.14927 15.3557C2.50935 15.7745 3.14072 15.8221 3.55948 15.462L2.25552 13.9455ZM11 15.2963C16.0272 15.2963 20.3971 12.4703 21.9354 8.39979L20.0646 7.69274C18.8629 10.8723 15.3228 13.2963 11 13.2963V15.2963ZM21.9329 7.68602C21.3892 6.27815 20.5298 5.01377 19.4207 3.99017L18.0643 5.45985C18.9485 6.27596 19.6337 7.28403 20.0671 8.40651L21.9329 7.68602ZM19.424 3.99323C18.627 3.25093 17.728 2.62636 16.7542 2.13846L15.8583 3.92657C16.6617 4.32909 17.4034 4.84438 18.061 5.4568L19.424 3.99323ZM16.7522 2.13747C14.9645 1.2467 12.9929 0.787346 10.9955 0.796274L11.0045 2.79625C12.6892 2.78872 14.3523 3.17619 15.8603 3.92756L16.7522 2.13747ZM11 0.796264C5.97306 0.796264 1.60158 3.62213 0.0644687 7.69302L1.93553 8.39951C3.13592 5.2204 6.67694 2.79626 11 2.79626V0.796264ZM0.0643371 8.39916C0.922709 10.675 2.67262 12.5604 4.90785 13.7782L5.86465 12.0219C3.99738 11.0046 2.60479 9.46749 1.93566 7.69337L0.0643371 8.39916ZM4.91312 13.781C6.78557 14.7866 8.87994 15.3075 11.0053 15.2963L10.9947 13.2963C9.20316 13.3058 7.43774 12.8667 5.85938 12.019L4.91312 13.781ZM13.75 8.04626C13.75 8.77561 13.4603 9.47509 12.9445 9.99081L14.3588 11.405C15.2496 10.5142 15.75 9.30604 15.75 8.04626H13.75ZM12.9445 9.99081C12.4288 10.5065 11.7293 10.7963 11 10.7963V12.7963C12.2598 12.7963 13.468 12.2958 14.3588 11.405L12.9445 9.99081ZM11 10.7963C10.2707 10.7963 9.57118 10.5065 9.05546 9.99081L7.64124 11.405C8.53204 12.2958 9.74022 12.7963 11 12.7963V10.7963ZM8.25 8.04626C8.25 7.31692 8.53973 6.61745 9.05546 6.10172L7.64124 4.68751C6.75044 5.57831 6.25 6.78649 6.25 8.04626H8.25ZM9.05546 6.10172C9.57118 5.586 10.2707 5.29626 11 5.29626V3.29626C9.74022 3.29626 8.53204 3.79671 7.64124 4.68751L9.05546 6.10172ZM11 5.29626C11.7293 5.29626 12.4288 5.586 12.9445 6.10172L14.3588 4.68751C13.468 3.79671 12.2598 3.29626 11 3.29626V5.29626ZM6.25 8.04626C6.25 9.08927 6.59303 10.0969 7.21659 10.9183L8.80958 9.70899C8.44857 9.23343 8.25 8.65005 8.25 8.04626H6.25ZM8.66507 11.0719L14.3413 6.19105L13.0373 4.67459L7.3611 9.5554L8.66507 11.0719ZM14.4064 4.73588C14.3907 4.71965 14.3748 4.70352 14.3588 4.68752L12.9445 6.10171C12.9538 6.11101 12.9631 6.12036 12.9722 6.12976L14.4064 4.73588ZM12.9722 6.12975C13.4706 6.64263 13.75 7.33005 13.75 8.04626H15.75C15.75 6.80915 15.2674 5.6218 14.4065 4.73589L12.9722 6.12975ZM17.848 0.53803L13.0373 4.67459L14.3413 6.19105L19.152 2.0545L17.848 0.53803ZM7.3611 9.5554L2.25552 13.9455L3.55948 15.462L8.66507 11.0719L7.3611 9.5554ZM9.05546 9.99081C8.96666 9.90202 8.88461 9.80782 8.80958 9.70899L7.21659 10.9183C7.34623 11.0891 7.48797 11.2518 7.64124 11.405L9.05546 9.99081Z" fill="#CCCCCC"/>
</g>
</svg>
