<svg width="28" height="28" viewBox="0 0 28 28" fill="none" xmlns="http://www.w3.org/2000/svg">
<path d="M14.0002 25.6668C12.3863 25.6668 10.8696 25.3606 9.45016 24.7481C8.03072 24.1356 6.796 23.3043 5.746 22.2543C4.696 21.2043 3.86475 19.9696 3.25225 18.5502C2.63975 17.1307 2.3335 15.6141 2.3335 14.0002C2.3335 12.3863 2.63975 10.8696 3.25225 9.45016C3.86475 8.03072 4.696 6.796 5.746 5.746C6.796 4.696 8.03072 3.86475 9.45016 3.25225C10.8696 2.63975 12.3863 2.3335 14.0002 2.3335C15.6141 2.3335 17.1307 2.63975 18.5502 3.25225C19.9696 3.86475 21.2043 4.696 22.2543 5.746C23.3043 6.796 24.1356 8.03072 24.7481 9.45016C25.3606 10.8696 25.6668 12.3863 25.6668 14.0002C25.6668 15.6141 25.3606 17.1307 24.7481 18.5502C24.1356 19.9696 23.3043 21.2043 22.2543 22.2543C21.2043 23.3043 19.9696 24.1356 18.5502 24.7481C17.1307 25.3606 15.6141 25.6668 14.0002 25.6668ZM14.0002 23.3335C16.6057 23.3335 18.8127 22.4293 20.621 20.621C22.4293 18.8127 23.3335 16.6057 23.3335 14.0002C23.3335 11.3946 22.4293 9.18766 20.621 7.37933C18.8127 5.571 16.6057 4.66683 14.0002 4.66683C11.3946 4.66683 9.18766 5.571 7.37933 7.37933C5.571 9.18766 4.66683 11.3946 4.66683 14.0002C4.66683 16.6057 5.571 18.8127 7.37933 20.621C9.18766 22.4293 11.3946 23.3335 14.0002 23.3335Z" fill="#29344B"/>
<path d="M15.1668 15.1668H19.8335V12.8335H15.1668H8.16683V15.1668H15.1668Z" fill="#29344B"/>
</svg>
