<svg width="16" height="18" viewBox="0 0 16 18" fill="none" xmlns="http://www.w3.org/2000/svg">
<path id="Subtract" fill-rule="evenodd" clip-rule="evenodd" d="M16 12.0834C16 15.6922 12.6675 17.3145 8.00062 17.3145C3.33369 17.3145 0 15.6922 0 12.1089C0 8.67853 1.52882 6.72719 4.58646 4.96285C5.57186 5.68917 6.77133 6.08148 8.00392 6.0806C9.23652 6.07972 10.4354 5.68571 11.4197 4.95799C14.4737 6.70412 16 8.65546 16 12.0834ZM10.1583 3.96714L11.7304 1.55681C11.7987 1.42893 11.8326 1.28609 11.8289 1.14179C11.8252 0.997489 11.784 0.8565 11.7093 0.732151C11.6346 0.607801 11.5287 0.504198 11.4018 0.431136C11.2749 0.358074 11.1311 0.317967 10.984 0.314606H5.33045C5.17364 0.311689 5.01896 0.350571 4.88291 0.427108C4.74686 0.503644 4.63454 0.614965 4.55792 0.749199C4.4813 0.883434 4.44325 1.03555 4.44785 1.18933C4.45244 1.3431 4.49949 1.49277 4.58398 1.62238L5.88008 3.99022C7.1935 4.76128 8.85106 4.75399 10.1583 3.96714Z" fill="white"/>
</svg>
