<svg width="17" height="17" viewBox="0 0 17 17" fill="none" xmlns="http://www.w3.org/2000/svg">
<path d="M8.37011 14.293H9.58024V10.7037L11.0325 12.1464L11.8956 11.2865L8.95291 8.39484L6.03565 11.3121L6.89877 12.175L8.37011 10.7037V14.293ZM4.15349 16.5317C3.82712 16.5317 3.54381 16.4117 3.30355 16.1715C3.06342 15.9314 2.94336 15.6481 2.94336 15.3216V2.71013C2.94336 2.38363 3.06342 2.10032 3.30355 1.86019C3.54381 1.62006 3.82712 1.5 4.15349 1.5H10.7395L14.9434 5.69427V15.3216C14.9434 15.6481 14.8233 15.9314 14.5832 16.1715C14.3429 16.4117 14.0596 16.5317 13.7332 16.5317H4.15349ZM10.1409 6.26427V2.71013H4.15349V15.3216H13.7332V6.26427H10.1409Z" fill="#202020"/>
</svg>
