<svg width="35" height="34" viewBox="0 0 35 34" fill="none" xmlns="http://www.w3.org/2000/svg">
<g id="icon/service3" clip-path="url(#clip0_906_7112)">
<path id="Union" fill-rule="evenodd" clip-rule="evenodd" d="M3.74357 0.0727539C1.76429 0.0727539 0.161428 1.67561 0.161428 3.6549V23.7878C0.161428 25.767 1.76429 27.3699 3.74357 27.3699H23.8764C25.8557 27.3699 27.461 25.767 27.461 23.7878V3.6549C27.4604 2.70463 27.0824 1.7935 26.4102 1.12179C25.7381 0.450079 24.8267 0.0727537 23.8764 0.0727539H3.74357ZM9.31957 18.6756V8.76704C9.32064 8.6015 9.36542 8.43919 9.44937 8.29651C9.53331 8.15384 9.65346 8.03587 9.79764 7.95454C9.94182 7.8732 10.1049 7.83139 10.2704 7.83334C10.436 7.83528 10.5981 7.88091 10.7403 7.96561L19.2257 12.8956C19.3684 12.9782 19.4869 13.0968 19.5693 13.2396C19.6516 13.3824 19.695 13.5443 19.695 13.7092C19.695 13.874 19.6516 14.036 19.5693 14.1788C19.4869 14.3216 19.3684 14.4402 19.2257 14.5228L10.7403 19.477C10.5981 19.5617 10.436 19.6074 10.2704 19.6093C10.1049 19.6113 9.94182 19.5694 9.79764 19.4881C9.65346 19.4068 9.53331 19.2888 9.44937 19.1461C9.36542 19.0035 9.32064 18.8411 9.31957 18.6756ZM34.091 8.57275C34.091 8.08968 33.8991 7.62639 33.5575 7.28481C33.2159 6.94322 32.7526 6.75132 32.2696 6.75132C31.7865 6.75132 31.3232 6.94322 30.9816 7.28481C30.64 7.62639 30.4481 8.08968 30.4481 8.57275V29.8179C30.4481 29.8889 30.4341 29.9592 30.4069 30.0248C30.3796 30.0903 30.3397 30.1499 30.2894 30.2C30.2391 30.2501 30.1793 30.2897 30.1136 30.3167C30.0479 30.3436 29.9776 30.3574 29.9066 30.357H8.66143C8.17836 30.357 7.71507 30.5489 7.37348 30.8905C7.0319 31.2321 6.84 31.6954 6.84 32.1785C6.84 32.6615 7.0319 33.1248 7.37348 33.4664C7.71507 33.808 8.17836 33.9999 8.66143 33.9999H29.9066C30.4558 33.9999 30.9996 33.8917 31.507 33.6816C32.0143 33.4714 32.4754 33.1634 32.8637 32.775C33.252 32.3867 33.5601 31.9257 33.7702 31.4183C33.9804 30.9109 34.0886 30.3671 34.0886 29.8179V8.57275H34.091Z" fill="white"/>
</g>
<defs>
<clipPath id="clip0_906_7112">
<rect width="34" height="34" fill="white" transform="translate(0.125)"/>
</clipPath>
</defs>
</svg>
