<svg width="80" height="80" viewBox="0 0 80 80" fill="none" xmlns="http://www.w3.org/2000/svg">
<g id="service icon">
<g id="icon/service6">
<g id="Vector">
<path d="M54.1433 46.4286C54.8253 46.4286 55.4794 46.6995 55.9616 47.1818C56.4438 47.664 56.7148 48.3181 56.7148 49.0001V54.1429C56.7148 54.8249 56.4438 55.4789 55.9616 55.9612C55.4794 56.4434 54.8253 56.7143 54.1433 56.7143H25.8576C25.1756 56.7143 24.5216 56.4434 24.0393 55.9612C23.5571 55.4789 23.2862 54.8249 23.2862 54.1429V49.0001C23.2862 48.3181 23.5571 47.664 24.0393 47.1818C24.5216 46.6995 25.1756 46.4286 25.8576 46.4286H54.1433Z" fill="white"/>
<path d="M40.0005 23.2858C40.6825 23.2858 41.3365 23.5567 41.8187 24.0389C42.301 24.5212 42.5719 25.1752 42.5719 25.8572V40.0001C42.5719 40.682 42.301 41.3361 41.8187 41.8183C41.3365 42.3006 40.6825 42.5715 40.0005 42.5715H25.6828C25.0008 42.5715 24.3467 42.3006 23.8645 41.8183C23.3822 41.3361 23.1113 40.682 23.1113 40.0001V25.8572C23.1113 25.1752 23.3822 24.5212 23.8645 24.0389C24.3467 23.5567 25.0008 23.2858 25.6828 23.2858H40.0005Z" fill="white"/>
<path d="M55.429 34.2143C55.77 34.2143 56.0971 34.3498 56.3382 34.5909C56.5793 34.832 56.7148 35.1591 56.7148 35.5001V41.2858C56.7148 41.4546 56.6815 41.6218 56.6169 41.7778C56.5523 41.9338 56.4576 42.0755 56.3382 42.1949C56.2188 42.3143 56.0771 42.409 55.9211 42.4736C55.7651 42.5382 55.5979 42.5715 55.429 42.5715H47.7148C47.5459 42.5715 47.3787 42.5382 47.2227 42.4736C47.0667 42.409 46.925 42.3143 46.8056 42.1949C46.6862 42.0755 46.5915 41.9338 46.5269 41.7778C46.4623 41.6218 46.429 41.4546 46.429 41.2858V35.5001C46.429 35.1591 46.5645 34.832 46.8056 34.5909C47.0467 34.3498 47.3738 34.2143 47.7148 34.2143H55.429Z" fill="white"/>
<path d="M55.429 23.2858C55.77 23.2858 56.0971 23.4212 56.3382 23.6623C56.5793 23.9035 56.7148 24.2305 56.7148 24.5715V30.3572C56.7148 30.6982 56.5793 31.0252 56.3382 31.2663C56.0971 31.5075 55.77 31.6429 55.429 31.6429H47.7148C47.3738 31.6429 47.0467 31.5075 46.8056 31.2663C46.5645 31.0252 46.429 30.6982 46.429 30.3572V24.5715C46.429 24.2305 46.5645 23.9035 46.8056 23.6623C47.0467 23.4212 47.3738 23.2858 47.7148 23.2858H55.429Z" fill="white"/>
</g>
</g>
</g>
</svg>
