<svg width="42" height="14" viewBox="0 0 42 14" fill="none" xmlns="http://www.w3.org/2000/svg">
<g id="&#225;&#132;&#143;&#225;&#133;&#161;&#225;&#132;&#143;&#225;&#133;&#161;&#225;&#132;&#139;&#225;&#133;&#169;&#225;&#132;&#145;&#225;&#133;&#166;&#225;&#132;&#139;&#225;&#133;&#181;_CI_combination 1" clip-path="url(#clip0_608_6830)">
<g id="Group">
<g id="Group_2">
<g id="Group_3">
<path id="Vector" fill-rule="evenodd" clip-rule="evenodd" d="M6.40529 0.5C2.86629 0.5 0 2.79412 0 5.58823C0 7.41176 1.19916 9 2.98329 9.91176L2.36908 12.1765C2.33983 12.2353 2.36908 12.3235 2.42758 12.3824C2.45682 12.4118 2.51532 12.4412 2.54457 12.4412C2.57382 12.4412 2.63231 12.4118 2.66156 12.4118L5.26462 10.6471C5.64485 10.7059 6.02507 10.7353 6.43454 10.7353C9.97354 10.7353 12.8398 8.44118 12.8398 5.64706C12.8398 2.79412 9.97354 0.5 6.40529 0.5Z" fill="black"/>
</g>
</g>
<path id="Vector_2" d="M18.251 9.8237V13.1178H15.9111V0.970761H17.549L17.8415 1.73547C18.3387 1.23547 19.0992 0.706055 20.2983 0.706055C22.5797 0.706055 23.6618 2.41194 23.6618 5.20606C23.6618 8.11782 21.9947 9.97076 19.5964 9.97076C19.1284 10.0002 18.7774 9.97076 18.251 9.8237ZM18.251 2.94135V8.17664C18.368 8.20605 18.6897 8.23547 19.0114 8.23547C20.6785 8.23547 21.322 7.059 21.322 5.20606C21.322 3.58841 20.8833 2.61782 19.5671 2.61782C19.0992 2.61782 18.6312 2.76488 18.251 2.94135Z" fill="black"/>
<path id="Vector_3" d="M28.7215 4.41171H30.0376V4.11759C30.0376 3.147 29.4819 2.70582 28.546 2.70582C27.8148 2.70582 26.9081 2.91171 26.1477 3.29406L25.5042 1.73524C26.3231 1.147 27.61 0.764648 28.7507 0.764648C30.9736 0.764648 32.202 1.94112 32.202 4.20582V9.76465H30.5641L30.3301 9.02935C29.3942 9.70582 28.5167 9.99994 27.7563 9.99994C26.0599 9.99994 25.0947 8.97053 25.0947 7.23524C25.0947 5.3823 26.3524 4.41171 28.7215 4.41171ZM30.0376 7.49994V5.8823H28.9554C27.7563 5.8823 27.1421 6.32347 27.1421 7.17641C27.1421 7.82347 27.4638 8.147 28.1658 8.147C28.8385 8.17641 29.6574 7.85288 30.0376 7.49994Z" fill="black"/>
<path id="Vector_4" d="M39.2803 8.85334C38.4614 11.0298 37.4962 12.618 36.063 13.5004L34.6299 12.1769C35.4488 11.4416 36.063 10.7357 36.5602 9.79452L33.46 1.29452L35.7705 0.676873L37.7594 7.55923L39.719 0.647461L42.0004 1.29452L39.2803 8.85334Z" fill="black"/>
</g>
</g>
<defs>
<clipPath id="clip0_608_6830">
<rect width="42" height="13" fill="white" transform="translate(0 0.5)"/>
</clipPath>
</defs>
</svg>
