<svg width="240" height="182" viewBox="0 0 240 182" fill="none" xmlns="http://www.w3.org/2000/svg">
<path id="Vector" d="M176.716 3.66769C173.321 1.20027 169.142 -0.0917491 164.87 0.00507132H18.7739C13.7948 0.00507132 9.01956 1.88635 5.49876 5.23506C1.97796 8.58376 0 13.1256 0 17.8614L0.000891233 164.144C0.000891233 166.489 0.486493 168.811 1.42997 170.977C2.37345 173.143 3.75633 175.112 5.49965 176.77C7.24297 178.428 9.3126 179.743 11.5904 180.641C13.8681 181.538 16.3094 182 18.7748 182H221.226C226.205 182 230.98 180.119 234.501 176.77C238.022 173.421 240 168.879 240 164.144L239.999 41.6698C239.999 39.3248 239.514 37.0029 238.57 34.8364C237.627 32.67 236.244 30.7016 234.5 29.0435C232.757 27.3853 230.687 26.0701 228.41 25.1727C226.132 24.2753 223.691 23.8135 221.225 23.8135H196.82C190.583 23.8135 185.13 19.6083 183.544 13.5759C182.52 9.6303 180.111 6.13511 176.716 3.66769Z" fill="url(#paint0_linear_73_553)"/>
<defs>
<linearGradient id="paint0_linear_73_553" x1="120" y1="0" x2="120" y2="182" gradientUnits="userSpaceOnUse">
<stop stop-color="#EDF6FE"/>
<stop offset="1" stop-color="#F5EDFE"/>
</linearGradient>
</defs>
</svg>
