<svg width="174" height="162" viewBox="0 0 174 162" fill="none" xmlns="http://www.w3.org/2000/svg">
<path id="Vector" d="M119.531 0.503839V0.503979L119.543 0.503699C122.527 0.433076 125.446 1.37554 127.817 3.17479C130.188 4.97398 131.869 7.52207 132.584 10.3977L132.585 10.3991C133.787 15.1776 138.084 18.527 143.012 18.527H160.388C162.111 18.527 163.816 18.8639 165.407 19.5184C166.998 20.1728 168.443 21.132 169.66 22.3409C170.878 23.5499 171.843 24.9849 172.502 26.564C173.16 28.1431 173.499 29.8354 173.499 31.5444L173.5 148.483C173.5 151.934 172.12 155.245 169.661 157.686C167.203 160.128 163.867 161.5 160.389 161.5H13.6118C11.8895 161.5 10.1842 161.163 8.59323 160.509C7.00226 159.854 5.5569 158.895 4.33958 157.686C3.12226 156.477 2.15682 155.042 1.4982 153.463C0.839585 151.884 0.500646 150.192 0.500646 148.483L0.5 13.5212C0.5 10.0699 1.8805 6.75926 4.33893 4.31776C6.79748 1.87614 10.1327 0.503839 13.6111 0.503839H119.531Z" fill="url(#paint0_linear_439_2388)" fill-opacity="0.7" stroke="white"/>
<defs>
<linearGradient id="paint0_linear_439_2388" x1="-3.08098e-06" y1="6.00766" x2="113.084" y2="167.195" gradientUnits="userSpaceOnUse">
<stop stop-color="#F8EEFD"/>
<stop offset="1" stop-color="#FEF5EC"/>
</linearGradient>
</defs>
</svg>
