<svg width="174" height="162" viewBox="0 0 174 162" fill="none" xmlns="http://www.w3.org/2000/svg">
<path id="Vector" d="M128.119 2.74231C125.657 0.897434 122.628 -0.0686001 119.531 0.00379179H13.6111C10.0012 0.00379179 6.53918 1.41041 3.9866 3.91421C1.43402 6.41801 0 9.8139 0 13.3548L0.000646144 148.649C0.000646144 150.402 0.352708 152.138 1.03673 153.758C1.72075 155.378 2.72334 156.85 3.98725 158.09C5.25115 159.329 6.75163 160.313 8.40301 160.984C10.0544 161.655 11.8243 162 13.6118 162H160.389C163.999 162 167.461 160.593 170.013 158.09C172.566 155.586 174 152.19 174 148.649L173.999 31.1562C173.999 29.4029 173.647 27.6668 172.963 26.0469C172.279 24.4271 171.277 22.9553 170.013 21.7156C168.749 20.4758 167.248 19.4924 165.597 18.8214C163.946 18.1505 162.176 17.8051 160.388 17.8051H142.92C138.273 17.8051 134.217 14.6537 133.069 10.1506C132.327 7.2005 130.58 4.58718 128.119 2.74231Z" fill="url(#paint0_linear_163_2381)"/>
<defs>
<linearGradient id="paint0_linear_163_2381" x1="87" y1="0" x2="87" y2="136.08" gradientUnits="userSpaceOnUse">
<stop stop-color="#EDF6FE"/>
<stop offset="1" stop-color="#F5EDFE"/>
</linearGradient>
</defs>
</svg>
