<svg width="240" height="182" viewBox="0 0 240 182" fill="none" xmlns="http://www.w3.org/2000/svg">
<path id="Vector" d="M164.87 0.5052L164.882 0.504943C169.046 0.410555 173.117 1.67035 176.422 4.07217C179.726 6.47366 182.066 9.87166 183.06 13.7015L183.06 13.703C184.704 19.9551 190.356 24.3135 196.82 24.3135H221.225C223.628 24.3135 226.007 24.7637 228.226 25.6379C230.445 26.5121 232.46 27.7928 234.156 29.4057C235.852 31.0187 237.195 32.9321 238.112 35.0361C239.028 37.14 239.499 39.3941 239.499 41.6698L239.5 164.144C239.5 168.739 237.581 173.151 234.157 176.408C230.731 179.666 226.08 181.5 221.226 181.5H18.7748C16.3717 181.5 13.9926 181.05 11.7736 180.176C9.55468 179.301 7.54008 178.021 5.84424 176.408C4.14845 174.795 2.80468 172.881 1.88839 170.777C0.97212 168.673 0.500891 166.419 0.500891 164.144L0.5 17.8614C0.5 13.2665 2.41887 8.85445 5.84335 5.59735C9.26867 2.33945 13.9195 0.505071 18.7739 0.505071L164.87 0.5052Z" fill="url(#paint0_linear_73_561)" fill-opacity="0.7" stroke="white"/>
<defs>
<linearGradient id="paint0_linear_73_561" x1="-4.14794e-06" y1="7.93605" x2="147.081" y2="226.839" gradientUnits="userSpaceOnUse">
<stop stop-color="#F8EEFD"/>
<stop offset="1" stop-color="#FEF5EC"/>
</linearGradient>
</defs>
</svg>
