<svg width="174" height="162" viewBox="0 0 174 162" fill="none" xmlns="http://www.w3.org/2000/svg">
<path id="Vector" d="M119.531 0.503792V0.503928L119.543 0.503655C122.528 0.433864 125.448 1.36529 127.819 3.14241C130.19 4.91938 131.87 7.43505 132.585 10.2726L132.585 10.274C133.789 14.9987 138.044 18.3051 142.92 18.3051H160.388C162.111 18.3051 163.817 18.6381 165.409 19.2847C167 19.9312 168.446 20.8787 169.663 22.0725C170.88 23.2663 171.845 24.683 172.503 26.2415C173.161 27.7999 173.499 29.4699 173.499 31.1562L173.5 148.649C173.5 152.054 172.121 155.322 169.663 157.733C167.205 160.144 163.869 161.5 160.389 161.5H13.6118C11.8887 161.5 10.1826 161.167 8.59122 160.52C6.9998 159.874 5.55443 158.926 4.33737 157.733C3.12034 156.539 2.15546 155.122 1.49735 153.564C0.839238 152.005 0.500646 150.335 0.500646 148.649L0.5 13.3548C0.5 9.94965 1.87895 6.68197 4.33673 4.27116C6.79483 1.86003 10.1307 0.503792 13.6111 0.503792H119.531Z" fill="white" fill-opacity="0.7" stroke="#BDC3E3"/>
</svg>
