<svg width="48" height="39" viewBox="0 0 48 39" fill="none" xmlns="http://www.w3.org/2000/svg">
<g id="insert-cloud-video">
<path id="Union" fill-rule="evenodd" clip-rule="evenodd" d="M24.5409 0.233399C21.6979 0.233755 18.9278 1.13335 16.6271 2.80348C14.3264 4.4736 12.6129 6.82866 11.7317 9.53168C11.6517 9.53551 11.5717 9.54009 11.4917 9.5454C10.0152 9.4662 8.53812 9.68911 7.15074 10.2005C5.76337 10.7119 4.49493 11.5009 3.42304 12.5194C2.35115 13.538 1.49835 14.7645 0.916836 16.1239C0.33532 17.4834 0.0373129 18.9472 0.0410503 20.4258C0.0447878 21.9045 0.350191 23.3668 0.938572 24.7233C1.52695 26.0798 2.38594 27.302 3.46296 28.315C4.53999 29.3281 5.8124 30.1108 7.20234 30.6151C8.59228 31.1195 10.0705 31.3349 11.5466 31.2483H13.4426V22.0117C13.4426 17.2974 18.6266 14.4243 22.6243 16.9237L34.6929 24.4665C37.1203 25.982 37.9809 28.8071 37.2677 31.2517H37.6209L37.7237 31.2483C40.5264 31.0881 43.1584 29.8498 45.0684 27.7926C46.9785 25.7354 48.0185 23.0189 47.9707 20.2121C47.9228 17.4053 46.7908 14.7259 44.8117 12.735C42.8326 10.7441 40.1599 9.59619 37.3535 9.53168C36.4722 6.82811 34.7581 4.47265 32.4567 2.80247C30.1553 1.1323 27.3845 0.233031 24.5409 0.233399ZM33.1877 29.8974C33.2593 29.5545 33.2237 29.1978 33.0857 28.8758C32.9477 28.5538 32.714 28.282 32.4163 28.0974L20.3512 20.5545C20.0914 20.3922 19.7929 20.3024 19.4867 20.2945C19.1805 20.2866 18.8778 20.3609 18.6101 20.5097C18.3423 20.6584 18.1193 20.8762 17.9642 21.1404C17.8092 21.4045 17.7277 21.7054 17.7283 22.0117V37.0974C17.7289 37.4031 17.8113 37.7031 17.9668 37.9663C18.1224 38.2295 18.3455 38.4463 18.6131 38.5942C18.8806 38.7421 19.1828 38.8158 19.4884 38.8076C19.7941 38.7995 20.0919 38.7097 20.3512 38.5477L32.4197 31.0048C32.6167 30.8826 32.7865 30.7213 32.9186 30.5308C33.0507 30.3403 33.1423 30.1247 33.1877 29.8974Z" fill="url(#paint0_linear_439_1081)"/>
</g>
<defs>
<linearGradient id="paint0_linear_439_1081" x1="47.9723" y1="19.5208" x2="12.8754" y2="0.538547" gradientUnits="userSpaceOnUse">
<stop stop-color="#FF93A0"/>
<stop offset="1" stop-color="#FFCC6D"/>
</linearGradient>
</defs>
</svg>
