<svg width="44" height="46" viewBox="0 0 44 46" fill="none" xmlns="http://www.w3.org/2000/svg">
<g id="braille-blind--disability-braille-blind">
<path id="Union" fill-rule="evenodd" clip-rule="evenodd" d="M18.0016 11.9785C15.5707 11.9785 13.5993 13.9499 13.5993 16.3807V33.4139H11.4564C10.4887 33.4141 9.536 33.6531 8.6828 34.1098C7.82961 34.5664 7.10231 35.2266 6.56544 36.0318C6.02857 36.8369 5.69871 37.7621 5.60513 38.7253C5.51156 39.6885 5.65715 40.6599 6.02901 41.5533L7.87358 46.0002H35.3193V35.4196C35.3197 34.2611 35.092 33.1139 34.6491 32.0434C34.2062 30.9729 33.5568 30.0002 32.7379 29.1807C31.919 28.3612 30.9468 27.711 29.8767 27.2673C28.8065 26.8235 27.6595 26.5949 26.501 26.5945H22.4073V16.3773C22.4073 13.9465 20.4359 11.975 18.0016 11.975V11.9785ZM17.8644 0.00245202C18.2995 -0.0116903 18.7329 0.0617818 19.139 0.2185C19.545 0.375219 19.9155 0.611984 20.2282 0.91472C20.5409 1.21746 20.7896 1.57998 20.9594 1.98075C21.1293 2.38151 21.2168 2.81233 21.2168 3.24759C21.2168 3.68286 21.1293 4.11368 20.9594 4.51444C20.7896 4.91521 20.5409 5.27773 20.2282 5.58047C19.9155 5.88321 19.545 6.11997 19.139 6.27669C18.7329 6.43341 18.2995 6.50688 17.8644 6.49274C17.022 6.46535 16.2233 6.11146 15.6371 5.50586C15.0508 4.90027 14.7231 4.09045 14.7231 3.24759C14.7231 2.40474 15.0508 1.59492 15.6371 0.989326C16.2233 0.383734 17.022 0.0298375 17.8644 0.00245202ZM30.4644 11.4059C30.8995 11.3917 31.3329 11.4652 31.739 11.6219C32.145 11.7786 32.5155 12.0154 32.8282 12.3181C33.1409 12.6209 33.3896 12.9834 33.5594 13.3842C33.7293 13.7849 33.8168 14.2158 33.8168 14.651C33.8168 15.0863 33.7293 15.5171 33.5594 15.9179C33.3896 16.3186 33.1409 16.6812 32.8282 16.9839C32.5155 17.2866 32.145 17.5234 31.739 17.6801C31.3329 17.8368 30.8995 17.9103 30.4644 17.8962C29.622 17.8688 28.8233 17.5149 28.2371 16.9093C27.6508 16.3037 27.3231 15.4939 27.3231 14.651C27.3231 13.8082 27.6508 12.9983 28.2371 12.3928C28.8233 11.7872 29.622 11.4333 30.4644 11.4059ZM39.677 11.4059C40.112 11.3917 40.5455 11.4652 40.9515 11.6219C41.3576 11.7786 41.728 12.0154 42.0408 12.3181C42.3535 12.6209 42.6022 12.9834 42.772 13.3842C42.9418 13.7849 43.0294 14.2158 43.0294 14.651C43.0294 15.0863 42.9418 15.5171 42.772 15.9179C42.6022 16.3186 42.3535 16.6812 42.0408 16.9839C41.728 17.2866 41.3576 17.5234 40.9515 17.6801C40.5455 17.8368 40.112 17.9103 39.677 17.8962C38.8346 17.8688 38.0359 17.5149 37.4496 16.9093C36.8634 16.3037 36.5356 15.4939 36.5356 14.651C36.5356 13.8082 36.8634 12.9983 37.4496 12.3928C38.0359 11.7872 38.8346 11.4333 39.677 11.4059ZM4.32501 17.8962C3.88997 17.9103 3.45654 17.8368 3.05047 17.6801C2.6444 17.5234 2.27398 17.2866 1.96124 16.9839C1.64851 16.6812 1.39983 16.3186 1.23 15.9179C1.06017 15.5171 0.972656 15.0863 0.972656 14.651C0.972656 14.2158 1.06017 13.7849 1.23 13.3842C1.39983 12.9834 1.64851 12.6209 1.96124 12.3181C2.27398 12.0154 2.6444 11.7786 3.05047 11.6219C3.45654 11.4652 3.88997 11.3917 4.32501 11.4059C5.16742 11.4333 5.96616 11.7872 6.55239 12.3928C7.13861 12.9983 7.46637 13.8082 7.46637 14.651C7.46637 15.4939 7.13861 16.3037 6.55239 16.9093C5.96616 17.5149 5.16742 17.8688 4.32501 17.8962ZM4.32501 29.2447C3.88997 29.2589 3.45654 29.1854 3.05047 29.0287C2.6444 28.872 2.27398 28.6352 1.96124 28.3325C1.64851 28.0297 1.39983 27.6672 1.23 27.2664C1.06017 26.8657 0.972656 26.4349 0.972656 25.9996C0.972656 25.5643 1.06017 25.1335 1.23 24.7327C1.39983 24.332 1.64851 23.9695 1.96124 23.6667C2.27398 23.364 2.6444 23.1272 3.05047 22.9705C3.45654 22.8138 3.88997 22.7403 4.32501 22.7545C5.16742 22.7818 5.96616 23.1357 6.55239 23.7413C7.13861 24.3469 7.46637 25.1567 7.46637 25.9996C7.46637 26.8424 7.13861 27.6523 6.55239 28.2579C5.96616 28.8635 5.16742 29.2174 4.32501 29.2447ZM4.32501 -0.000976562C5.18613 -0.000976562 6.01198 0.341102 6.62088 0.950006C7.22979 1.55891 7.57187 2.38476 7.57187 3.24588C7.57187 4.107 7.22979 4.93285 6.62088 5.54176C6.01198 6.15066 5.18613 6.49274 4.32501 6.49274C3.4826 6.46535 2.68385 6.11146 2.09763 5.50586C1.5114 4.90027 1.18365 4.09045 1.18365 3.24759C1.18365 2.40474 1.5114 1.59492 2.09763 0.989326C2.68385 0.383734 3.4826 0.0298375 4.32501 0.00245202V-0.000976562ZM39.6736 -0.000976562C40.5347 -0.000976562 41.3606 0.341102 41.9695 0.950006C42.5784 1.55891 42.9204 2.38476 42.9204 3.24588C42.9204 4.107 42.5784 4.93285 41.9695 5.54176C41.3606 6.15066 40.5347 6.49274 39.6736 6.49274C38.8312 6.46535 38.0324 6.11146 37.4462 5.50586C36.86 4.90027 36.5322 4.09045 36.5322 3.24759C36.5322 2.40474 36.86 1.59492 37.4462 0.989326C38.0324 0.383734 38.8312 0.0298375 39.6736 0.00245202V-0.000976562Z" fill="white"/>
</g>
</svg>
