<svg width="48" height="40" viewBox="0 0 48 40" fill="none" xmlns="http://www.w3.org/2000/svg">
<g id="mail-send-envelope--envelope-email-message-unopened-sealed-close">
<path id="Subtract" fill-rule="evenodd" clip-rule="evenodd" d="M0 5.42899C0 4.06502 0.541835 2.75691 1.50631 1.79244C2.47078 0.827968 3.77889 0.286133 5.14286 0.286133H42.8571C44.2211 0.286133 45.5292 0.827968 46.4937 1.79244C47.4582 2.75691 48 4.06502 48 5.42899V6.60156L25.3131 21.7284C24.9171 21.9667 24.4621 22.0891 24 22.0816C23.5379 22.0891 23.0829 21.9667 22.6869 21.7284L0 6.60156V5.42899ZM0 11.7513V34.5718C0 35.9358 0.541835 37.2439 1.50631 38.2084C2.47078 39.1729 3.77889 39.7147 5.14286 39.7147H42.8571C44.2211 39.7147 45.5292 39.1729 46.4937 38.2084C47.4582 37.2439 48 35.9358 48 34.5718V11.7513L27.6789 25.301L27.6617 25.3147C26.5678 26.0104 25.2964 26.3759 24 26.3673C22.7143 26.3673 21.4183 26.0176 20.3383 25.3147L20.3211 25.301L0 11.7513Z" fill="#fff"/>
</g>
</svg>
