<svg width="13" height="17" viewBox="0 0 13 17" fill="none" xmlns="http://www.w3.org/2000/svg">
<path d="M2.98101 2.95398L2.98101 14.0066C2.98101 14.5552 2.53754 15 1.9905 15C1.44346 15 1 14.5552 1 14.0066L1 2.95398C1 2.42711 1.44346 2 1.9905 2C2.53754 2 2.98101 2.42711 2.98101 2.95398Z" fill="#A4ABCE"/>
<path d="M11 2.95398L11 14.0066C11 14.5552 10.5565 15 10.0095 15C9.46246 15 9.01899 14.5552 9.01899 14.0066V2.95398C9.01899 2.42711 9.46246 2 10.0095 2C10.5565 2 11 2.42711 11 2.95398Z" fill="#A4ABCE"/>
</svg>
